{
.appVersion = "1352";
copyright = "Copyright 2020 The Moulpali Project Authors (https://github.com/danhhong/Moulpali)";
customParameters = (
{
name = "Use Typo Metrics";
value = 1;
},
{
name = license;
value = "This Font Software is licensed under the SIL Open Font License, Version 1.1. This license is available with a FAQ at: https://scripts.sil.org/OFL";
},
{
name = licenseURL;
value = "https://scripts.sil.org/OFL";
},
{
name = fsType;
value = (
);
}
);
date = "2021-10-28 13:32:42 +0000";
designer = "Danh Hong";
designerURL = "http://www.nextspell.com";
disablesAutomaticAlignment = 1;
disablesNiceNames = 1;
familyName = Moulpali;
featurePrefixes = (
{
code = "lookup lookup_0 {\012sub uni17B7 by uni17B7.r;\012sub uni17B8 by uni17B8.r;\012sub uni17B9 by uni17B9.r;\012sub uni17BA by uni17BA.r;\012sub uni17BE by uni17B8.r;\012sub uni17C6 by uni17C6.r;\012sub uni17C9 by uni17C9.r;\012sub uni17CD by uni17CD.r;\012sub uni17B7_17CD by iMark_17CDkhmer.r;\012} lookup_0;\012";
name = lookup_0;
},
{
code = "lookup lookup_1 {\012sub uni17B7 by uni17B7.a;\012sub uni17B8 by uni17B8.a;\012sub uni17B9 by uni17B9.a;\012sub uni17BA by uni17BA.a;\012sub uni17BE by uni17B8.a;\012sub uni17C6 by uni17C6.a;\012sub uni17CE by uni17CE.a;\012sub uni17D0 by uni17D0.a;\012} lookup_1;\012";
name = lookup_1;
},
{
code = "lookup lookup_10 {\012sub uni17BB by uni17BB.n;\012sub uni17BC by uni17BC.n;\012sub uni17BD by uni17BD.n;\012} lookup_10;\012";
name = lookup_10;
},
{
code = "lookup lookup_11 {\012sub uni17BB.b by uni17BB.n2;\012sub uni17BC.b by uni17BC.n2;\012sub uni17BD.b by uni17BD.n2;\012} lookup_11;\012";
name = lookup_11;
},
{

glyphs = (
{
glyphname = A;
lastChange = "2021-04-30 13:13:23 +0000";
layers = (
{
layerId = "BB6B0684-34D4-4B80-99D1-F5F29B570554";
paths = (
{
closed = 1;
nodes = (
"397 1434 LINE",
"51 0 LINE",
"233 0 LINE",
"313 362 LINE",
"713 362 LINE",
"790 0 LINE",
"973 0 LINE",
"633 1434 LINE"
);
},
{
closed = 1;
nodes = (
"512 1298 LINE",
"680 516 LINE",
"346 516 LINE"
);
}
);
width = 1024;
}
);
note = A;
unicode = 0041;
},
{
glyphname = B;
lastChange = "2021-04-30 13:13:23 +0000";
layers = (
{
layerId = "BB6B0684-34D4-4B80-99D1-F5F29B570554";
paths = (
{
closed = 1;
nodes = (
"926 547 OFFCURVE",
"897 622 OFFCURVE",
"857 673 CURVE SMOOTH",
"817 724 OFFCURVE",
"768 751 OFFCURVE",
"727 764 CURVE",
"808 800 OFFCURVE",
"891 901 OFFCURVE",
"891 1073 CURVE SMOOTH",
"891 1210 OFFCURVE",
"855 1304 OFFCURVE",
"787 1364 CURVE SMOOTH",
"718 1424 OFFCURVE",
"621 1448 OFFCURVE",
"498 1448 CURVE SMOOTH",
"431 1448 OFFCURVE",
"350 1447 OFFCURVE",
"287 1442 CURVE SMOOTH",
"250 1439 OFFCURVE",
"212 1437 OFFCURVE",
"174 1434 CURVE",
"174 0 LINE",
"209 -3 OFFCURVE",
"246 -5 OFFCURVE",
"285 -8 CURVE SMOOTH",
"350 -13 OFFCURVE",
"435 -14 OFFCURVE",
"522 -14 CURVE SMOOTH",
"645 -14 OFFCURVE",
"747 12 OFFCURVE",
"816 81 CURVE SMOOTH",
"885 150 OFFCURVE",
"926 260 OFFCURVE",
"926 432 CURVE SMOOTH"
);
},
{
closed = 1;
nodes = (
"713 950 OFFCURVE",
"685 893 OFFCURVE",
"648 863 CURVE SMOOTH",
"611 833 OFFCURVE",
"563 827 OFFCURVE",
"522 827 CURVE SMOOTH",
"352 827 LINE",
"352 1288 LINE",
"367 1289 OFFCURVE",
"384 1291 OFFCURVE",
"401 1294 CURVE SMOOTH",
"432 1298 OFFCURVE",
"473 1300 OFFCURVE",
"522 1300 CURVE SMOOTH",
"675 1300 OFFCURVE",
"713 1228 OFFCURVE",
"713 1059 CURVE SMOOTH"
);
},
{
closed = 1;
nodes = (
"743 298 OFFCURVE",
"720 227 OFFCURVE",
"683 187 CURVE SMOOTH",
"646 146 OFFCURVE",
"596 135 OFFCURVE",
"541 135 CURVE SMOOTH",
"497 135 OFFCURVE",
"451 138 OFFCURVE",
"414 141 CURVE SMOOTH",
"392 142 OFFCURVE",
"371 144 OFFCURVE",
"352 145 CURVE",
"352 680 LINE",
"543 680 LINE SMOOTH",
"692 680 OFFCURVE",
"743 598 OFFCURVE",
"743 418 CURVE SMOOTH"
);
}
);
width = 1048;
}
);
note = B;
unicode = 0042;
},
{
glyphname = C;
lastChange = "2021-04-30 13:13:23 +0000";
layers = (
{
layerId = "BB6B0684-34D4-4B80-99D1-F5F29B570554";
paths = (
{
closed = 1;
nodes = (
"722 157 OFFCURVE",
"621 139 OFFCURVE",
"536 139 CURVE SMOOTH",
"463 139 OFFCURVE",
"408 158 OFFCURVE",
"372 240 CURVE SMOOTH",
"335 322 OFFCURVE",
"315 468 OFFCURVE",
"315 725 CURVE SMOOTH",
"315 973 OFFCURVE",
"333 1115 OFFCURVE",
"369 1195 CURVE SMOOTH",
"404 1275 OFFCURVE",
"461 1294 OFFCURVE",
"534 1294 CURVE SMOOTH",
"614 1294 OFFCURVE",
"706 1284 OFFCURVE",
"774 1268 CURVE",
"774 1419 LINE",
"719 1434 OFFCURVE",
"636 1448 OFFCURVE",
"571 1448 CURVE SMOOTH",
"422 1448 OFFCURVE",
"313 1423 OFFCURVE",
"241 1320 CURVE SMOOTH",
"168 1217 OFFCURVE",
"133 1043 OFFCURVE",
"133 739 CURVE SMOOTH",
"133 434 OFFCURVE",
"163 245 OFFCURVE",
"230 133 CURVE SMOOTH",
"297 21 OFFCURVE",
"399 -14 OFFCURVE",
"547 -14 CURVE SMOOTH",
"604 -14 OFFCURVE",
"732 9 OFFCURVE",
"774 20 CURVE",
"774 170 LINE"
);
}
);
width = 866;
}
);
note = C;
unicode = 0043;
},
{
glyphname = D;
lastChange = "2021-04-30 13:13:23 +0000";
layers = (
{
layerId = "BB6B0684-34D4-4B80-99D1-F5F29B570554";
paths = (
{
closed = 1;
nodes = (
"944 1043 OFFCURVE",
"908 1217 OFFCURVE",
"834 1320 CURVE SMOOTH",
"760 1423 OFFCURVE",
"650 1448 OFFCURVE",
"506 1448 CURVE SMOOTH",
"435 1448 OFFCURVE",
"352 1447 OFFCURVE",
"287 1442 CURVE SMOOTH",
"248 1439 OFFCURVE",
"211 1437 OFFCURVE",
"174 1434 CURVE",
"174 0 LINE",
"212 -3 OFFCURVE",
"252 -5 OFFCURVE",
"293 -8 CURVE SMOOTH",
"364 -13 OFFCURVE",
"451 -14 OFFCURVE",
"530 -14 CURVE SMOOTH",
"667 -14 OFFCURVE",
"771 21 OFFCURVE",
"841 133 CURVE SMOOTH",
"911 245 OFFCURVE",
"944 434 OFFCURVE",
"944 739 CURVE SMOOTH"
);
},
{
closed = 1;
nodes = (
"762 501 OFFCURVE",
"740 353 OFFCURVE",
"704 262 CURVE SMOOTH",
"667 170 OFFCURVE",
"612 135 OFFCURVE",
"549 135 CURVE SMOOTH",
"505 135 OFFCURVE",
"455 136 OFFCURVE",
"418 139 CURVE SMOOTH",
"395 140 OFFCURVE",
"373 142 OFFCURVE",
"352 143 CURVE",
"352 1290 LINE",
"375 1291 OFFCURVE",
"399 1293 OFFCURVE",
"424 1294 CURVE SMOOTH",
"465 1297 OFFCURVE",
"512 1298 OFFCURVE",
"551 1298 CURVE SMOOTH",
"614 1298 OFFCURVE",
"665 1277 OFFCURVE",
"703 1196 CURVE SMOOTH",
"741 1115 OFFCURVE",
"762 970 OFFCURVE",
"762 725 CURVE SMOOTH"
);
}
);
width = 1077;
}
);
note = D;
unicode = 0044;
},
{
glyphname = E;
lastChange = "2021-04-30 13:13:23 +0000";
layers = (
{
layerId = "BB6B0684-34D4-4B80-99D1-F5F29B570554";
paths = (
{
closed = 1;
nodes = (
"352 150 LINE",
"352 666 LINE",
"795 666 LINE",
"795 815 LINE",
"352 815 LINE",
"352 1284 LINE",
"846 1284 LINE",
"846 1434 LINE",
"174 1434 LINE",
"174 0 LINE",
"846 0 LINE",
"846 150 LINE"
);
}
);
width = 968;
}
);
note = E;
unicode = 0045;
},
{
glyphname = F;
lastChange = "2021-04-30 13:13:23 +0000";
layers = (
{
layerId = "BB6B0684-34D4-4B80-99D1-F5F29B570554";
paths = (
{
closed = 1;
nodes = (
"174 1434 LINE",
"174 0 LINE",
"352 0 LINE",
"352 645 LINE",
"795 645 LINE",
"795 795 LINE",
"352 795 LINE",
"352 1284 LINE",
"846 1284 LINE",
"846 1434 LINE"
);
}
);
width = 937;
}
);
note = F;
unicode = 0046;
},
{
glyphname = G;
lastChange = "2021-04-30 13:13:23 +0000";
layers = (
{
layerId = "BB6B0684-34D4-4B80-99D1-F5F29B570554";
paths = (
{
closed = 1;
nodes = (
"528 604 LINE",
"711 604 LINE",
"711 150 LINE",
"656 141 OFFCURVE",
"596 135 OFFCURVE",
"549 135 CURVE SMOOTH",
"466 135 OFFCURVE",
"409 153 OFFCURVE",
"371 237 CURVE SMOOTH",
"333 320 OFFCURVE",
"315 468 OFFCURVE",
"315 725 CURVE SMOOTH",
"315 973 OFFCURVE",
"336 1117 OFFCURVE",
"378 1199 CURVE SMOOTH",
"420 1281 OFFCURVE",
"484 1298 OFFCURVE",
"571 1298 CURVE SMOOTH",
"659 1298 OFFCURVE",
"750 1288 OFFCURVE",
"838 1272 CURVE",
"838 1419 LINE",
"786 1434 OFFCURVE",
"679 1448 OFFCURVE",
"608 1448 CURVE SMOOTH",
"447 1448 OFFCURVE",
"327 1423 OFFCURVE",
"249 1320 CURVE SMOOTH",
"171 1217 OFFCURVE",
"133 1043 OFFCURVE",
"133 739 CURVE SMOOTH",
"133 434 OFFCURVE",
"161 245 OFFCURVE",
"228 133 CURVE SMOOTH",
"295 21 OFFCURVE",
"403 -14 OFFCURVE",
"559 -14 CURVE SMOOTH",
"671 -14 OFFCURVE",
"772 -1 OFFCURVE",
"881 20 CURVE",
"881 754 LINE",
"528 754 LINE"
);
}
);
width = 1024;
}
);
note = G;
unicode = 0047;
},
{
glyphname = H;
lastChange = "2021-04-30 13:13:23 +0000";
layers = (
{
layerId = "BB6B0684-34D4-4B80-99D1-F5F29B570554";
paths = (
{
closed = 1;
nodes = (
"774 1434 LINE",
"774 811 LINE",
"352 811 LINE",
"352 1434 LINE",
"174 1434 LINE",
"174 0 LINE",
"352 0 LINE",
"352 659 LINE",
"774 659 LINE",
"774 0 LINE",
"952 0 LINE",
"952 1434 LINE"
);
}
);
width = 1126;
}
);
note = H;
unicode = 0048;
},
{
glyphname = I;
lastChange = "2021-04-30 13:13:23 +0000";
layers = (
{
layerId = "BB6B0684-34D4-4B80-99D1-F5F29B570554";
paths = (
{
closed = 1;
nodes = (
"414 150 LINE",
"414 1284 LINE",
"557 1284 LINE",
"557 1434 LINE",
"92 1434 LINE",
"92 1284 LINE",
"235 1284 LINE",
"235 150 LINE",
"92 150 LINE",
"92 0 LINE",
"557 0 LINE",
"557 150 LINE"
);
}
);
width = 649;
}
);
note = I;
unicode = 0049;
},
{
glyphname = J;
lastChange = "2021-04-30 13:13:23 +0000";
layers = (
{
layerId = "BB6B0684-34D4-4B80-99D1-F5F29B570554";
paths = (
{
closed = 1;
nodes = (
"147 1434 LINE",
"147 1284 LINE",
"477 1284 LINE",
"477 500 LINE SMOOTH",
"477 344 OFFCURVE",
"464 253 OFFCURVE",
"433 202 CURVE SMOOTH",
"401 151 OFFCURVE",
"351 139 OFFCURVE",
"278 139 CURVE SMOOTH",
"238 139 OFFCURVE",
"128 148 OFFCURVE",
"71 158 CURVE",
"71 6 LINE",
"125 -3 OFFCURVE",
"266 -14 OFFCURVE",
"290 -14 CURVE SMOOTH",
"421 -14 OFFCURVE",
"511 8 OFFCURVE",
"570 84 CURVE SMOOTH",
"629 160 OFFCURVE",
"655 293 OFFCURVE",
"655 514 CURVE SMOOTH",
"655 1434 LINE"
);
}
);
width = 819;
}
);
note = J;
unicode = 004A;
},
{
glyphname = K;
lastChange = "2021-04-30 13:13:23 +0000";
layers = (
{
layerId = "BB6B0684-34D4-4B80-99D1-F5F29B570554";
paths = (
{
closed = 1;
nodes = (
"926 1434 LINE",
"735 1434 LINE",
"352 805 LINE",
"352 1434 LINE",
"174 1434 LINE",
"174 0 LINE",
"352 0 LINE",
"352 535 LINE",
"426 657 LINE",
"745 0 LINE",
"946 0 LINE",
"536 807 LINE"
);
}
);
width = 1007;
}
);
note = K;
unicode = 004B;
},
{
glyphname = L;
lastChange = "2021-04-30 13:13:23 +0000";
layers = (
{
layerId = "BB6B0684-34D4-4B80-99D1-F5F29B570554";
paths = (
{
closed = 1;
nodes = (
"352 156 LINE",
"352 1434 LINE",
"174 1434 LINE",
"174 0 LINE",
"809 0 LINE",
"809 156 LINE"
);
}
);
width = 839;
}
);
note = L;
unicode = 004C;
},
{
glyphname = M;
lastChange = "2021-04-30 13:13:23 +0000";
layers = (
{
layerId = "BB6B0684-34D4-4B80-99D1-F5F29B570554";
paths = (
{
closed = 1;
nodes = (
"833 1434 LINE",
"649 700 LINE",
"463 1434 LINE",
"174 1434 LINE",
"174 0 LINE",
"338 0 LINE",
"338 1286 LINE",
"557 481 LINE",
"727 481 LINE",
"946 1286 LINE",
"946 0 LINE",
"1116 0 LINE",
"1116 1434 LINE"
);
}
);
width = 1290;
}
);
note = M;
unicode = 004D;
},
{
glyphname = N;
lastChange = "2021-04-30 13:13:23 +0000";
layers = (
{
layerId = "BB6B0684-34D4-4B80-99D1-F5F29B570554";
paths = (
{
closed = 1;
nodes = (
"780 1434 LINE",
"780 152 LINE",
"465 1434 LINE",
"174 1434 LINE",
"174 0 LINE",
"340 0 LINE",
"340 1282 LINE",
"653 0 LINE",
"946 0 LINE",
"946 1434 LINE"
);
}
);
width = 1120;
}
);
note = N;
unicode = 004E;
},
{
glyphname = O;
lastChange = "2021-04-30 13:13:23 +0000";
layers = (
{
layerId = "BB6B0684-34D4-4B80-99D1-F5F29B570554";
paths = (
{
closed = 1;
nodes = (
"989 973 OFFCURVE",
"966 1152 OFFCURVE",
"902 1271 CURVE SMOOTH",
"838 1390 OFFCURVE",
"730 1448 OFFCURVE",
"561 1448 CURVE SMOOTH",
"392 1448 OFFCURVE",
"284 1390 OFFCURVE",
"220 1271 CURVE SMOOTH",
"156 1152 OFFCURVE",
"133 973 OFFCURVE",
"133 733 CURVE SMOOTH",
"133 482 OFFCURVE",
"156 295 OFFCURVE",
"220 171 CURVE SMOOTH",
"284 47 OFFCURVE",
"392 -14 OFFCURVE",
"561 -14 CURVE SMOOTH",
"730 -14 OFFCURVE",
"838 47 OFFCURVE",
"902 171 CURVE SMOOTH",
"966 295 OFFCURVE",
"989 482 OFFCURVE",
"989 733 CURVE SMOOTH"
);
},
{
closed = 1;
nodes = (
"807 502 OFFCURVE",
"792 357 OFFCURVE",
"754 265 CURVE SMOOTH",
"716 172 OFFCURVE",
"654 135 OFFCURVE",
"561 135 CURVE SMOOTH",
"468 135 OFFCURVE",
"407 172 OFFCURVE",
"369 265 CURVE SMOOTH",
"331 357 OFFCURVE",
"315 502 OFFCURVE",
"315 723 CURVE SMOOTH",
"315 950 OFFCURVE",
"331 1092 OFFCURVE",
"369 1180 CURVE SMOOTH",
"407 1267 OFFCURVE",
"468 1298 OFFCURVE",
"561 1298 CURVE SMOOTH",
"654 1298 OFFCURVE",
"716 1267 OFFCURVE",
"754 1180 CURVE SMOOTH",
"792 1092 OFFCURVE",
"807 950 OFFCURVE",
"807 723 CURVE SMOOTH"
);
}
);
width = 1122;
}
);
note = O;
unicode = 004F;
},
{
glyphname = P;
lastChange = "2021-04-30 13:13:23 +0000";
layers = (
{
layerId = "BB6B0684-34D4-4B80-99D1-F5F29B570554";
paths = (
{
closed = 1;
nodes = (
"922 1129 OFFCURVE",
"901 1240 OFFCURVE",
"839 1320 CURVE SMOOTH",
"777 1400 OFFCURVE",
"676 1448 OFFCURVE",
"520 1448 CURVE SMOOTH",
"436 1448 OFFCURVE",
"348 1447 OFFCURVE",
"283 1442 CURVE SMOOTH",
"244 1439 OFFCURVE",
"208 1437 OFFCURVE",
"174 1434 CURVE",
"174 0 LINE",
"352 0 LINE",
"352 541 LINE",
"524 541 LINE SMOOTH",
"669 541 OFFCURVE",
"768 579 OFFCURVE",
"832 656 CURVE SMOOTH",
"895 732 OFFCURVE",
"922 848 OFFCURVE",
"922 1004 CURVE SMOOTH"
);
},
{
closed = 1;
nodes = (
"739 877 OFFCURVE",
"720 803 OFFCURVE",
"685 756 CURVE SMOOTH",
"650 709 OFFCURVE",
"602 690 OFFCURVE",
"545 690 CURVE SMOOTH",
"352 690 LINE",
"352 1288 LINE",
"367 1289 OFFCURVE",
"385 1291 OFFCURVE",
"405 1294 CURVE SMOOTH",
"441 1298 OFFCURVE",
"488 1300 OFFCURVE",
"545 1300 CURVE SMOOTH",
"692 1300 OFFCURVE",
"739 1194 OFFCURVE",
"739 989 CURVE SMOOTH"
);
}
);
width = 1024;
}
);
note = P;
unicode = 0050;
},
{
glyphname = Q;
lastChange = "2021-04-30 13:13:23 +0000";
layers = (
{
layerId = "BB6B0684-34D4-4B80-99D1-F5F29B570554";
paths = (
{
closed = 1;
nodes = (
"786 47 LINE",
"942 151 OFFCURVE",
"989 389 OFFCURVE",
"989 733 CURVE SMOOTH",
"989 973 OFFCURVE",
"966 1152 OFFCURVE",
"902 1271 CURVE SMOOTH",
"838 1390 OFFCURVE",
"730 1448 OFFCURVE",
"561 1448 CURVE SMOOTH",
"392 1448 OFFCURVE",
"284 1390 OFFCURVE",
"220 1271 CURVE SMOOTH",
"156 1152 OFFCURVE",
"133 973 OFFCURVE",
"133 733 CURVE SMOOTH",
"133 482 OFFCURVE",
"156 295 OFFCURVE",
"220 171 CURVE SMOOTH",
"284 47 OFFCURVE",
"392 -14 OFFCURVE",
"561 -14 CURVE",
"1030 -172 LINE",
"1030 0 LINE"
);
},
{
closed = 1;
nodes = (
"807 502 OFFCURVE",
"792 357 OFFCURVE",
"754 265 CURVE SMOOTH",
"716 172 OFFCURVE",
"654 135 OFFCURVE",
"561 135 CURVE SMOOTH",
"468 135 OFFCURVE",
"407 172 OFFCURVE",
"369 265 CURVE SMOOTH",
"331 357 OFFCURVE",
"315 502 OFFCURVE",
"315 723 CURVE SMOOTH",
"315 950 OFFCURVE",
"331 1092 OFFCURVE",
"369 1180 CURVE SMOOTH",
"407 1267 OFFCURVE",
"468 1298 OFFCURVE",
"561 1298 CURVE SMOOTH",
"654 1298 OFFCURVE",
"716 1267 OFFCURVE",
"754 1180 CURVE SMOOTH",
"792 1092 OFFCURVE",
"807 950 OFFCURVE",
"807 723 CURVE SMOOTH"
);
}
);
width = 1122;
}
);
note = Q;
unicode = 0051;
},
{
glyphname = R;
lastChange = "2021-04-30 13:13:23 +0000";
layers = (
{
layerId = "BB6B0684-34D4-4B80-99D1-F5F29B570554";
paths = (
{
closed = 1;
nodes = (
"917 1155 OFFCURVE",
"896 1260 OFFCURVE",
"836 1334 CURVE SMOOTH",
"775 1408 OFFCURVE",
"676 1448 OFFCURVE",
"520 1448 CURVE SMOOTH",
"436 1448 OFFCURVE",
"348 1447 OFFCURVE",
"283 1442 CURVE SMOOTH",
"244 1439 OFFCURVE",
"208 1437 OFFCURVE",
"174 1434 CURVE",
"174 0 LINE",
"352 0 LINE",
"352 594 LINE",
"534 594 LINE",
"797 0 LINE",
"993 0 LINE",
"713 623 LINE",
"860 680 OFFCURVE",
"917 817 OFFCURVE",
"917 1030 CURVE SMOOTH"
);
},
{
closed = 1;
nodes = (
"735 904 OFFCURVE",
"718 835 OFFCURVE",
"683 796 CURVE SMOOTH",
"648 756 OFFCURVE",
"602 743 OFFCURVE",
"545 743 CURVE SMOOTH",
"352 743 LINE",
"352 1288 LINE",
"367 1289 OFFCURVE",
"385 1291 OFFCURVE",
"405 1294 CURVE SMOOTH",
"441 1298 OFFCURVE",
"488 1300 OFFCURVE",
"545 1300 CURVE SMOOTH",
"689 1300 OFFCURVE",
"735 1215 OFFCURVE",
"735 1016 CURVE SMOOTH"
);
}
);
width = 1054;
}
);
note = R;
unicode = 0052;
},
{
glyphname = S;
lastChange = "2021-04-30 13:13:23 +0000";
layers = (
{
layerId = "BB6B0684-34D4-4B80-99D1-F5F29B570554";
paths = (
{
closed = 1;
nodes = (
"780 557 OFFCURVE",
"748 656 OFFCURVE",
"692 720 CURVE SMOOTH",
"636 784 OFFCURVE",
"557 816 OFFCURVE",
"458 836 CURVE SMOOTH",
"323 864 OFFCURVE",
"300 916 OFFCURVE",
"300 1075 CURVE SMOOTH",
"300 1226 OFFCURVE",
"388 1298 OFFCURVE",
"501 1298 CURVE SMOOTH",
"572 1298 OFFCURVE",
"667 1284 OFFCURVE",
"739 1268 CURVE",
"739 1417 LINE",
"678 1434 OFFCURVE",
"590 1448 OFFCURVE",
"521 1448 CURVE SMOOTH",
"404 1448 OFFCURVE",
"304 1423 OFFCURVE",
"232 1360 CURVE SMOOTH",
"159 1297 OFFCURVE",
"118 1200 OFFCURVE",
"118 1053 CURVE SMOOTH",
"118 933 OFFCURVE",
"141 846 OFFCURVE",
"190 786 CURVE SMOOTH",
"239 726 OFFCURVE",
"316 690 OFFCURVE",
"431 666 CURVE SMOOTH",
"556 639 OFFCURVE",
"597 573 OFFCURVE",
"597 387 CURVE SMOOTH",
"597 215 OFFCURVE",
"537 135 OFFCURVE",
"394 135 CURVE SMOOTH",
"283 135 OFFCURVE",
"200 150 OFFCURVE",
"136 166 CURVE",
"136 16 LINE",
"208 -3 OFFCURVE",
"309 -14 OFFCURVE",
"374 -14 CURVE SMOOTH",
"497 -14 OFFCURVE",
"598 7 OFFCURVE",
"669 70 CURVE SMOOTH",
"740 133 OFFCURVE",
"780 239 OFFCURVE",
"780 408 CURVE SMOOTH"
);
}
);
width = 888;
}
);
note = S;
unicode = 0053;
},
{
glyphname = T;
lastChange = "2021-04-30 13:13:23 +0000";
layers = (
{
layerId = "BB6B0684-34D4-4B80-99D1-F5F29B570554";
paths = (
{
closed = 1;
nodes = (
"30 1434 LINE",
"30 1278 LINE",
"345 1278 LINE",
"345 0 LINE",
"524 0 LINE",
"524 1278 LINE",
"839 1278 LINE",
"839 1434 LINE"
);
}
);
width = 870;
}
);
note = T;
unicode = 0054;
},
{
glyphname = U;
lastChange = "2021-04-30 13:13:23 +0000";
layers = (
{
layerId = "BB6B0684-34D4-4B80-99D1-F5F29B570554";
paths = (
{
closed = 1;
nodes = (
"753 340 LINE SMOOTH",
"753 195 OFFCURVE",
"671 135 OFFCURVE",
"548 135 CURVE SMOOTH",
"425 135 OFFCURVE",
"341 195 OFFCURVE",
"341 340 CURVE SMOOTH",
"341 1434 LINE",
"163 1434 LINE",
"163 379 LINE SMOOTH",
"163 103 OFFCURVE",
"313 -14 OFFCURVE",
"548 -14 CURVE SMOOTH",
"783 -14 OFFCURVE",
"931 103 OFFCURVE",
"931 379 CURVE SMOOTH",
"931 1434 LINE",
"753 1434 LINE"
);
}
);
width = 1095;
}
);
note = U;
unicode = 0055;
},
{
glyphname = V;
lastChange = "2021-04-30 13:13:23 +0000";
layers = (
{
layerId = "BB6B0684-34D4-4B80-99D1-F5F29B570554";
paths = (
{
closed = 1;
nodes = (
"477 180 LINE",
"251 1434 LINE",
"71 1434 LINE",
"352 0 LINE",
"595 0 LINE",
"896 1434 LINE",
"720 1434 LINE"
);
}
);
width = 968;
}
);
note = V;
unicode = 0056;
},
{
glyphname = W;
lastChange = "2021-04-30 13:13:23 +0000";
layers = (
{
layerId = "BB6B0684-34D4-4B80-99D1-F5F29B570554";
paths = (
{
closed = 1;
nodes = (
"891 113 LINE",
"704 829 LINE",
"536 829 LINE",
"352 113 LINE",
"291 1434 LINE",
"133 1434 LINE",
"203 0 LINE",
"469 0 LINE",
"618 623 LINE",
"756 0 LINE",
"1034 0 LINE",
"1104 1434 LINE",
"954 1434 LINE"
);
}
);
width = 1206;
}
);
note = W;
unicode = 0057;
},
{
glyphname = X;
lastChange = "2021-04-30 13:13:23 +0000";
layers = (
{
layerId = "BB6B0684-34D4-4B80-99D1-F5F29B570554";
paths = (
{
closed = 1;
nodes = (
"923 1434 LINE",
"733 1434 LINE",
"511 940 LINE",
"296 1434 LINE",
"102 1434 LINE",
"419 741 LINE",
"71 0 LINE",
"264 0 LINE",
"509 549 LINE",
"743 0 LINE",
"943 0 LINE",
"599 743 LINE"
);
}
);
width = 1015;
}
);
note = X;
unicode = 0058;
},
{
glyphname = Y;
lastChange = "2021-04-30 13:13:23 +0000";
layers = (
{
layerId = "BB6B0684-34D4-4B80-99D1-F5F29B570554";
paths = (
{
closed = 1;
nodes = (
"507 838 LINE",
"237 1434 LINE",
"40 1434 LINE",
"407 666 LINE",
"407 0 LINE",
"591 0 LINE",
"591 666 LINE",
"964 1434 LINE",
"777 1434 LINE"
);
}
);
width = 1005;
}
);
note = Y;
unicode = 0059;
},
{
glyphname = Z;
lastChange = "2021-04-30 13:13:23 +0000";
layers = (
{
layerId = "BB6B0684-34D4-4B80-99D1-F5F29B570554";
paths = (
{
closed = 1;
nodes = (
"139 1434 LINE",
"139 1282 LINE",
"620 1282 LINE",
"92 180 LINE",
"92 0 LINE",
"780 0 LINE",
"780 152 LINE",
"274 152 LINE",
"801 1253 LINE",
"801 1434 LINE"
);
}
);
width = 892;
}
);
note = Z;
unicode = 005A;
},
{
glyphname = a;
lastChange = "2021-04-30 13:13:23 +0000";
layers = (
{
layerId = "BB6B0684-34D4-4B80-99D1-F5F29B570554";
paths = (
{
closed = 1;
nodes = (
"826 143 OFFCURVE",
"802 168 OFFCURVE",
"802 209 CURVE SMOOTH",
"802 700 LINE SMOOTH",
"802 817 OFFCURVE",
"781 901 OFFCURVE",
"728 957 CURVE SMOOTH",
"675 1013 OFFCURVE",
"589 1038 OFFCURVE",
"454 1038 CURVE SMOOTH",
"353 1038 OFFCURVE",
"254 1020 OFFCURVE",
"178 997 CURVE",
"178 848 LINE",
"282 877 OFFCURVE",
"358 891 OFFCURVE",
"475 891 CURVE SMOOTH",
"579 891 OFFCURVE",
"628 829 OFFCURVE",
"628 741 CURVE SMOOTH",
"628 631 LINE",
"467 631 LINE SMOOTH",
"238 631 OFFCURVE",
"102 510 OFFCURVE",
"102 289 CURVE SMOOTH",
"102 164 OFFCURVE",
"141 87 OFFCURVE",
"198 42 CURVE SMOOTH",
"255 -3 OFFCURVE",
"334 -14 OFFCURVE",
"407 -14 CURVE SMOOTH",
"547 -14 OFFCURVE",
"626 27 OFFCURVE",
"677 100 CURVE",
"710 25 OFFCURVE",
"776 0 OFFCURVE",
"831 0 CURVE SMOOTH",
"893 0 LINE",
"893 143 LINE"
);
},
{
closed = 1;
nodes = (
"339 133 OFFCURVE",
"280 173 OFFCURVE",
"280 301 CURVE SMOOTH",
"280 428 OFFCURVE",
"361 492 OFFCURVE",
"456 492 CURVE SMOOTH",
"628 492 LINE",
"628 276 LINE SMOOTH",
"628 215 OFFCURVE",
"571 133 OFFCURVE",
"448 133 CURVE SMOOTH"
);
}
);
width = 985;
}
);
note = a;
unicode = 0061;
},
{
glyphname = b;
lastChange = "2021-04-30 13:13:23 +0000";
layers = (
{
layerId = "BB6B0684-34D4-4B80-99D1-F5F29B570554";
paths = (
{
closed = 1;
nodes = (
"888 883 OFFCURVE",
"805 1038 OFFCURVE",
"564 1038 CURVE SMOOTH",
"477 1038 OFFCURVE",
"401 1008 OFFCURVE",
"337 948 CURVE",
"337 1434 LINE",
"163 1434 LINE",
"163 10 LINE",
"191 6 OFFCURVE",
"247 -2 OFFCURVE",
"281 -6 CURVE SMOOTH",
"326 -11 OFFCURVE",
"377 -14 OFFCURVE",
"452 -14 CURVE SMOOTH",
"616 -14 OFFCURVE",
"724 22 OFFCURVE",
"792 114 CURVE SMOOTH",
"860 205 OFFCURVE",
"888 354 OFFCURVE",
"888 578 CURVE SMOOTH"
);
},
{
closed = 1;
nodes = (
"597 891 OFFCURVE",
"641 873 OFFCURVE",
"670 821 CURVE SMOOTH",
"698 769 OFFCURVE",
"710 688 OFFCURVE",
"710 557 CURVE SMOOTH",
"710 416 OFFCURVE",
"698 311 OFFCURVE",
"664 240 CURVE SMOOTH",
"630 168 OFFCURVE",
"571 133 OFFCURVE",
"472 133 CURVE SMOOTH",
"409 133 OFFCURVE",
"368 136 OFFCURVE",
"337 141 CURVE",
"337 717 LINE SMOOTH",
"337 799 OFFCURVE",
"426 891 OFFCURVE",
"532 891 CURVE SMOOTH"
);
}
);
width = 1021;
}
);
note = b;
unicode = 0062;
},
{
glyphname = c;
lastChange = "2021-04-30 13:13:23 +0000";
layers = (
{
layerId = "BB6B0684-34D4-4B80-99D1-F5F29B570554";
paths = (
{
closed = 1;
nodes = (
"655 157 OFFCURVE",
"589 139 OFFCURVE",
"477 139 CURVE SMOOTH",
"425 139 OFFCURVE",
"384 152 OFFCURVE",
"356 201 CURVE SMOOTH",
"327 250 OFFCURVE",
"311 339 OFFCURVE",
"311 492 CURVE SMOOTH",
"311 644 OFFCURVE",
"323 741 OFFCURVE",
"351 802 CURVE SMOOTH",
"378 863 OFFCURVE",
"417 885 OFFCURVE",
"477 885 CURVE SMOOTH",
"581 885 OFFCURVE",
"638 872 OFFCURVE",
"715 856 CURVE",
"715 1008 LINE",
"655 1021 OFFCURVE",
"558 1038 OFFCURVE",
"489 1038 CURVE SMOOTH",
"366 1038 OFFCURVE",
"276 1003 OFFCURVE",
"219 923 CURVE SMOOTH",
"162 842 OFFCURVE",
"133 716 OFFCURVE",
"133 532 CURVE SMOOTH",
"133 297 OFFCURVE",
"163 160 OFFCURVE",
"223 83 CURVE SMOOTH",
"283 6 OFFCURVE",
"374 -14 OFFCURVE",
"491 -14 CURVE SMOOTH",
"566 -14 OFFCURVE",
"648 -1 OFFCURVE",
"715 18 CURVE",
"715 170 LINE"
);
}
);
width = 827;
}
);
note = c;
unicode = 0063;
},
{
glyphname = d;
lastChange = "2021-04-30 13:13:23 +0000";
layers = (
{
layerId = "BB6B0684-34D4-4B80-99D1-F5F29B570554";
paths = (
{
closed = 1;
nodes = (
"694 1434 LINE",
"694 1030 LINE",
"665 1035 OFFCURVE",
"626 1038 OFFCURVE",
"579 1038 CURVE SMOOTH",
"266 1038 OFFCURVE",
"133 871 OFFCURVE",
"133 467 CURVE SMOOTH",
"133 308 OFFCURVE",
"151 186 OFFCURVE",
"203 107 CURVE SMOOTH",
"255 27 OFFCURVE",
"336 -14 OFFCURVE",
"467 -14 CURVE SMOOTH",
"571 -14 OFFCURVE",
"647 23 OFFCURVE",
"711 86 CURVE",
"725 0 LINE",
"868 0 LINE",
"868 1434 LINE"
);
},
{
closed = 1;
nodes = (
"433 133 OFFCURVE",
"387 150 OFFCURVE",
"357 198 CURVE SMOOTH",
"327 245 OFFCURVE",
"311 323 OFFCURVE",
"311 446 CURVE SMOOTH",
"311 589 OFFCURVE",
"325 700 OFFCURVE",
"363 775 CURVE SMOOTH",
"401 850 OFFCURVE",
"460 891 OFFCURVE",
"559 891 CURVE SMOOTH",
"622 891 OFFCURVE",
"665 888 OFFCURVE",
"694 883 CURVE",
"694 307 LINE SMOOTH",
"694 223 OFFCURVE",
"618 133 OFFCURVE",
"500 133 CURVE SMOOTH"
);
}
);
width = 1032;
}
);
note = d;
unicode = 0064;
},
{
glyphname = e;
lastChange = "2021-04-30 13:13:23 +0000";
layers = (
{
layerId = "BB6B0684-34D4-4B80-99D1-F5F29B570554";
paths = (
{
closed = 1;
nodes = (
"835 875 OFFCURVE",
"741 1038 OFFCURVE",
"506 1038 CURVE SMOOTH",
"383 1038 OFFCURVE",
"290 1002 OFFCURVE",
"227 918 CURVE SMOOTH",
"164 833 OFFCURVE",
"133 700 OFFCURVE",
"133 512 CURVE SMOOTH",
"133 283 OFFCURVE",
"166 151 OFFCURVE",
"229 78 CURVE SMOOTH",
"292 5 OFFCURVE",
"385 -14 OFFCURVE",
"502 -14 CURVE SMOOTH",
"575 -14 OFFCURVE",
"689 -1 OFFCURVE",
"756 18 CURVE",
"756 166 LINE",
"692 153 OFFCURVE",
"596 133 OFFCURVE",
"481 133 CURVE SMOOTH",
"429 133 OFFCURVE",
"389 145 OFFCURVE",
"359 191 CURVE SMOOTH",
"329 237 OFFCURVE",
"310 316 OFFCURVE",
"307 451 CURVE",
"835 451 LINE",
"835 604 LINE SMOOTH"
);
},
{
closed = 1;
nodes = (
"625 893 OFFCURVE",
"665 801 OFFCURVE",
"665 645 CURVE SMOOTH",
"665 590 LINE",
"309 590 LINE",
"314 707 OFFCURVE",
"331 784 OFFCURVE",
"361 830 CURVE SMOOTH",
"391 876 OFFCURVE",
"435 893 OFFCURVE",
"502 893 CURVE SMOOTH"
);
}
);
width = 958;
}
);
note = e;
unicode = 0065;
},
{
glyphname = f;
lastChange = "2021-04-30 13:13:23 +0000";
layers = (
{
layerId = "BB6B0684-34D4-4B80-99D1-F5F29B570554";
paths = (
{
closed = 1;
nodes = (
"368 1024 LINE",
"368 1198 LINE SMOOTH",
"368 1258 OFFCURVE",
"408 1300 OFFCURVE",
"481 1300 CURVE SMOOTH",
"554 1300 OFFCURVE",
"603 1289 OFFCURVE",
"647 1278 CURVE",
"647 1423 LINE",
"606 1432 OFFCURVE",
"542 1448 OFFCURVE",
"454 1448 CURVE SMOOTH",
"298 1448 OFFCURVE",
"194 1361 OFFCURVE",
"194 1184 CURVE SMOOTH",
"194 1024 LINE",
"61 1024 LINE",
"61 874 LINE",
"194 874 LINE",
"194 0 LINE",
"368 0 LINE",
"368 874 LINE",
"616 874 LINE",
"616 1024 LINE"
);
}
);
width = 636;
}
);
note = f;
unicode = 0066;
},
{
glyphname = g;
lastChange = "2021-04-30 13:13:23 +0000";
layers = (
{
layerId = "BB6B0684-34D4-4B80-99D1-F5F29B570554";
paths = (
{
closed = 1;
nodes = (
"910 747 OFFCURVE",
"894 818 OFFCURVE",
"863 877 CURVE",
"1005 870 LINE",
"1005 1024 LINE",
"708 1010 LINE",
"661 1029 OFFCURVE",
"608 1038 OFFCURVE",
"548 1038 CURVE SMOOTH",
"433 1038 OFFCURVE",
"327 1023 OFFCURVE",
"250 971 CURVE SMOOTH",
"173 919 OFFCURVE",
"122 830 OFFCURVE",
"122 682 CURVE SMOOTH",
"122 549 OFFCURVE",
"149 453 OFFCURVE",
"228 393 CURVE",
"193 356 OFFCURVE",
"173 304 OFFCURVE",
"173 221 CURVE SMOOTH",
"173 158 OFFCURVE",
"212 72 OFFCURVE",
"259 29 CURVE",
"334 39 OFFCURVE",
"526 51 OFFCURVE",
"597 51 CURVE SMOOTH",
"730 51 OFFCURVE",
"769 3 OFFCURVE",
"769 -100 CURVE SMOOTH",
"769 -180 OFFCURVE",
"716 -240 OFFCURVE",
"577 -240 CURVE SMOOTH",
"442 -240 OFFCURVE",
"286 -223 OFFCURVE",
"169 -205 CURVE",
"169 -352 LINE",
"245 -368 OFFCURVE",
"466 -389 OFFCURVE",
"560 -389 CURVE SMOOTH",
"669 -389 OFFCURVE",
"767 -368 OFFCURVE",
"836 -322 CURVE SMOOTH",
"905 -276 OFFCURVE",
"947 -204 OFFCURVE",
"947 -100 CURVE SMOOTH",
"947 25 OFFCURVE",
"911 102 OFFCURVE",
"851 147 CURVE SMOOTH",
"791 191 OFFCURVE",
"706 205 OFFCURVE",
"607 205 CURVE SMOOTH",
"539 205 OFFCURVE",
"444 197 OFFCURVE",
"351 188 CURVE",
"344 209 OFFCURVE",
"341 228 OFFCURVE",
"341 246 CURVE SMOOTH",
"341 275 OFFCURVE",
"348 304 OFFCURVE",
"362 334 CURVE",
"401 326 OFFCURVE",
"446 322 OFFCURVE",
"497 322 CURVE SMOOTH",
"778 322 OFFCURVE",
"910 434 OFFCURVE",
"910 666 CURVE SMOOTH"
);
},
{
closed = 1;
nodes = (
"736 505 OFFCURVE",
"647 463 OFFCURVE",
"497 463 CURVE SMOOTH",
"347 463 OFFCURVE",
"296 541 OFFCURVE",
"296 666 CURVE SMOOTH",
"296 823 OFFCURVE",
"349 893 OFFCURVE",
"528 893 CURVE SMOOTH",
"683 893 OFFCURVE",
"736 804 OFFCURVE",
"736 682 CURVE SMOOTH"
);
}
);
width = 1067;
}
);
note = g;
unicode = 0067;
},
{
glyphname = h;
lastChange = "2021-04-30 13:13:23 +0000";
layers = (
{
layerId = "BB6B0684-34D4-4B80-99D1-F5F29B570554";
paths = (
{
closed = 1;
nodes = (
"337 799 OFFCURVE",
"434 891 OFFCURVE",
"542 891 CURVE SMOOTH",
"678 891 OFFCURVE",
"708 825 OFFCURVE",
"708 696 CURVE SMOOTH",
"708 0 LINE",
"882 0 LINE",
"882 676 LINE SMOOTH",
"882 801 OFFCURVE",
"863 892 OFFCURVE",
"815 951 CURVE SMOOTH",
"767 1010 OFFCURVE",
"690 1038 OFFCURVE",
"573 1038 CURVE SMOOTH",
"477 1038 OFFCURVE",
"400 1005 OFFCURVE",
"337 948 CURVE",
"337 1434 LINE",
"163 1434 LINE",
"163 0 LINE",
"337 0 LINE",
"337 717 LINE SMOOTH"
);
}
);
width = 1036;
}
);
note = h;
unicode = 0068;
},
{
glyphname = i;
lastChange = "2021-04-30 13:13:23 +0000";
layers = (
{
layerId = "BB6B0684-34D4-4B80-99D1-F5F29B570554";
paths = (
{
closed = 1;
nodes = (
"153 1434 LINE",
"153 1249 LINE",
"348 1249 LINE",
"348 1434 LINE"
);
},
{
closed = 1;
nodes = (
"163 1024 LINE",
"163 0 LINE",
"337 0 LINE",
"337 1024 LINE"
);
}
);
width = 501;
}
);
note = i;
unicode = 0069;
},
{
glyphname = j;
lastChange = "2021-04-30 13:13:23 +0000";
layers = (
{
layerId = "BB6B0684-34D4-4B80-99D1-F5F29B570554";
paths = (
{
closed = 1;
nodes = (
"154 1434 LINE",
"154 1249 LINE",
"348 1249 LINE",
"348 1434 LINE"
);
},
{
closed = 1;
nodes = (
"164 -98 LINE SMOOTH",
"164 -173 OFFCURVE",
"129 -211 OFFCURVE",
"58 -211 CURVE SMOOTH",
"25 -211 OFFCURVE",
"-50 -208 OFFCURVE",
"-94 -203 CURVE",
"-94 -348 LINE",
"-39 -353 OFFCURVE",
"19 -358 OFFCURVE",
"84 -358 CURVE SMOOTH",
"253 -358 OFFCURVE",
"338 -241 OFFCURVE",
"338 -88 CURVE SMOOTH",
"338 1024 LINE",
"164 1024 LINE"
);
}
);
width = 501;
}
);
note = j;
unicode = 006A;
},
{
glyphname = k;
lastChange = "2021-04-30 13:13:23 +0000";
layers = (
{
layerId = "BB6B0684-34D4-4B80-99D1-F5F29B570554";
paths = (
{
closed = 1;
nodes = (
"863 1024 LINE",
"650 1024 LINE",
"337 655 LINE",
"337 1434 LINE",
"163 1434 LINE",
"163 0 LINE",
"337 0 LINE",
"337 438 LINE",
"399 510 LINE",
"675 0 LINE",
"878 0 LINE",
"517 629 LINE"
);
}
);
width = 950;
}
);
note = k;
unicode = 006B;
},
{
glyphname = l;
lastChange = "2021-04-30 13:13:23 +0000";
layers = (
{
layerId = "BB6B0684-34D4-4B80-99D1-F5F29B570554";
paths = (
{
closed = 1;
nodes = (
"455 153 OFFCURVE",
"447 151 OFFCURVE",
"437 148 CURVE SMOOTH",
"426 145 OFFCURVE",
"416 143 OFFCURVE",
"405 143 CURVE SMOOTH",
"350 143 OFFCURVE",
"337 168 OFFCURVE",
"337 240 CURVE SMOOTH",
"337 1434 LINE",
"163 1434 LINE",
"163 229 LINE SMOOTH",
"163 64 OFFCURVE",
"238 -6 OFFCURVE",
"337 -6 CURVE SMOOTH",
"364 -6 OFFCURVE",
"388 -4 OFFCURVE",
"408 0 CURVE SMOOTH",
"427 4 OFFCURVE",
"445 7 OFFCURVE",
"460 10 CURVE",
"460 154 LINE"
);
}
);
width = 542;
}
);
note = l;
unicode = 006C;
},
{
glyphname = m;
lastChange = "2021-04-30 13:13:23 +0000";
layers = (
{
layerId = "BB6B0684-34D4-4B80-99D1-F5F29B570554";
paths = (
{
closed = 1;
nodes = (
"337 797 OFFCURVE",
"419 891 OFFCURVE",
"521 891 CURVE SMOOTH",
"638 891 OFFCURVE",
"665 828 OFFCURVE",
"665 696 CURVE SMOOTH",
"665 0 LINE",
"839 0 LINE",
"839 717 LINE SMOOTH",
"839 797 OFFCURVE",
"920 891 OFFCURVE",
"1023 891 CURVE SMOOTH",
"1140 891 OFFCURVE",
"1167 828 OFFCURVE",
"1167 696 CURVE SMOOTH",
"1167 0 LINE",
"1341 0 LINE",
"1341 676 LINE SMOOTH",
"1341 927 OFFCURVE",
"1265 1038 OFFCURVE",
"1054 1038 CURVE SMOOTH",
"947 1038 OFFCURVE",
"861 995 OFFCURVE",
"796 909 CURVE",
"752 986 OFFCURVE",
"680 1038 OFFCURVE",
"552 1038 CURVE SMOOTH",
"461 1038 OFFCURVE",
"384 1003 OFFCURVE",
"321 934 CURVE",
"306 1024 LINE",
"163 1024 LINE",
"163 0 LINE",
"337 0 LINE",
"337 717 LINE SMOOTH"
);
}
);
width = 1495;
}
);
note = m;
unicode = 006D;
},
{
glyphname = n;
lastChange = "2021-04-30 13:13:23 +0000";
layers = (
{
layerId = "BB6B0684-34D4-4B80-99D1-F5F29B570554";
paths = (
{
closed = 1;
nodes = (
"337 799 OFFCURVE",
"434 891 OFFCURVE",
"542 891 CURVE SMOOTH",
"678 891 OFFCURVE",
"708 825 OFFCURVE",
"708 696 CURVE SMOOTH",
"708 0 LINE",
"882 0 LINE",
"882 676 LINE SMOOTH",
"882 801 OFFCURVE",
"863 892 OFFCURVE",
"815 951 CURVE SMOOTH",
"767 1010 OFFCURVE",
"690 1038 OFFCURVE",
"573 1038 CURVE SMOOTH",
"472 1038 OFFCURVE",
"388 1003 OFFCURVE",
"321 932 CURVE",
"306 1024 LINE",
"163 1024 LINE",
"163 0 LINE",
"337 0 LINE",
"337 717 LINE SMOOTH"
);
}
);
width = 1036;
}
);
note = n;
unicode = 006E;
},
{
glyphname = o;
lastChange = "2021-04-30 13:13:23 +0000";
layers = (
{
layerId = "BB6B0684-34D4-4B80-99D1-F5F29B570554";
paths = (
{
closed = 1;
nodes = (
"911 883 OFFCURVE",
"790 1038 OFFCURVE",
"522 1038 CURVE SMOOTH",
"254 1038 OFFCURVE",
"133 883 OFFCURVE",
"133 532 CURVE SMOOTH",
"133 317 OFFCURVE",
"168 181 OFFCURVE",
"234 98 CURVE SMOOTH",
"300 14 OFFCURVE",
"397 -14 OFFCURVE",
"522 -14 CURVE SMOOTH",
"650 -14 OFFCURVE",
"748 14 OFFCURVE",
"813 98 CURVE SMOOTH",
"878 181 OFFCURVE",
"911 317 OFFCURVE",
"911 532 CURVE SMOOTH"
);
},
{
closed = 1;
nodes = (
"733 234 OFFCURVE",
"678 129 OFFCURVE",
"522 129 CURVE SMOOTH",
"366 129 OFFCURVE",
"311 234 OFFCURVE",
"311 502 CURVE SMOOTH",
"311 646 OFFCURVE",
"324 747 OFFCURVE",
"356 808 CURVE SMOOTH",
"387 869 OFFCURVE",
"441 895 OFFCURVE",
"522 895 CURVE SMOOTH",
"605 895 OFFCURVE",
"657 869 OFFCURVE",
"689 808 CURVE SMOOTH",
"721 747 OFFCURVE",
"733 646 OFFCURVE",
"733 502 CURVE SMOOTH"
);
}
);
width = 1044;
}
);
note = o;
unicode = 006F;
},
{
glyphname = p;
lastChange = "2021-04-30 13:13:23 +0000";
layers = (
{
layerId = "BB6B0684-34D4-4B80-99D1-F5F29B570554";
paths = (
{
closed = 1;
nodes = (
"368 -11 OFFCURVE",
"405 -14 OFFCURVE",
"452 -14 CURVE SMOOTH",
"616 -14 OFFCURVE",
"724 22 OFFCURVE",
"792 114 CURVE SMOOTH",
"860 205 OFFCURVE",
"888 354 OFFCURVE",
"888 578 CURVE SMOOTH",
"888 883 OFFCURVE",
"805 1038 OFFCURVE",
"564 1038 CURVE SMOOTH",
"469 1038 OFFCURVE",
"388 1004 OFFCURVE",
"323 936 CURVE",
"306 1024 LINE",
"163 1024 LINE",
"163 -348 LINE",
"337 -348 LINE",
"337 -6 LINE"
);
},
{
closed = 1;
nodes = (
"597 891 OFFCURVE",
"641 873 OFFCURVE",
"670 821 CURVE SMOOTH",
"698 769 OFFCURVE",
"710 688 OFFCURVE",
"710 557 CURVE SMOOTH",
"710 416 OFFCURVE",
"698 311 OFFCURVE",
"664 240 CURVE SMOOTH",
"630 168 OFFCURVE",
"571 133 OFFCURVE",
"472 133 CURVE SMOOTH",
"409 133 OFFCURVE",
"368 136 OFFCURVE",
"337 141 CURVE",
"337 717 LINE SMOOTH",
"337 799 OFFCURVE",
"426 891 OFFCURVE",
"532 891 CURVE SMOOTH"
);
}
);
width = 1021;
}
);
note = p;
unicode = 0070;
},
{
glyphname = q;
lastChange = "2021-04-30 13:13:23 +0000";
layers = (
{
layerId = "BB6B0684-34D4-4B80-99D1-F5F29B570554";
paths = (
{
closed = 1;
nodes = (
"839 1018 OFFCURVE",
"785 1026 OFFCURVE",
"751 1030 CURVE SMOOTH",
"706 1035 OFFCURVE",
"654 1038 OFFCURVE",
"579 1038 CURVE SMOOTH",
"266 1038 OFFCURVE",
"133 871 OFFCURVE",
"133 467 CURVE SMOOTH",
"133 308 OFFCURVE",
"151 186 OFFCURVE",
"203 107 CURVE SMOOTH",
"255 27 OFFCURVE",
"336 -14 OFFCURVE",
"467 -14 CURVE SMOOTH",
"563 -14 OFFCURVE",
"634 15 OFFCURVE",
"694 70 CURVE",
"694 -348 LINE",
"868 -348 LINE",
"868 1014 LINE"
);
},
{
closed = 1;
nodes = (
"433 133 OFFCURVE",
"387 150 OFFCURVE",
"357 198 CURVE SMOOTH",
"327 245 OFFCURVE",
"311 323 OFFCURVE",
"311 446 CURVE SMOOTH",
"311 589 OFFCURVE",
"325 700 OFFCURVE",
"363 775 CURVE SMOOTH",
"401 850 OFFCURVE",
"460 891 OFFCURVE",
"559 891 CURVE SMOOTH",
"622 891 OFFCURVE",
"665 888 OFFCURVE",
"694 883 CURVE",
"694 307 LINE SMOOTH",
"694 223 OFFCURVE",
"618 133 OFFCURVE",
"500 133 CURVE SMOOTH"
);
}
);
width = 1032;
}
);
note = q;
unicode = 0071;
},
{
glyphname = r;
lastChange = "2021-04-30 13:13:23 +0000";
layers = (
{
layerId = "BB6B0684-34D4-4B80-99D1-F5F29B570554";
paths = (
{
closed = 1;
nodes = (
"337 749 OFFCURVE",
"389 864 OFFCURVE",
"517 864 CURVE SMOOTH",
"556 864 OFFCURVE",
"605 854 OFFCURVE",
"640 846 CURVE",
"640 1028 LINE",
"616 1033 OFFCURVE",
"581 1038 OFFCURVE",
"532 1038 CURVE SMOOTH",
"431 1038 OFFCURVE",
"364 991 OFFCURVE",
"319 920 CURVE",
"306 1024 LINE",
"163 1024 LINE",
"163 0 LINE",
"337 0 LINE",
"337 631 LINE SMOOTH"
);
}
);
width = 692;
}
);
note = r;
unicode = 0072;
},
{
glyphname = s;
lastChange = "2021-04-30 13:13:23 +0000";
layers = (
{
layerId = "BB6B0684-34D4-4B80-99D1-F5F29B570554";
paths = (
{
closed = 1;
nodes = (
"720 477 OFFCURVE",
"644 571 OFFCURVE",
"431 606 CURVE SMOOTH",
"344 620 OFFCURVE",
"300 664 OFFCURVE",
"300 739 CURVE SMOOTH",
"300 826 OFFCURVE",
"332 891 OFFCURVE",
"450 891 CURVE SMOOTH",
"506 891 OFFCURVE",
"550 887 OFFCURVE",
"583 879 CURVE SMOOTH",
"616 870 OFFCURVE",
"650 862 OFFCURVE",
"685 854 CURVE",
"685 1004 LINE",
"644 1015 OFFCURVE",
"573 1038 OFFCURVE",
"466 1038 CURVE SMOOTH",
"367 1038 OFFCURVE",
"282 1016 OFFCURVE",
"221 967 CURVE SMOOTH",
"160 918 OFFCURVE",
"122 841 OFFCURVE",
"122 729 CURVE SMOOTH",
"122 576 OFFCURVE",
"198 483 OFFCURVE",
"409 444 CURVE SMOOTH",
"513 425 OFFCURVE",
"538 384 OFFCURVE",
"538 287 CURVE SMOOTH",
"538 206 OFFCURVE",
"490 135 OFFCURVE",
"390 135 CURVE SMOOTH",
"310 135 OFFCURVE",
"179 158 OFFCURVE",
"130 168 CURVE",
"130 18 LINE",
"177 5 OFFCURVE",
"259 -14 OFFCURVE",
"376 -14 CURVE SMOOTH",
"587 -14 OFFCURVE",
"720 70 OFFCURVE",
"720 297 CURVE SMOOTH"
);
}
);
width = 823;
}
);
note = s;
unicode = 0073;
},
{
glyphname = t;
lastChange = "2021-04-30 13:13:23 +0000";
layers = (
{
layerId = "BB6B0684-34D4-4B80-99D1-F5F29B570554";
paths = (
{
closed = 1;
nodes = (
"358 1024 LINE",
"358 1270 LINE",
"184 1270 LINE",
"184 1024 LINE",
"51 1024 LINE",
"51 870 LINE",
"184 870 LINE",
"184 256 LINE SMOOTH",
"184 98 OFFCURVE",
"258 -14 OFFCURVE",
"420 -14 CURVE SMOOTH",
"493 -14 OFFCURVE",
"568 2 OFFCURVE",
"596 10 CURVE",
"596 154 LINE",
"565 145 OFFCURVE",
"524 133 OFFCURVE",
"461 133 CURVE SMOOTH",
"384 133 OFFCURVE",
"358 197 OFFCURVE",
"358 246 CURVE SMOOTH",
"358 870 LINE",
"596 870 LINE",
"596 1024 LINE"
);
}
);
width = 657;
}
);
note = t;
unicode = 0074;
},
{
glyphname = u;
lastChange = "2021-04-30 13:13:23 +0000";
layers = (
{
layerId = "BB6B0684-34D4-4B80-99D1-F5F29B570554";
paths = (
{
closed = 1;
nodes = (
"667 1024 LINE",
"667 301 LINE",
"661 222 OFFCURVE",
"580 133 OFFCURVE",
"475 133 CURVE SMOOTH",
"349 133 OFFCURVE",
"327 206 OFFCURVE",
"327 336 CURVE SMOOTH",
"327 1024 LINE",
"153 1024 LINE",
"153 356 LINE SMOOTH",
"153 231 OFFCURVE",
"171 138 OFFCURVE",
"216 77 CURVE SMOOTH",
"260 16 OFFCURVE",
"333 -14 OFFCURVE",
"448 -14 CURVE SMOOTH",
"552 -14 OFFCURVE",
"626 21 OFFCURVE",
"683 84 CURVE",
"698 0 LINE",
"841 0 LINE",
"841 1024 LINE"
);
}
);
width = 1005;
}
);
note = u;
unicode = 0075;
},
{
glyphname = v;
lastChange = "2021-04-30 13:13:23 +0000";
layers = (
{
layerId = "BB6B0684-34D4-4B80-99D1-F5F29B570554";
paths = (
{
closed = 1;
nodes = (
"479 145 LINE",
"257 1024 LINE",
"71 1024 LINE",
"347 0 LINE",
"599 0 LINE",
"874 1024 LINE",
"694 1024 LINE"
);
}
);
width = 946;
}
);
note = v;
unicode = 0076;
},
{
glyphname = w;
lastChange = "2021-04-30 13:13:23 +0000";
layers = (
{
layerId = "BB6B0684-34D4-4B80-99D1-F5F29B570554";
paths = (
{
closed = 1;
nodes = (
"953 131 LINE",
"783 840 LINE",
"609 840 LINE",
"427 131 LINE",
"261 1024 LINE",
"81 1024 LINE",
"286 0 LINE",
"548 0 LINE",
"689 555 LINE",
"818 0 LINE",
"1087 0 LINE",
"1289 1024 LINE",
"1119 1024 LINE"
);
}
);
width = 1372;
}
);
note = w;
unicode = 0077;
},
{
glyphname = x;
lastChange = "2021-04-30 13:13:23 +0000";
layers = (
{
layerId = "BB6B0684-34D4-4B80-99D1-F5F29B570554";
paths = (
{
closed = 1;
nodes = (
"851 1024 LINE",
"661 1024 LINE",
"482 686 LINE",
"306 1024 LINE",
"106 1024 LINE",
"378 528 LINE",
"81 0 LINE",
"274 0 LINE",
"478 379 LINE",
"673 0 LINE",
"878 0 LINE",
"575 537 LINE"
);
}
);
width = 950;
}
);
note = x;
unicode = 0078;
},
{
glyphname = y;
lastChange = "2021-04-30 13:13:23 +0000";
layers = (
{
layerId = "BB6B0684-34D4-4B80-99D1-F5F29B570554";
paths = (
{
closed = 1;
nodes = (
"497 178 LINE",
"259 1024 LINE",
"71 1024 LINE",
"388 0 LINE",
"429 0 LINE",
"397 -113 LINE SMOOTH",
"380 -174 OFFCURVE",
"353 -205 OFFCURVE",
"315 -205 CURVE SMOOTH",
"274 -205 OFFCURVE",
"239 -202 OFFCURVE",
"208 -197 CURVE",
"208 -346 LINE",
"233 -351 OFFCURVE",
"281 -358 OFFCURVE",
"325 -358 CURVE SMOOTH",
"489 -358 OFFCURVE",
"536 -253 OFFCURVE",
"579 -90 CURVE SMOOTH",
"876 1024 LINE",
"698 1024 LINE"
);
}
);
width = 948;
}
);
note = y;
unicode = 0079;
},
{
glyphname = z;
lastChange = "2021-04-30 13:13:23 +0000";
layers = (
{
layerId = "BB6B0684-34D4-4B80-99D1-F5F29B570554";
paths = (
{
closed = 1;
nodes = (
"133 1024 LINE",
"133 872 LINE",
"536 872 LINE",
"92 164 LINE",
"92 0 LINE",
"702 0 LINE",
"702 152 LINE",
"280 152 LINE",
"723 842 LINE",
"723 1024 LINE"
);
}
);
width = 825;
}
);
note = z;
unicode = 007A;
},
{
glyphname = uni1780;
lastChange = "2021-04-30 13:13:23 +0000";
layers = (
{
layerId = "BB6B0684-34D4-4B80-99D1-F5F29B570554";
paths = (
{
closed = 1;
nodes = (
"562 1089 LINE",
"509 1149 LINE",
"861 1300 LINE",
"1345 1091 LINE",
"1832 1297 LINE",
"2097 1179 OFFCURVE",
"2270 1117 OFFCURVE",
"2353 1110 CURVE",
"2357 1109 OFFCURVE",
"2361 1109 OFFCURVE",
"2365 1109 CURVE SMOOTH",
"2440 1109 OFFCURVE",
"2485 1166 OFFCURVE",
"2500 1280 CURVE",
"2307 1319 OFFCURVE",
"2158 1366 OFFCURVE",
"2054 1420 CURVE SMOOTH",
"1950 1473 OFFCURVE",
"1878 1500 OFFCURVE",
"1838 1500 CURVE SMOOTH",
"1797 1500 OFFCURVE",
"1632 1438 OFFCURVE",
"1345 1314 CURVE",
"1061 1438 OFFCURVE",
"899 1500 OFFCURVE",
"859 1500 CURVE SMOOTH",
"819 1500 OFFCURVE",
"599 1410 OFFCURVE",
"200 1230 CURVE",
"200 1175 LINE",
"394 1011 LINE"
);
},
{
closed = 1;
nodes = (
"2400 830 OFFCURVE",
"2373 869 OFFCURVE",
"2319 895 CURVE SMOOTH",
"1820 1130 LINE",
"1350 906 LINE",
"870 1130 LINE",
"371 895 LINE",
"324 869 OFFCURVE",
"300 830 OFFCURVE",
"300 778 CURVE SMOOTH",
"300 290 LINE SMOOTH",
"300 103 OFFCURVE",
"405 0 OFFCURVE",
"532 0 CURVE SMOOTH",
"595 0 OFFCURVE",
"640 44 OFFCURVE",
"667 133 CURVE SMOOTH",
"674 158 OFFCURVE",
"678 181 OFFCURVE",
"678 203 CURVE SMOOTH",
"678 261 OFFCURVE",
"653 311 OFFCURVE",
"604 353 CURVE SMOOTH",
"535 411 OFFCURVE",
"500 453 OFFCURVE",
"500 480 CURVE SMOOTH",
"500 728 LINE",
"870 927 LINE",
"1250 728 LINE",
"1250 500 LINE SMOOTH",
"1250 447 OFFCURVE",
"1225 396 OFFCURVE",
"1175 348 CURVE SMOOTH",
"1125 300 OFFCURVE",
"1100 248 OFFCURVE",
"1100 193 CURVE SMOOTH",
"1100 82 OFFCURVE",
"1260 0 OFFCURVE",
"1369 0 CURVE SMOOTH",
"1423 0 OFFCURVE",
"1450 33 OFFCURVE",
"1450 100 CURVE SMOOTH",
"1450 728 LINE",
"1820 927 LINE",
"2200 728 LINE",
"2200 500 LINE SMOOTH",
"2200 447 OFFCURVE",
"2175 396 OFFCURVE",
"2125 348 CURVE SMOOTH",
"2075 300 OFFCURVE",
"2050 248 OFFCURVE",
"2050 193 CURVE SMOOTH",
"2050 82 OFFCURVE",
"2210 0 OFFCURVE",
"2319 0 CURVE SMOOTH",
"2373 0 OFFCURVE",
"2400 33 OFFCURVE",
"2400 100 CURVE SMOOTH",
"2400 778 LINE SMOOTH"
);
}
);
width = 2700;
}
);
note = uni1780;
unicode = 1780;
},
{
glyphname = uni1781;
lastChange = "2021-04-30 13:13:23 +0000";
layers = (
{
layerId = "BB6B0684-34D4-4B80-99D1-F5F29B570554";
paths = (
{
closed = 1;
nodes = (
"300 903 OFFCURVE",
"399 800 OFFCURVE",
"596 800 CURVE SMOOTH",
"695 800 OFFCURVE",
"767 825 OFFCURVE",
"811 876 CURVE SMOOTH",
"839 909 OFFCURVE",
"853 944 OFFCURVE",
"853 982 CURVE SMOOTH",
"853 1002 OFFCURVE",
"849 1023 OFFCURVE",
"842 1045 CURVE SMOOTH",
"823 1096 OFFCURVE",
"787 1122 OFFCURVE",
"735 1122 CURVE SMOOTH",
"724 1122 OFFCURVE",
"713 1121 OFFCURVE",
"702 1119 CURVE SMOOTH",
"631 1106 OFFCURVE",
"596 1060 OFFCURVE",
"596 980 CURVE",
"532 980 OFFCURVE",
"500 1023 OFFCURVE",
"500 1110 CURVE SMOOTH",
"500 1237 OFFCURVE",
"633 1300 OFFCURVE",
"900 1300 CURVE SMOOTH",
"1167 1300 OFFCURVE",
"1300 1220 OFFCURVE",
"1300 1060 CURVE SMOOTH",
"1300 889 OFFCURVE",
"1086 701 OFFCURVE",
"659 496 CURVE",
"610 465 OFFCURVE",
"586 427 OFFCURVE",
"586 382 CURVE SMOOTH",
"586 330 OFFCURVE",
"618 269 OFFCURVE",
"681 199 CURVE SMOOTH",
"799 66 OFFCURVE",
"888 0 OFFCURVE",
"947 0 CURVE SMOOTH",
"1007 3 OFFCURVE",
"1099 93 OFFCURVE",
"1224 270 CURVE SMOOTH",
"1337 430 OFFCURVE",
"1393 563 OFFCURVE",
"1393 669 CURVE SMOOTH",
"1393 680 OFFCURVE",
"1392 691 OFFCURVE",
"1391 702 CURVE",
"930 245 LINE",
"836 356 LINE",
"1279 587 OFFCURVE",
"1500 822 OFFCURVE",
"1500 1060 CURVE SMOOTH",
"1500 1420 OFFCURVE",
"1229 1500 OFFCURVE",
"900 1500 CURVE SMOOTH",
"571 1500 OFFCURVE",
"300 1390 OFFCURVE",
"300 1110 CURVE SMOOTH"
);
}
);
width = 1800;
}
);
note = uni1781;
unicode = 1781;
},
{
glyphname = uni1782;
lastChange = "2021-04-30 13:13:23 +0000";
layers = (
{
layerId = "BB6B0684-34D4-4B80-99D1-F5F29B570554";
paths = (
{
closed = 1;
nodes = (
"487 1109 LINE",
"437 1189 LINE",
"589 1290 LINE",
"897 1181 LINE",
"1163 1307 LINE",
"1262 1242 OFFCURVE",
"1341 1199 OFFCURVE",
"1402 1179 CURVE SMOOTH",
"1411 1176 OFFCURVE",
"1421 1174 OFFCURVE",
"1430 1174 CURVE SMOOTH",
"1482 1174 OFFCURVE",
"1539 1223 OFFCURVE",
"1600 1320 CURVE",
"1483 1359 OFFCURVE",
"1388 1399 OFFCURVE",
"1317 1440 CURVE SMOOTH",
"1245 1480 OFFCURVE",
"1197 1500 OFFCURVE",
"1173 1500 CURVE SMOOTH",
"1148 1500 OFFCURVE",
"1056 1465 OFFCURVE",
"897 1394 CURVE",
"704 1465 OFFCURVE",
"595 1500 OFFCURVE",
"570 1500 CURVE SMOOTH",
"546 1500 OFFCURVE",
"506 1480 OFFCURVE",
"450 1440 CURVE SMOOTH",
"200 1270 LINE",
"200 1215 LINE",
"373 1051 LINE"
);
},
{
closed = 1;
nodes = (
"300 103 OFFCURVE",
"405 0 OFFCURVE",
"532 0 CURVE SMOOTH",
"595 0 OFFCURVE",
"640 44 OFFCURVE",
"667 133 CURVE SMOOTH",
"674 158 OFFCURVE",
"678 181 OFFCURVE",
"678 203 CURVE SMOOTH",
"678 261 OFFCURVE",
"653 311 OFFCURVE",
"604 353 CURVE SMOOTH",
"535 411 OFFCURVE",
"500 453 OFFCURVE",
"500 480 CURVE SMOOTH",
"500 738 LINE",
"900 937 LINE",
"1300 738 LINE",
"1300 500 LINE SMOOTH",
"1300 447 OFFCURVE",
"1275 396 OFFCURVE",
"1225 348 CURVE SMOOTH",
"1175 300 OFFCURVE",
"1150 248 OFFCURVE",
"1150 193 CURVE SMOOTH",
"1150 82 OFFCURVE",
"1310 0 OFFCURVE",
"1419 0 CURVE SMOOTH",
"1473 0 OFFCURVE",
"1500 33 OFFCURVE",
"1500 100 CURVE SMOOTH",
"1500 788 LINE SMOOTH",
"1500 840 OFFCURVE",
"1475 879 OFFCURVE",
"1425 905 CURVE SMOOTH",
"900 1160 LINE",
"375 905 LINE SMOOTH",
"325 879 OFFCURVE",
"300 840 OFFCURVE",
"300 788 CURVE SMOOTH",
"300 290 LINE SMOOTH"
);
}
);
width = 1800;
}
);
note = uni1782;
unicode = 1782;
},
{
glyphname = uni1783;
lastChange = "2021-04-30 13:13:23 +0000";
layers = (
{
layerId = "BB6B0684-34D4-4B80-99D1-F5F29B570554";
paths = (
{
closed = 1;
nodes = (
"1541 62 OFFCURVE",
"1640 0 OFFCURVE",
"1724 0 CURVE SMOOTH",
"2030 0 LINE",
"2283 67 OFFCURVE",
"2423 233 OFFCURVE",
"2450 500 CURVE",
"2450 896 LINE",
"2437 1013 OFFCURVE",
"2370 1099 OFFCURVE",
"2251 1154 CURVE",
"2329 1249 LINE",
"2423 1197 OFFCURVE",
"2493 1171 OFFCURVE",
"2538 1171 CURVE SMOOTH",
"2549 1171 OFFCURVE",
"2559 1173 OFFCURVE",
"2568 1176 CURVE SMOOTH",
"2609 1192 OFFCURVE",
"2637 1248 OFFCURVE",
"2650 1343 CURVE",
"2641 1339 OFFCURVE",
"2631 1337 OFFCURVE",
"2620 1337 CURVE SMOOTH",
"2559 1337 OFFCURVE",
"2458 1391 OFFCURVE",
"2316 1500 CURVE",
"1990 1052 LINE",
"2137 1025 OFFCURVE",
"2223 967 OFFCURVE",
"2250 876 CURVE",
"2250 500 LINE",
"2217 353 OFFCURVE",
"2133 253 OFFCURVE",
"2000 200 CURVE",
"1764 200 LINE",
"1668 254 OFFCURVE",
"1590 318 OFFCURVE",
"1531 393 CURVE",
"1540 426 OFFCURVE",
"1546 462 OFFCURVE",
"1550 500 CURVE",
"1550 896 LINE",
"1537 1013 OFFCURVE",
"1470 1099 OFFCURVE",
"1351 1154 CURVE",
"1429 1249 LINE",
"1523 1197 OFFCURVE",
"1593 1171 OFFCURVE",
"1638 1171 CURVE SMOOTH",
"1649 1171 OFFCURVE",
"1659 1173 OFFCURVE",
"1668 1176 CURVE SMOOTH",
"1709 1192 OFFCURVE",
"1737 1248 OFFCURVE",
"1750 1343 CURVE",
"1741 1339 OFFCURVE",
"1731 1337 OFFCURVE",
"1720 1337 CURVE SMOOTH",
"1659 1337 OFFCURVE",
"1558 1391 OFFCURVE",
"1416 1500 CURVE",
"1090 1052 LINE",
"1237 1025 OFFCURVE",
"1323 967 OFFCURVE",
"1350 876 CURVE",
"1350 500 LINE",
"1317 353 OFFCURVE",
"1233 253 OFFCURVE",
"1100 200 CURVE",
"714 200 LINE",
"598 265 OFFCURVE",
"514 341 OFFCURVE",
"461 429 CURVE",
"647 682 OFFCURVE",
"740 834 OFFCURVE",
"740 884 CURVE SMOOTH",
"740 977 LINE SMOOTH",
"740 1038 OFFCURVE",
"698 1149 OFFCURVE",
"613 1309 CURVE SMOOTH",
"544 1436 OFFCURVE",
"493 1500 OFFCURVE",
"461 1500 CURVE SMOOTH",
"397 1500 OFFCURVE",
"200 1302 OFFCURVE",
"200 1111 CURVE SMOOTH",
"200 1016 OFFCURVE",
"235 966 OFFCURVE",
"306 961 CURVE SMOOTH",
"312 960 OFFCURVE",
"318 960 OFFCURVE",
"323 960 CURVE SMOOTH",
"384 960 OFFCURVE",
"420 983 OFFCURVE",
"433 1029 CURVE SMOOTH",
"437 1044 OFFCURVE",
"439 1058 OFFCURVE",
"439 1071 CURVE SMOOTH",
"439 1101 OFFCURVE",
"428 1126 OFFCURVE",
"405 1145 CURVE SMOOTH",
"385 1162 OFFCURVE",
"375 1176 OFFCURVE",
"375 1187 CURVE SMOOTH",
"375 1194 OFFCURVE",
"379 1199 OFFCURVE",
"386 1204 CURVE SMOOTH",
"391 1207 OFFCURVE",
"396 1208 OFFCURVE",
"401 1208 CURVE SMOOTH",
"417 1208 OFFCURVE",
"433 1195 OFFCURVE",
"450 1170 CURVE SMOOTH",
"512 1075 OFFCURVE",
"543 1005 OFFCURVE",
"543 960 CURVE SMOOTH",
"543 957 OFFCURVE",
"543 953 OFFCURVE",
"542 950 CURVE",
"533 882 LINE",
"200 476 LINE",
"240 255 OFFCURVE",
"554 0 OFFCURVE",
"714 0 CURVE SMOOTH",
"1100 0 LINE",
"1243 35 OFFCURVE",
"1352 97 OFFCURVE",
"1427 186 CURVE"
);
}
);
width = 2750;
}
);
note = uni1783;
unicode = 1783;
},
{
glyphname = uni1784;
lastChange = "2021-04-30 13:13:23 +0000";
layers = (
{
layerId = "BB6B0684-34D4-4B80-99D1-F5F29B570554";
paths = (
{
closed = 1;
nodes = (
"474 1899 OFFCURVE",
"446 1868 OFFCURVE",
"441 1806 CURVE",
"441 1646 OFFCURVE",
"634 1556 OFFCURVE",
"821 1556 CURVE SMOOTH",
"1086 1556 OFFCURVE",
"1256 1748 OFFCURVE",
"1316 1960 CURVE SMOOTH",
"1345 2065 OFFCURVE",
"1360 2154 OFFCURVE",
"1360 2225 CURVE SMOOTH",
"1360 2296 OFFCURVE",
"1342 2332 OFFCURVE",
"1305 2332 CURVE SMOOTH",
"1234 2332 OFFCURVE",
"1218 2175 OFFCURVE",
"1171 2064 CURVE SMOOTH",
"1118 1941 OFFCURVE",
"1005 1746 OFFCURVE",
"821 1746 CURVE SMOOTH",
"747 1746 OFFCURVE",
"697 1753 OFFCURVE",
"671 1767 CURVE SMOOTH",
"644 1781 OFFCURVE",
"631 1804 OFFCURVE",
"631 1836 CURVE SMOOTH",
"631 1840 LINE SMOOTH",
"631 1872 OFFCURVE",
"601 1892 OFFCURVE",
"542 1899 CURVE",
"525 1899 LINE SMOOTH"
);
},
{
closed = 1;
nodes = (
"551 1224 OFFCURVE",
"655 1300 OFFCURVE",
"756 1300 CURVE SMOOTH",
"971 1300 LINE SMOOTH",
"1060 1300 OFFCURVE",
"1137 1278 OFFCURVE",
"1202 1234 CURVE SMOOTH",
"1268 1189 OFFCURVE",
"1302 1151 OFFCURVE",
"1303 1119 CURVE SMOOTH",
"1303 1118 LINE SMOOTH",
"1303 1086 OFFCURVE",
"1279 1070 OFFCURVE",
"1230 1070 CURVE SMOOTH",
"1183 1070 OFFCURVE",
"1160 1040 OFFCURVE",
"1160 980 CURVE SMOOTH",
"1160 970 LINE SMOOTH",
"1163 903 OFFCURVE",
"1220 870 OFFCURVE",
"1332 870 CURVE SMOOTH",
"1444 870 OFFCURVE",
"1500 953 OFFCURVE",
"1500 1119 CURVE SMOOTH",
"1500 1232 OFFCURVE",
"1448 1323 OFFCURVE",
"1344 1394 CURVE SMOOTH",
"1239 1465 OFFCURVE",
"1115 1500 OFFCURVE",
"971 1500 CURVE SMOOTH",
"756 1500 LINE SMOOTH",
"589 1500 OFFCURVE",
"433 1402 OFFCURVE",
"287 1205 CURVE SMOOTH",
"229 1128 OFFCURVE",
"200 1061 OFFCURVE",
"200 1006 CURVE",
"309 960 OFFCURVE",
"395 875 OFFCURVE",
"458 752 CURVE",
"200 517 LINE",
"200 293 OFFCURVE",
"464 0 OFFCURVE",
"624 0 CURVE",
"909 226 LINE",
"1036 75 OFFCURVE",
"1121 0 OFFCURVE",
"1165 0 CURVE SMOOTH",
"1328 0 OFFCURVE",
"1500 299 OFFCURVE",
"1500 414 CURVE SMOOTH",
"1500 471 OFFCURVE",
"1486 500 OFFCURVE",
"1457 500 CURVE SMOOTH",
"1398 500 OFFCURVE",
"1324 396 OFFCURVE",
"1256 307 CURVE SMOOTH",
"1221 262 OFFCURVE",
"1190 240 OFFCURVE",
"1163 240 CURVE",
"923 499 LINE",
"590 235 LINE",
"523 276 OFFCURVE",
"473 349 OFFCURVE",
"439 453 CURVE",
"595 617 LINE",
"645 665 OFFCURVE",
"670 714 OFFCURVE",
"670 764 CURVE SMOOTH",
"670 864 OFFCURVE",
"548 1007 OFFCURVE",
"444 1071 CURVE"
);
}
);
width = 1800;
}
);
note = uni1784;
unicode = 1784;
},
{
glyphname = uni1785;
lastChange = "2021-04-30 13:13:23 +0000";
layers = (
{
layerId = "BB6B0684-34D4-4B80-99D1-F5F29B570554";
paths = (
{
closed = 1;
nodes = (
"1500 690 OFFCURVE",
"1420 790 OFFCURVE",
"1260 790 CURVE SMOOTH",
"1153 790 OFFCURVE",
"1100 737 OFFCURVE",
"1100 630 CURVE SMOOTH",
"1100 583 OFFCURVE",
"1130 550 OFFCURVE",
"1190 530 CURVE",
"1217 570 OFFCURVE",
"1240 590 OFFCURVE",
"1260 590 CURVE SMOOTH",
"1287 590 OFFCURVE",
"1300 557 OFFCURVE",
"1300 490 CURVE",
"1301 484 OFFCURVE",
"1301 478 OFFCURVE",
"1301 472 CURVE SMOOTH",
"1301 427 OFFCURVE",
"1286 378 OFFCURVE",
"1256 327 CURVE SMOOTH",
"1221 269 OFFCURVE",
"1160 227 OFFCURVE",
"1073 200 CURVE",
"700 200 LINE",
"588 253 OFFCURVE",
"504 344 OFFCURVE",
"449 473 CURVE",
"612 645 LINE SMOOTH",
"651 688 OFFCURVE",
"670 734 OFFCURVE",
"670 784 CURVE SMOOTH",
"670 834 OFFCURVE",
"645 886 OFFCURVE",
"596 941 CURVE SMOOTH",
"547 996 OFFCURVE",
"488 1050 OFFCURVE",
"420 1104 CURVE",
"621 1270 LINE",
"878 1031 LINE",
"1115 1264 LINE",
"1193 1177 OFFCURVE",
"1262 1114 OFFCURVE",
"1322 1077 CURVE SMOOTH",
"1362 1052 OFFCURVE",
"1395 1040 OFFCURVE",
"1421 1040 CURVE SMOOTH",
"1434 1040 OFFCURVE",
"1446 1043 OFFCURVE",
"1456 1049 CURVE SMOOTH",
"1485 1068 OFFCURVE",
"1500 1096 OFFCURVE",
"1500 1133 CURVE SMOOTH",
"1500 1170 OFFCURVE",
"1473 1211 OFFCURVE",
"1419 1256 CURVE",
"1245 1419 OFFCURVE",
"1147 1500 OFFCURVE",
"1124 1500 CURVE SMOOTH",
"1101 1500 OFFCURVE",
"1019 1428 OFFCURVE",
"878 1284 CURVE",
"718 1428 OFFCURVE",
"627 1500 OFFCURVE",
"604 1500 CURVE SMOOTH",
"581 1500 OFFCURVE",
"478 1416 OFFCURVE",
"293 1249 CURVE SMOOTH",
"231 1193 OFFCURVE",
"200 1152 OFFCURVE",
"200 1126 CURVE SMOOTH",
"200 1099 OFFCURVE",
"225 1057 OFFCURVE",
"275 1000 CURVE",
"458 772 LINE",
"200 517 LINE",
"200 360 OFFCURVE",
"447 0 OFFCURVE",
"674 0 CURVE SMOOTH",
"1115 0 LINE SMOOTH",
"1304 0 OFFCURVE",
"1500 247 OFFCURVE",
"1500 490 CURVE SMOOTH"
);
}
);
width = 1800;
}
);
note = uni1785;
unicode = 1785;
},
{
glyphname = uni1786;
lastChange = "2021-04-30 13:13:23 +0000";
layers = (
{
layerId = "BB6B0684-34D4-4B80-99D1-F5F29B570554";
paths = (
{
closed = 1;
nodes = (
"1500 600 OFFCURVE",
"1413 700 OFFCURVE",
"1240 700 CURVE SMOOTH",
"1113 700 OFFCURVE",
"1050 647 OFFCURVE",
"1050 540 CURVE SMOOTH",
"1050 493 OFFCURVE",
"1080 460 OFFCURVE",
"1140 440 CURVE",
"1167 480 OFFCURVE",
"1200 500 OFFCURVE",
"1240 500 CURVE SMOOTH",
"1280 500 OFFCURVE",
"1300 467 OFFCURVE",
"1300 400 CURVE SMOOTH",
"1300 267 OFFCURVE",
"1237 200 OFFCURVE",
"1111 200 CURVE SMOOTH",
"1044 200 OFFCURVE",
"999 221 OFFCURVE",
"974 263 CURVE SMOOTH",
"900 388 OFFCURVE",
"796 450 OFFCURVE",
"663 450 CURVE SMOOTH",
"550 450 LINE",
"550 900 LINE SMOOTH",
"550 998 OFFCURVE",
"515 1081 OFFCURVE",
"446 1148 CURVE",
"621 1279 LINE",
"878 1099 LINE",
"1115 1290 LINE",
"1193 1219 OFFCURVE",
"1260 1171 OFFCURVE",
"1317 1147 CURVE SMOOTH",
"1376 1119 OFFCURVE",
"1420 1105 OFFCURVE",
"1451 1105 CURVE SMOOTH",
"1484 1105 OFFCURVE",
"1500 1121 OFFCURVE",
"1500 1153 CURVE SMOOTH",
"1500 1214 OFFCURVE",
"1473 1263 OFFCURVE",
"1419 1300 CURVE",
"1245 1433 OFFCURVE",
"1147 1500 OFFCURVE",
"1124 1500 CURVE SMOOTH",
"1101 1500 OFFCURVE",
"1019 1441 OFFCURVE",
"878 1323 CURVE",
"718 1441 OFFCURVE",
"627 1500 OFFCURVE",
"604 1500 CURVE SMOOTH",
"581 1500 OFFCURVE",
"478 1431 OFFCURVE",
"293 1294 CURVE SMOOTH",
"231 1248 OFFCURVE",
"200 1214 OFFCURVE",
"200 1193 CURVE SMOOTH",
"200 1171 OFFCURVE",
"225 1137 OFFCURVE",
"275 1090 CURVE SMOOTH",
"325 1043 OFFCURVE",
"350 979 OFFCURVE",
"350 900 CURVE SMOOTH",
"350 450 LINE",
"250 450 OFFCURVE",
"200 410 OFFCURVE",
"200 330 CURVE SMOOTH",
"200 169 OFFCURVE",
"317 0 OFFCURVE",
"450 0 CURVE SMOOTH",
"517 0 OFFCURVE",
"550 42 OFFCURVE",
"550 125 CURVE SMOOTH",
"550 250 LINE",
"666 250 LINE SMOOTH",
"743 250 OFFCURVE",
"801 219 OFFCURVE",
"841 156 CURVE SMOOTH",
"908 52 OFFCURVE",
"999 0 OFFCURVE",
"1113 0 CURVE SMOOTH",
"1371 0 OFFCURVE",
"1500 133 OFFCURVE",
"1500 400 CURVE SMOOTH"
);
}
);
width = 1800;
}
);
note = uni1786;
unicode = 1786;
},
{
glyphname = uni1787;
lastChange = "2021-04-30 13:13:23 +0000";
layers = (
{
layerId = "BB6B0684-34D4-4B80-99D1-F5F29B570554";
paths = (
{
closed = 1;
nodes = (
"1355 1387 OFFCURVE",
"1349 1391 OFFCURVE",
"1344 1394 CURVE SMOOTH",
"1239 1465 OFFCURVE",
"1115 1500 OFFCURVE",
"971 1500 CURVE SMOOTH",
"756 1500 LINE SMOOTH",
"589 1500 OFFCURVE",
"433 1402 OFFCURVE",
"287 1205 CURVE SMOOTH",
"229 1128 OFFCURVE",
"200 1061 OFFCURVE",
"200 1006 CURVE",
"309 960 OFFCURVE",
"395 875 OFFCURVE",
"458 752 CURVE",
"200 517 LINE",
"200 293 OFFCURVE",
"464 0 OFFCURVE",
"624 0 CURVE",
"909 226 LINE",
"1036 75 OFFCURVE",
"1121 0 OFFCURVE",
"1165 0 CURVE SMOOTH",
"1328 0 OFFCURVE",
"1500 299 OFFCURVE",
"1500 414 CURVE SMOOTH",
"1500 471 OFFCURVE",
"1486 500 OFFCURVE",
"1457 500 CURVE SMOOTH",
"1398 500 OFFCURVE",
"1324 396 OFFCURVE",
"1256 307 CURVE SMOOTH",
"1221 262 OFFCURVE",
"1190 240 OFFCURVE",
"1163 240 CURVE",
"923 499 LINE",
"590 235 LINE",
"523 276 OFFCURVE",
"473 349 OFFCURVE",
"439 453 CURVE",
"595 617 LINE",
"645 665 OFFCURVE",
"670 714 OFFCURVE",
"670 764 CURVE SMOOTH",
"670 864 OFFCURVE",
"548 1007 OFFCURVE",
"444 1071 CURVE",
"551 1224 OFFCURVE",
"655 1300 OFFCURVE",
"756 1300 CURVE SMOOTH",
"971 1300 LINE SMOOTH",
"1060 1300 OFFCURVE",
"1137 1278 OFFCURVE",
"1202 1234 CURVE SMOOTH",
"1268 1189 OFFCURVE",
"1302 1151 OFFCURVE",
"1303 1119 CURVE SMOOTH",
"1303 1118 LINE SMOOTH",
"1303 1086 OFFCURVE",
"1279 1070 OFFCURVE",
"1230 1070 CURVE SMOOTH",
"1183 1070 OFFCURVE",
"1160 1040 OFFCURVE",
"1160 980 CURVE SMOOTH",
"1160 970 LINE SMOOTH",
"1163 903 OFFCURVE",
"1220 870 OFFCURVE",
"1332 870 CURVE SMOOTH",
"1441 870 OFFCURVE",
"1497 948 OFFCURVE",
"1500 1103 CURVE",
"1505 1115 OFFCURVE",
"1510 1127 OFFCURVE",
"1514 1140 CURVE SMOOTH",
"1538 1211 OFFCURVE",
"1550 1281 OFFCURVE",
"1550 1350 CURVE SMOOTH",
"1550 1389 OFFCURVE",
"1546 1429 OFFCURVE",
"1539 1468 CURVE SMOOTH",
"1517 1575 OFFCURVE",
"1490 1661 OFFCURVE",
"1458 1725 CURVE SMOOTH",
"1432 1775 OFFCURVE",
"1406 1800 OFFCURVE",
"1380 1800 CURVE SMOOTH",
"1373 1800 OFFCURVE",
"1367 1798 OFFCURVE",
"1360 1795 CURVE SMOOTH",
"1337 1784 OFFCURVE",
"1326 1762 OFFCURVE",
"1326 1731 CURVE SMOOTH",
"1326 1717 OFFCURVE",
"1328 1701 OFFCURVE",
"1333 1683 CURVE SMOOTH",
"1348 1624 OFFCURVE",
"1357 1562 OFFCURVE",
"1362 1495 CURVE SMOOTH",
"1363 1482 OFFCURVE",
"1363 1469 OFFCURVE",
"1363 1455 CURVE SMOOTH",
"1363 1432 OFFCURVE",
"1362 1408 OFFCURVE",
"1360 1383 CURVE"
);
}
);
width = 1800;
}
);
note = uni1787;
unicode = 1787;
},
{
glyphname = uni1788;
lastChange = "2021-04-30 13:13:23 +0000";
layers = (
{
layerId = "BB6B0684-34D4-4B80-99D1-F5F29B570554";
paths = (
{
closed = 1;
nodes = (
"2093 35 OFFCURVE",
"2202 97 OFFCURVE",
"2277 186 CURVE",
"2391 62 OFFCURVE",
"2490 0 OFFCURVE",
"2574 0 CURVE SMOOTH",
"2880 0 LINE",
"3133 67 OFFCURVE",
"3273 233 OFFCURVE",
"3300 500 CURVE",
"3300 896 LINE",
"3287 1013 OFFCURVE",
"3220 1099 OFFCURVE",
"3101 1154 CURVE",
"3179 1249 LINE",
"3273 1197 OFFCURVE",
"3343 1171 OFFCURVE",
"3388 1171 CURVE SMOOTH",
"3399 1171 OFFCURVE",
"3409 1173 OFFCURVE",
"3418 1176 CURVE SMOOTH",
"3459 1192 OFFCURVE",
"3487 1248 OFFCURVE",
"3500 1343 CURVE",
"3491 1339 OFFCURVE",
"3481 1337 OFFCURVE",
"3470 1337 CURVE SMOOTH",
"3409 1337 OFFCURVE",
"3308 1391 OFFCURVE",
"3166 1500 CURVE",
"2840 1052 LINE",
"2987 1025 OFFCURVE",
"3073 967 OFFCURVE",
"3100 876 CURVE",
"3100 500 LINE",
"3067 353 OFFCURVE",
"2983 253 OFFCURVE",
"2850 200 CURVE",
"2614 200 LINE",
"2518 254 OFFCURVE",
"2440 318 OFFCURVE",
"2381 393 CURVE",
"2390 426 OFFCURVE",
"2396 462 OFFCURVE",
"2400 500 CURVE",
"2400 896 LINE",
"2387 1013 OFFCURVE",
"2320 1099 OFFCURVE",
"2201 1154 CURVE",
"2279 1249 LINE",
"2373 1197 OFFCURVE",
"2443 1171 OFFCURVE",
"2488 1171 CURVE SMOOTH",
"2499 1171 OFFCURVE",
"2509 1173 OFFCURVE",
"2518 1176 CURVE SMOOTH",
"2559 1192 OFFCURVE",
"2587 1248 OFFCURVE",
"2600 1343 CURVE",
"2591 1339 OFFCURVE",
"2581 1337 OFFCURVE",
"2570 1337 CURVE SMOOTH",
"2509 1337 OFFCURVE",
"2408 1391 OFFCURVE",
"2266 1500 CURVE",
"1940 1052 LINE",
"2087 1025 OFFCURVE",
"2173 967 OFFCURVE",
"2200 876 CURVE",
"2200 500 LINE",
"2167 353 OFFCURVE",
"2083 253 OFFCURVE",
"1950 200 CURVE",
"1624 200 LINE",
"1509 278 OFFCURVE",
"1422 372 OFFCURVE",
"1363 481 CURVE",
"1528 654 LINE SMOOTH",
"1576 704 OFFCURVE",
"1600 761 OFFCURVE",
"1600 824 CURVE SMOOTH",
"1600 901 OFFCURVE",
"1516 1019 OFFCURVE",
"1425 1094 CURVE",
"900 1500 LINE",
"375 1094 LINE SMOOTH",
"325 1053 OFFCURVE",
"300 991 OFFCURVE",
"300 908 CURVE SMOOTH",
"300 290 LINE SMOOTH",
"300 103 OFFCURVE",
"405 0 OFFCURVE",
"532 0 CURVE SMOOTH",
"595 0 OFFCURVE",
"640 44 OFFCURVE",
"667 133 CURVE SMOOTH",
"674 158 OFFCURVE",
"678 181 OFFCURVE",
"678 203 CURVE SMOOTH",
"678 261 OFFCURVE",
"653 311 OFFCURVE",
"604 353 CURVE SMOOTH",
"535 411 OFFCURVE",
"500 453 OFFCURVE",
"500 480 CURVE SMOOTH",
"500 948 LINE",
"900 1265 LINE",
"1300 948 LINE SMOOTH",
"1359 903 OFFCURVE",
"1388 858 OFFCURVE",
"1388 813 CURVE SMOOTH",
"1388 812 LINE",
"1102 528 LINE",
"1142 307 OFFCURVE",
"1384 0 OFFCURVE",
"1624 0 CURVE SMOOTH",
"1950 0 LINE"
);
}
);
width = 3600;
}
);
note = uni1788;
unicode = 1788;
},
{
glyphname = uni1789;
lastChange = "2021-04-30 13:13:23 +0000";
layers = (
{
layerId = "BB6B0684-34D4-4B80-99D1-F5F29B570554";
paths = (
{
closed = 1;
nodes = (
"2250 500 LINE SMOOTH",
"2250 447 OFFCURVE",
"2225 396 OFFCURVE",
"2175 348 CURVE SMOOTH",
"2125 300 OFFCURVE",
"2100 248 OFFCURVE",
"2100 193 CURVE SMOOTH",
"2100 82 OFFCURVE",
"2260 0 OFFCURVE",
"2369 0 CURVE SMOOTH",
"2423 0 OFFCURVE",
"2450 33 OFFCURVE",
"2450 100 CURVE SMOOTH",
"2450 1140 LINE",
"2073 1380 OFFCURVE",
"1864 1500 OFFCURVE",
"1825 1500 CURVE SMOOTH",
"1790 1500 OFFCURVE",
"1667 1414 OFFCURVE",
"1456 1241 CURVE",
"1444 1256 OFFCURVE",
"1429 1270 OFFCURVE",
"1411 1285 CURVE SMOOTH",
"1152 1500 LINE",
"899 1322 LINE",
"645 1500 LINE",
"387 1285 LINE SMOOTH",
"329 1236 OFFCURVE",
"300 1186 OFFCURVE",
"300 1135 CURVE SMOOTH",
"300 370 LINE SMOOTH",
"300 203 OFFCURVE",
"458 0 OFFCURVE",
"587 0 CURVE SMOOTH",
"728 0 OFFCURVE",
"870 193 OFFCURVE",
"870 400 CURVE SMOOTH",
"870 580 OFFCURVE",
"782 670 OFFCURVE",
"607 670 CURVE SMOOTH",
"556 670 OFFCURVE",
"521 655 OFFCURVE",
"500 626 CURVE",
"500 1103 LINE",
"659 1235 LINE",
"899 1070 LINE",
"1139 1235 LINE",
"1300 1103 LINE",
"1300 500 LINE SMOOTH",
"1300 447 OFFCURVE",
"1275 396 OFFCURVE",
"1225 348 CURVE SMOOTH",
"1175 300 OFFCURVE",
"1150 248 OFFCURVE",
"1150 193 CURVE SMOOTH",
"1150 82 OFFCURVE",
"1310 0 OFFCURVE",
"1419 0 CURVE SMOOTH",
"1473 0 OFFCURVE",
"1500 33 OFFCURVE",
"1500 100 CURVE SMOOTH",
"1500 1000 LINE",
"1819 1277 LINE",
"2250 1032 LINE"
);
},
{
closed = 1;
nodes = (
"500 443 OFFCURVE",
"536 480 OFFCURVE",
"607 480 CURVE SMOOTH",
"649 480 OFFCURVE",
"670 453 OFFCURVE",
"670 400 CURVE SMOOTH",
"670 325 OFFCURVE",
"635 200 OFFCURVE",
"587 200 CURVE",
"542 220 OFFCURVE",
"513 277 OFFCURVE",
"500 370 CURVE"
);
},
{
closed = 1;
nodes = (
"2250 -423 OFFCURVE",
"2199 -474 OFFCURVE",
"2096 -525 CURVE SMOOTH",
"1993 -575 OFFCURVE",
"1792 -600 OFFCURVE",
"1493 -600 CURVE SMOOTH",
"1061 -600 OFFCURVE",
"829 -492 OFFCURVE",
"536 -207 CURVE",
"507 -169 OFFCURVE",
"461 -150 OFFCURVE",
"397 -150 CURVE SMOOTH",
"332 -150 OFFCURVE",
"300 -169 OFFCURVE",
"300 -207 CURVE SMOOTH",
"300 -246 OFFCURVE",
"319 -285 OFFCURVE",
"357 -324 CURVE",
"656 -665 OFFCURVE",
"976 -800 OFFCURVE",
"1493 -800 CURVE SMOOTH",
"1856 -800 OFFCURVE",
"2106 -758 OFFCURVE",
"2244 -673 CURVE SMOOTH",
"2381 -588 OFFCURVE",
"2450 -488 OFFCURVE",
"2450 -372 CURVE SMOOTH",
"2450 -191 OFFCURVE",
"2351 -100 OFFCURVE",
"2152 -100 CURVE SMOOTH",
"2095 -100 OFFCURVE",
"2066 -133 OFFCURVE",
"2066 -200 CURVE SMOOTH",
"2066 -267 OFFCURVE",
"2095 -300 OFFCURVE",
"2152 -300 CURVE SMOOTH",
"2217 -300 OFFCURVE",
"2250 -324 OFFCURVE",
"2250 -372 CURVE SMOOTH"
);
}
);
width = 2750;
}
);
note = uni1789;
unicode = 1789;
},
{
glyphname = uni178A;
lastChange = "2021-04-30 13:13:23 +0000";
layers = (
{
layerId = "BB6B0684-34D4-4B80-99D1-F5F29B570554";
paths = (
{
closed = 1;
nodes = (
"755 1150 OFFCURVE",
"922 1100 OFFCURVE",
"1110 1100 CURVE SMOOTH",
"1370 1100 OFFCURVE",
"1500 1229 OFFCURVE",
"1500 1486 CURVE SMOOTH",
"1500 1662 OFFCURVE",
"1437 1750 OFFCURVE",
"1310 1750 CURVE SMOOTH",
"1259 1750 OFFCURVE",
"1234 1737 OFFCURVE",
"1234 1712 CURVE SMOOTH",
"1234 1701 OFFCURVE",
"1239 1687 OFFCURVE",
"1250 1670 CURVE SMOOTH",
"1283 1617 OFFCURVE",
"1300 1555 OFFCURVE",
"1300 1486 CURVE SMOOTH",
"1300 1362 OFFCURVE",
"1237 1300 OFFCURVE",
"1110 1300 CURVE SMOOTH",
"957 1300 OFFCURVE",
"840 1333 OFFCURVE",
"758 1400 CURVE SMOOTH",
"675 1467 OFFCURVE",
"623 1500 OFFCURVE",
"602 1500 CURVE SMOOTH",
"581 1500 OFFCURVE",
"547 1479 OFFCURVE",
"501 1437 CURVE SMOOTH",
"337 1289 LINE",
"293 1249 LINE SMOOTH",
"231 1193 OFFCURVE",
"200 1152 OFFCURVE",
"200 1126 CURVE SMOOTH",
"200 1099 OFFCURVE",
"225 1057 OFFCURVE",
"275 1000 CURVE",
"458 772 LINE",
"200 517 LINE",
"200 360 OFFCURVE",
"464 0 OFFCURVE",
"624 0 CURVE",
"889 206 LINE",
"1029 69 OFFCURVE",
"1121 0 OFFCURVE",
"1165 0 CURVE SMOOTH",
"1328 0 OFFCURVE",
"1500 273 OFFCURVE",
"1500 414 CURVE SMOOTH",
"1500 471 OFFCURVE",
"1486 500 OFFCURVE",
"1457 500 CURVE SMOOTH",
"1398 500 OFFCURVE",
"1324 443 OFFCURVE",
"1256 327 CURVE SMOOTH",
"1221 269 OFFCURVE",
"1190 240 OFFCURVE",
"1163 240 CURVE",
"923 499 LINE",
"620 265 LINE",
"540 306 OFFCURVE",
"483 376 OFFCURVE",
"449 473 CURVE",
"612 645 LINE SMOOTH",
"651 688 OFFCURVE",
"670 734 OFFCURVE",
"670 784 CURVE SMOOTH",
"670 834 OFFCURVE",
"645 886 OFFCURVE",
"596 941 CURVE SMOOTH",
"441 1104 LINE",
"610 1250 LINE"
);
}
);
width = 1800;
}
);
note = uni178A;
unicode = 178A;
},
{
glyphname = uni178B;
lastChange = "2021-04-30 13:13:23 +0000";
layers = (
{
layerId = "BB6B0684-34D4-4B80-99D1-F5F29B570554";
paths = (
{
closed = 1;
nodes = (
"1550 1023 OFFCURVE",
"1500 1086 OFFCURVE",
"1401 1134 CURVE",
"1459 1219 LINE",
"1528 1177 OFFCURVE",
"1586 1156 OFFCURVE",
"1633 1156 CURVE SMOOTH",
"1666 1156 OFFCURVE",
"1695 1167 OFFCURVE",
"1718 1188 CURVE SMOOTH",
"1773 1239 OFFCURVE",
"1800 1322 OFFCURVE",
"1800 1435 CURVE SMOOTH",
"1800 1548 OFFCURVE",
"1758 1633 OFFCURVE",
"1673 1689 CURVE",
"1682 1616 OFFCURVE",
"1686 1554 OFFCURVE",
"1686 1505 CURVE SMOOTH",
"1686 1408 OFFCURVE",
"1669 1360 OFFCURVE",
"1634 1360 CURVE SMOOTH",
"1631 1360 OFFCURVE",
"1627 1361 OFFCURVE",
"1624 1362 CURVE SMOOTH",
"1563 1376 OFFCURVE",
"1501 1422 OFFCURVE",
"1436 1500 CURVE",
"1150 1052 LINE",
"1283 1025 OFFCURVE",
"1350 967 OFFCURVE",
"1350 876 CURVE SMOOTH",
"1350 500 LINE",
"1317 353 OFFCURVE",
"1233 253 OFFCURVE",
"1100 200 CURVE",
"714 200 LINE",
"598 265 OFFCURVE",
"514 341 OFFCURVE",
"461 429 CURVE",
"647 682 OFFCURVE",
"740 834 OFFCURVE",
"740 884 CURVE SMOOTH",
"740 977 LINE SMOOTH",
"740 1038 OFFCURVE",
"698 1149 OFFCURVE",
"613 1309 CURVE SMOOTH",
"544 1436 OFFCURVE",
"493 1500 OFFCURVE",
"461 1500 CURVE SMOOTH",
"397 1500 OFFCURVE",
"200 1302 OFFCURVE",
"200 1111 CURVE SMOOTH",
"200 1016 OFFCURVE",
"235 966 OFFCURVE",
"306 961 CURVE SMOOTH",
"312 960 OFFCURVE",
"318 960 OFFCURVE",
"323 960 CURVE SMOOTH",
"384 960 OFFCURVE",
"420 983 OFFCURVE",
"433 1029 CURVE SMOOTH",
"437 1044 OFFCURVE",
"439 1058 OFFCURVE",
"439 1071 CURVE SMOOTH",
"439 1101 OFFCURVE",
"428 1126 OFFCURVE",
"405 1145 CURVE SMOOTH",
"385 1162 OFFCURVE",
"375 1176 OFFCURVE",
"375 1187 CURVE SMOOTH",
"375 1194 OFFCURVE",
"379 1199 OFFCURVE",
"386 1204 CURVE SMOOTH",
"391 1207 OFFCURVE",
"396 1208 OFFCURVE",
"401 1208 CURVE SMOOTH",
"417 1208 OFFCURVE",
"433 1195 OFFCURVE",
"450 1170 CURVE SMOOTH",
"512 1075 OFFCURVE",
"543 1005 OFFCURVE",
"543 960 CURVE SMOOTH",
"543 957 OFFCURVE",
"543 953 OFFCURVE",
"542 950 CURVE",
"533 882 LINE",
"200 476 LINE",
"240 255 OFFCURVE",
"554 0 OFFCURVE",
"714 0 CURVE SMOOTH",
"1130 0 LINE",
"1383 67 OFFCURVE",
"1523 233 OFFCURVE",
"1550 500 CURVE",
"1550 946 LINE SMOOTH"
);
}
);
width = 1850;
}
);
note = uni178B;
unicode = 178B;
},
{
glyphname = uni178C;
lastChange = "2021-04-30 13:13:23 +0000";
layers = (
{
layerId = "BB6B0684-34D4-4B80-99D1-F5F29B570554";
paths = (
{
closed = 1;
nodes = (
"899 1070 LINE",
"1139 1235 LINE",
"1300 1103 LINE",
"1300 978 OFFCURVE",
"1241 877 OFFCURVE",
"1122 802 CURVE SMOOTH",
"583 463 LINE SMOOTH",
"526 428 OFFCURVE",
"498 387 OFFCURVE",
"498 341 CURVE SMOOTH",
"498 306 OFFCURVE",
"515 268 OFFCURVE",
"548 227 CURVE",
"649 114 LINE SMOOTH",
"716 38 OFFCURVE",
"759 0 OFFCURVE",
"779 0 CURVE SMOOTH",
"798 0 OFFCURVE",
"838 19 OFFCURVE",
"898 58 CURVE SMOOTH",
"1300 314 LINE",
"1300 100 LINE SMOOTH",
"1300 33 OFFCURVE",
"1333 0 OFFCURVE",
"1400 0 CURVE SMOOTH",
"1467 0 OFFCURVE",
"1500 33 OFFCURVE",
"1500 100 CURVE SMOOTH",
"1500 482 LINE SMOOTH",
"1500 539 OFFCURVE",
"1465 567 OFFCURVE",
"1396 567 CURVE SMOOTH",
"1369 567 OFFCURVE",
"1337 563 OFFCURVE",
"1300 554 CURVE",
"799 235 LINE",
"726 317 LINE",
"1237 642 LINE SMOOTH",
"1412 752 OFFCURVE",
"1500 906 OFFCURVE",
"1500 1103 CURVE SMOOTH",
"1500 1135 LINE SMOOTH",
"1500 1186 OFFCURVE",
"1470 1236 OFFCURVE",
"1411 1285 CURVE SMOOTH",
"1152 1500 LINE",
"899 1322 LINE",
"645 1500 LINE",
"387 1285 LINE SMOOTH",
"329 1236 OFFCURVE",
"300 1186 OFFCURVE",
"300 1135 CURVE SMOOTH",
"300 873 LINE SMOOTH",
"300 776 OFFCURVE",
"392 650 OFFCURVE",
"500 650 CURVE SMOOTH",
"560 650 OFFCURVE",
"736 770 OFFCURVE",
"736 891 CURVE SMOOTH",
"736 994 OFFCURVE",
"700 1045 OFFCURVE",
"627 1046 CURVE SMOOTH",
"625 1046 LINE SMOOTH",
"580 1046 OFFCURVE",
"552 1019 OFFCURVE",
"541 966 CURVE",
"558 952 OFFCURVE",
"566 935 OFFCURVE",
"566 916 CURVE SMOOTH",
"566 913 OFFCURVE",
"566 910 OFFCURVE",
"565 907 CURVE",
"562 884 OFFCURVE",
"541 865 OFFCURVE",
"500 850 CURVE",
"500 1103 LINE",
"659 1235 LINE"
);
}
);
width = 1800;
}
);
note = uni178C;
unicode = 178C;
},
{
glyphname = uni178D;
lastChange = "2021-04-30 13:13:23 +0000";
layers = (
{
layerId = "BB6B0684-34D4-4B80-99D1-F5F29B570554";
paths = (
{
closed = 1;
nodes = (
"1200 450 OFFCURVE",
"1150 410 OFFCURVE",
"1150 330 CURVE SMOOTH",
"1150 169 OFFCURVE",
"1267 0 OFFCURVE",
"1400 0 CURVE SMOOTH",
"1467 0 OFFCURVE",
"1500 42 OFFCURVE",
"1500 125 CURVE SMOOTH",
"1500 250 LINE",
"1616 250 LINE SMOOTH",
"1693 250 OFFCURVE",
"1751 219 OFFCURVE",
"1791 156 CURVE SMOOTH",
"1858 52 OFFCURVE",
"1949 0 OFFCURVE",
"2063 0 CURVE SMOOTH",
"2321 0 OFFCURVE",
"2450 133 OFFCURVE",
"2450 400 CURVE SMOOTH",
"2450 896 LINE",
"2437 1013 OFFCURVE",
"2370 1099 OFFCURVE",
"2251 1154 CURVE",
"2329 1249 LINE",
"2423 1197 OFFCURVE",
"2493 1171 OFFCURVE",
"2538 1171 CURVE SMOOTH",
"2549 1171 OFFCURVE",
"2559 1173 OFFCURVE",
"2568 1176 CURVE SMOOTH",
"2609 1192 OFFCURVE",
"2637 1248 OFFCURVE",
"2650 1343 CURVE",
"2641 1339 OFFCURVE",
"2631 1337 OFFCURVE",
"2620 1337 CURVE SMOOTH",
"2559 1337 OFFCURVE",
"2458 1391 OFFCURVE",
"2316 1500 CURVE",
"1990 1052 LINE",
"2137 1025 OFFCURVE",
"2223 967 OFFCURVE",
"2250 876 CURVE",
"2250 400 LINE SMOOTH",
"2250 267 OFFCURVE",
"2187 200 OFFCURVE",
"2061 200 CURVE SMOOTH",
"1994 200 OFFCURVE",
"1949 221 OFFCURVE",
"1924 263 CURVE SMOOTH",
"1850 388 OFFCURVE",
"1746 450 OFFCURVE",
"1613 450 CURVE SMOOTH",
"1500 450 LINE",
"1500 1135 LINE SMOOTH",
"1500 1186 OFFCURVE",
"1470 1236 OFFCURVE",
"1411 1285 CURVE SMOOTH",
"1152 1500 LINE",
"899 1322 LINE",
"645 1500 LINE",
"387 1285 LINE SMOOTH",
"329 1236 OFFCURVE",
"300 1186 OFFCURVE",
"300 1135 CURVE SMOOTH",
"300 370 LINE SMOOTH",
"300 203 OFFCURVE",
"458 0 OFFCURVE",
"587 0 CURVE SMOOTH",
"728 0 OFFCURVE",
"870 193 OFFCURVE",
"870 400 CURVE SMOOTH",
"870 580 OFFCURVE",
"782 670 OFFCURVE",
"607 670 CURVE SMOOTH",
"556 670 OFFCURVE",
"521 655 OFFCURVE",
"500 626 CURVE",
"500 1103 LINE",
"659 1235 LINE",
"899 1070 LINE",
"1139 1235 LINE",
"1300 1103 LINE",
"1300 450 LINE"
);
},
{
closed = 1;
nodes = (
"500 443 OFFCURVE",
"536 480 OFFCURVE",
"607 480 CURVE SMOOTH",
"649 480 OFFCURVE",
"670 453 OFFCURVE",
"670 400 CURVE SMOOTH",
"670 325 OFFCURVE",
"635 200 OFFCURVE",
"587 200 CURVE",
"542 220 OFFCURVE",
"513 277 OFFCURVE",
"500 370 CURVE"
);
}
);
width = 2750;
}
);
note = uni178D;
unicode = 178D;
},
{
glyphname = uni178E;
lastChange = "2021-04-30 13:13:23 +0000";
layers = (
{
layerId = "BB6B0684-34D4-4B80-99D1-F5F29B570554";
paths = (
{
closed = 1;
nodes = (
"3599 983 OFFCURVE",
"3596 1000 OFFCURVE",
"3589 1017 CURVE SMOOTH",
"3568 1067 OFFCURVE",
"3503 1126 OFFCURVE",
"3395 1194 CURVE SMOOTH",
"2908 1500 LINE",
"2420 1187 LINE SMOOTH",
"2315 1119 OFFCURVE",
"2249 1032 OFFCURVE",
"2224 925 CURVE",
"2446 656 LINE",
"2436 515 OFFCURVE",
"2397 403 OFFCURVE",
"2328 322 CURVE SMOOTH",
"2259 241 OFFCURVE",
"2210 200 OFFCURVE",
"2183 200 CURVE SMOOTH",
"2139 200 OFFCURVE",
"2042 303 OFFCURVE",
"1893 509 CURVE",
"1560 235 LINE",
"1493 276 OFFCURVE",
"1430 349 OFFCURVE",
"1369 453 CURVE",
"1600 795 LINE",
"1629 842 OFFCURVE",
"1643 885 OFFCURVE",
"1643 923 CURVE SMOOTH",
"1643 942 OFFCURVE",
"1639 960 OFFCURVE",
"1632 977 CURVE SMOOTH",
"1611 1027 OFFCURVE",
"1384 1201 OFFCURVE",
"951 1500 CURVE",
"463 1187 LINE SMOOTH",
"354 1117 OFFCURVE",
"300 1051 OFFCURVE",
"300 990 CURVE SMOOTH",
"300 290 LINE SMOOTH",
"300 103 OFFCURVE",
"405 0 OFFCURVE",
"532 0 CURVE SMOOTH",
"595 0 OFFCURVE",
"640 44 OFFCURVE",
"667 133 CURVE SMOOTH",
"674 158 OFFCURVE",
"678 181 OFFCURVE",
"678 203 CURVE SMOOTH",
"678 261 OFFCURVE",
"653 311 OFFCURVE",
"604 353 CURVE SMOOTH",
"535 411 OFFCURVE",
"500 453 OFFCURVE",
"500 480 CURVE SMOOTH",
"500 959 LINE",
"931 1244 LINE",
"1395 909 LINE",
"1130 517 LINE",
"1130 306 OFFCURVE",
"1434 0 OFFCURVE",
"1594 0 CURVE",
"1849 226 LINE",
"1996 75 OFFCURVE",
"2108 0 OFFCURVE",
"2185 0 CURVE SMOOTH",
"2348 0 OFFCURVE",
"2546 191 OFFCURVE",
"2631 464 CURVE SMOOTH",
"2648 519 OFFCURVE",
"2656 568 OFFCURVE",
"2656 613 CURVE SMOOTH",
"2656 678 OFFCURVE",
"2638 732 OFFCURVE",
"2601 774 CURVE",
"2457 959 LINE",
"2908 1254 LINE",
"3400 922 LINE",
"3400 500 LINE SMOOTH",
"3400 447 OFFCURVE",
"3375 396 OFFCURVE",
"3325 348 CURVE SMOOTH",
"3275 300 OFFCURVE",
"3250 248 OFFCURVE",
"3250 193 CURVE SMOOTH",
"3250 82 OFFCURVE",
"3410 0 OFFCURVE",
"3519 0 CURVE SMOOTH",
"3573 0 OFFCURVE",
"3600 33 OFFCURVE",
"3600 100 CURVE SMOOTH",
"3600 964 LINE SMOOTH"
);
}
);
width = 3900;
}
);
note = uni178E;
unicode = 178E;
},
{
glyphname = uni178F;
lastChange = "2021-04-30 13:13:23 +0000";
layers = (
{
layerId = "BB6B0684-34D4-4B80-99D1-F5F29B570554";
paths = (
{
closed = 1;
nodes = (
"487 1109 LINE",
"437 1189 LINE",
"589 1290 LINE",
"897 1181 LINE",
"1163 1307 LINE",
"1262 1242 OFFCURVE",
"1341 1199 OFFCURVE",
"1402 1179 CURVE SMOOTH",
"1411 1176 OFFCURVE",
"1421 1174 OFFCURVE",
"1430 1174 CURVE SMOOTH",
"1482 1174 OFFCURVE",
"1539 1223 OFFCURVE",
"1600 1320 CURVE",
"1483 1359 OFFCURVE",
"1388 1399 OFFCURVE",
"1317 1440 CURVE SMOOTH",
"1245 1480 OFFCURVE",
"1197 1500 OFFCURVE",
"1173 1500 CURVE SMOOTH",
"1148 1500 OFFCURVE",
"1056 1465 OFFCURVE",
"897 1394 CURVE",
"704 1465 OFFCURVE",
"595 1500 OFFCURVE",
"570 1500 CURVE SMOOTH",
"546 1500 OFFCURVE",
"506 1480 OFFCURVE",
"450 1440 CURVE SMOOTH",
"200 1270 LINE",
"200 1215 LINE",
"373 1051 LINE"
);
},
{
closed = 1;
nodes = (
"1300 738 LINE",
"1300 500 LINE SMOOTH",
"1300 447 OFFCURVE",
"1275 396 OFFCURVE",
"1225 348 CURVE SMOOTH",
"1175 300 OFFCURVE",
"1150 248 OFFCURVE",
"1150 193 CURVE SMOOTH",
"1150 82 OFFCURVE",
"1310 0 OFFCURVE",
"1419 0 CURVE SMOOTH",
"1473 0 OFFCURVE",
"1500 33 OFFCURVE",
"1500 100 CURVE SMOOTH",
"1500 788 LINE SMOOTH",
"1500 840 OFFCURVE",
"1475 879 OFFCURVE",
"1425 905 CURVE SMOOTH",
"900 1160 LINE",
"375 905 LINE SMOOTH",
"325 879 OFFCURVE",
"300 840 OFFCURVE",
"300 788 CURVE SMOOTH",
"300 330 LINE SMOOTH",
"300 217 OFFCURVE",
"458 0 OFFCURVE",
"587 0 CURVE SMOOTH",
"728 0 OFFCURVE",
"870 207 OFFCURVE",
"870 360 CURVE SMOOTH",
"870 540 OFFCURVE",
"782 630 OFFCURVE",
"607 630 CURVE SMOOTH",
"556 630 OFFCURVE",
"521 615 OFFCURVE",
"500 586 CURVE",
"500 738 LINE",
"900 937 LINE"
);
},
{
closed = 1;
nodes = (
"500 403 OFFCURVE",
"536 440 OFFCURVE",
"607 440 CURVE SMOOTH",
"649 440 OFFCURVE",
"670 413 OFFCURVE",
"670 360 CURVE SMOOTH",
"670 285 OFFCURVE",
"635 200 OFFCURVE",
"587 200 CURVE",
"542 220 OFFCURVE",
"513 263 OFFCURVE",
"500 330 CURVE"
);
}
);
width = 1800;
}
);
note = uni178F;
unicode = 178F;
},
{
glyphname = uni1790;
lastChange = "2021-04-30 13:13:23 +0000";
layers = (
{
layerId = "BB6B0684-34D4-4B80-99D1-F5F29B570554";
paths = (
{
closed = 1;
nodes = (
"1500 690 OFFCURVE",
"1420 790 OFFCURVE",
"1260 790 CURVE SMOOTH",
"1153 790 OFFCURVE",
"1100 737 OFFCURVE",
"1100 630 CURVE SMOOTH",
"1100 583 OFFCURVE",
"1130 550 OFFCURVE",
"1190 530 CURVE",
"1217 570 OFFCURVE",
"1240 590 OFFCURVE",
"1260 590 CURVE SMOOTH",
"1287 590 OFFCURVE",
"1300 557 OFFCURVE",
"1300 490 CURVE",
"1301 484 OFFCURVE",
"1301 478 OFFCURVE",
"1301 472 CURVE SMOOTH",
"1301 427 OFFCURVE",
"1286 378 OFFCURVE",
"1256 327 CURVE SMOOTH",
"1221 269 OFFCURVE",
"1160 227 OFFCURVE",
"1073 200 CURVE",
"700 200 LINE",
"588 253 OFFCURVE",
"504 344 OFFCURVE",
"449 473 CURVE",
"612 645 LINE SMOOTH",
"651 688 OFFCURVE",
"670 734 OFFCURVE",
"670 784 CURVE SMOOTH",
"670 834 OFFCURVE",
"645 886 OFFCURVE",
"596 941 CURVE SMOOTH",
"450 1104 LINE",
"610 1250 LINE",
"755 1150 OFFCURVE",
"922 1100 OFFCURVE",
"1110 1100 CURVE SMOOTH",
"1370 1100 OFFCURVE",
"1500 1229 OFFCURVE",
"1500 1486 CURVE SMOOTH",
"1500 1662 OFFCURVE",
"1437 1750 OFFCURVE",
"1310 1750 CURVE SMOOTH",
"1259 1750 OFFCURVE",
"1234 1737 OFFCURVE",
"1234 1712 CURVE SMOOTH",
"1234 1701 OFFCURVE",
"1239 1687 OFFCURVE",
"1250 1670 CURVE SMOOTH",
"1283 1617 OFFCURVE",
"1300 1555 OFFCURVE",
"1300 1486 CURVE SMOOTH",
"1300 1362 OFFCURVE",
"1237 1300 OFFCURVE",
"1110 1300 CURVE SMOOTH",
"957 1300 OFFCURVE",
"840 1333 OFFCURVE",
"758 1400 CURVE SMOOTH",
"675 1467 OFFCURVE",
"623 1500 OFFCURVE",
"602 1500 CURVE SMOOTH",
"581 1500 OFFCURVE",
"547 1479 OFFCURVE",
"501 1437 CURVE SMOOTH",
"293 1249 LINE SMOOTH",
"231 1193 OFFCURVE",
"200 1152 OFFCURVE",
"200 1126 CURVE SMOOTH",
"200 1099 OFFCURVE",
"225 1057 OFFCURVE",
"275 1000 CURVE",
"458 772 LINE",
"200 517 LINE",
"200 360 OFFCURVE",
"447 0 OFFCURVE",
"674 0 CURVE SMOOTH",
"1115 0 LINE SMOOTH",
"1304 0 OFFCURVE",
"1500 247 OFFCURVE",
"1500 490 CURVE SMOOTH"
);
}
);
width = 1800;
}
);
note = uni1790;
unicode = 1790;
},
{
glyphname = uni1791;
lastChange = "2021-04-30 13:13:23 +0000";
layers = (
{
layerId = "BB6B0684-34D4-4B80-99D1-F5F29B570554";
paths = (
{
closed = 1;
nodes = (
"200 405 OFFCURVE",
"254 284 OFFCURVE",
"362 155 CURVE",
"483 52 OFFCURVE",
"584 0 OFFCURVE",
"664 0 CURVE",
"951 225 LINE SMOOTH",
"1015 275 OFFCURVE",
"1086 300 OFFCURVE",
"1164 300 CURVE SMOOTH",
"1255 300 OFFCURVE",
"1300 267 OFFCURVE",
"1300 200 CURVE SMOOTH",
"1300 167 OFFCURVE",
"1278 131 OFFCURVE",
"1233 94 CURVE",
"1242 33 OFFCURVE",
"1289 3 OFFCURVE",
"1374 3 CURVE SMOOTH",
"1458 3 OFFCURVE",
"1500 69 OFFCURVE",
"1500 200 CURVE SMOOTH",
"1500 360 OFFCURVE",
"1357 500 OFFCURVE",
"1164 500 CURVE SMOOTH",
"1067 500 OFFCURVE",
"963 462 OFFCURVE",
"852 385 CURVE SMOOTH",
"630 235 LINE",
"537 276 OFFCURVE",
"473 349 OFFCURVE",
"439 453 CURVE",
"595 617 LINE",
"645 665 OFFCURVE",
"670 714 OFFCURVE",
"670 764 CURVE SMOOTH",
"670 864 OFFCURVE",
"548 1007 OFFCURVE",
"444 1071 CURVE",
"551 1224 OFFCURVE",
"655 1300 OFFCURVE",
"756 1300 CURVE SMOOTH",
"971 1300 LINE SMOOTH",
"1060 1300 OFFCURVE",
"1137 1278 OFFCURVE",
"1202 1234 CURVE SMOOTH",
"1268 1189 OFFCURVE",
"1302 1151 OFFCURVE",
"1303 1119 CURVE SMOOTH",
"1303 1118 LINE SMOOTH",
"1303 1086 OFFCURVE",
"1279 1070 OFFCURVE",
"1230 1070 CURVE SMOOTH",
"1183 1070 OFFCURVE",
"1160 1040 OFFCURVE",
"1160 980 CURVE SMOOTH",
"1160 970 LINE SMOOTH",
"1163 903 OFFCURVE",
"1220 870 OFFCURVE",
"1332 870 CURVE SMOOTH",
"1444 870 OFFCURVE",
"1500 953 OFFCURVE",
"1500 1119 CURVE SMOOTH",
"1500 1232 OFFCURVE",
"1448 1323 OFFCURVE",
"1344 1394 CURVE SMOOTH",
"1239 1465 OFFCURVE",
"1115 1500 OFFCURVE",
"971 1500 CURVE SMOOTH",
"756 1500 LINE SMOOTH",
"589 1500 OFFCURVE",
"433 1402 OFFCURVE",
"287 1205 CURVE SMOOTH",
"229 1128 OFFCURVE",
"200 1061 OFFCURVE",
"200 1006 CURVE",
"309 960 OFFCURVE",
"395 875 OFFCURVE",
"458 752 CURVE",
"200 517 LINE"
);
}
);
width = 1800;
}
);
note = uni1791;
unicode = 1791;
},
{
glyphname = uni1792;
lastChange = "2021-04-30 13:13:23 +0000";
layers = (
{
layerId = "BB6B0684-34D4-4B80-99D1-F5F29B570554";
paths = (
{
closed = 1;
nodes = (
"1115 1264 LINE",
"1193 1177 OFFCURVE",
"1262 1114 OFFCURVE",
"1322 1077 CURVE SMOOTH",
"1362 1052 OFFCURVE",
"1395 1040 OFFCURVE",
"1421 1040 CURVE SMOOTH",
"1434 1040 OFFCURVE",
"1446 1043 OFFCURVE",
"1456 1049 CURVE SMOOTH",
"1485 1068 OFFCURVE",
"1500 1096 OFFCURVE",
"1500 1133 CURVE SMOOTH",
"1500 1170 OFFCURVE",
"1473 1211 OFFCURVE",
"1419 1256 CURVE",
"1245 1419 OFFCURVE",
"1147 1500 OFFCURVE",
"1124 1500 CURVE SMOOTH",
"1101 1500 OFFCURVE",
"1019 1428 OFFCURVE",
"878 1284 CURVE",
"718 1428 OFFCURVE",
"627 1500 OFFCURVE",
"604 1500 CURVE SMOOTH",
"581 1500 OFFCURVE",
"478 1416 OFFCURVE",
"293 1249 CURVE SMOOTH",
"231 1193 OFFCURVE",
"200 1152 OFFCURVE",
"200 1126 CURVE SMOOTH",
"200 1099 OFFCURVE",
"225 1057 OFFCURVE",
"275 1000 CURVE",
"458 772 LINE",
"200 517 LINE",
"200 360 OFFCURVE",
"464 0 OFFCURVE",
"624 0 CURVE",
"889 206 LINE",
"1029 69 OFFCURVE",
"1121 0 OFFCURVE",
"1165 0 CURVE SMOOTH",
"1328 0 OFFCURVE",
"1500 273 OFFCURVE",
"1500 414 CURVE SMOOTH",
"1500 471 OFFCURVE",
"1486 500 OFFCURVE",
"1457 500 CURVE SMOOTH",
"1398 500 OFFCURVE",
"1324 443 OFFCURVE",
"1256 327 CURVE SMOOTH",
"1221 269 OFFCURVE",
"1190 240 OFFCURVE",
"1163 240 CURVE",
"923 499 LINE",
"620 265 LINE",
"540 306 OFFCURVE",
"483 376 OFFCURVE",
"449 473 CURVE",
"612 645 LINE SMOOTH",
"651 688 OFFCURVE",
"670 734 OFFCURVE",
"670 784 CURVE SMOOTH",
"670 834 OFFCURVE",
"645 886 OFFCURVE",
"596 941 CURVE SMOOTH",
"547 996 OFFCURVE",
"488 1050 OFFCURVE",
"420 1104 CURVE",
"621 1270 LINE",
"878 1031 LINE"
);
}
);
width = 1800;
}
);
note = uni1792;
unicode = 1792;
},
{
glyphname = uni1793;
lastChange = "2021-04-30 13:13:23 +0000";
layers = (
{
layerId = "BB6B0684-34D4-4B80-99D1-F5F29B570554";
paths = (
{
closed = 1;
nodes = (
"743 250 OFFCURVE",
"801 219 OFFCURVE",
"841 156 CURVE SMOOTH",
"908 52 OFFCURVE",
"999 0 OFFCURVE",
"1113 0 CURVE SMOOTH",
"1301 0 OFFCURVE",
"1500 249 OFFCURVE",
"1500 364 CURVE SMOOTH",
"1500 421 OFFCURVE",
"1483 450 OFFCURVE",
"1450 450 CURVE SMOOTH",
"1384 450 OFFCURVE",
"1311 336 OFFCURVE",
"1241 262 CURVE SMOOTH",
"1201 221 OFFCURVE",
"1158 200 OFFCURVE",
"1111 200 CURVE SMOOTH",
"1044 200 OFFCURVE",
"999 221 OFFCURVE",
"974 263 CURVE SMOOTH",
"900 388 OFFCURVE",
"796 450 OFFCURVE",
"663 450 CURVE SMOOTH",
"550 450 LINE",
"550 900 LINE SMOOTH",
"550 1017 OFFCURVE",
"515 1090 OFFCURVE",
"445 1121 CURVE",
"728 1238 OFFCURVE",
"878 1297 OFFCURVE",
"895 1297 CURVE SMOOTH",
"912 1297 OFFCURVE",
"1047 1231 OFFCURVE",
"1300 1098 CURVE",
"1300 1033 OFFCURVE",
"1275 1000 OFFCURVE",
"1225 1000 CURVE SMOOTH",
"1175 1000 OFFCURVE",
"1150 967 OFFCURVE",
"1150 900 CURVE SMOOTH",
"1150 833 OFFCURVE",
"1208 800 OFFCURVE",
"1325 800 CURVE SMOOTH",
"1442 800 OFFCURVE",
"1500 887 OFFCURVE",
"1500 1060 CURVE SMOOTH",
"1500 1148 LINE SMOOTH",
"1500 1200 OFFCURVE",
"1473 1239 OFFCURVE",
"1419 1265 CURVE SMOOTH",
"1086 1422 OFFCURVE",
"912 1500 OFFCURVE",
"895 1500 CURVE SMOOTH",
"878 1500 OFFCURVE",
"670 1422 OFFCURVE",
"271 1265 CURVE",
"224 1239 OFFCURVE",
"200 1180 OFFCURVE",
"200 1088 CURVE",
"267 1087 OFFCURVE",
"317 1024 OFFCURVE",
"350 900 CURVE",
"350 450 LINE",
"250 450 OFFCURVE",
"200 410 OFFCURVE",
"200 330 CURVE SMOOTH",
"200 169 OFFCURVE",
"317 0 OFFCURVE",
"450 0 CURVE SMOOTH",
"517 0 OFFCURVE",
"550 42 OFFCURVE",
"550 125 CURVE SMOOTH",
"550 250 LINE",
"666 250 LINE SMOOTH"
);
}
);
width = 1800;
}
);
note = uni1793;
unicode = 1793;
},
{
glyphname = uni1794;
lastChange = "2021-04-30 13:13:23 +0000";
layers = (
{
layerId = "BB6B0684-34D4-4B80-99D1-F5F29B570554";
paths = (
{
closed = 1;
nodes = (
"645 665 OFFCURVE",
"670 714 OFFCURVE",
"670 764 CURVE SMOOTH",
"670 864 OFFCURVE",
"566 993 OFFCURVE",
"391 1114 CURVE",
"489 1249 LINE",
"588 1197 OFFCURVE",
"663 1171 OFFCURVE",
"714 1171 CURVE SMOOTH",
"727 1171 OFFCURVE",
"738 1173 OFFCURVE",
"748 1176 CURVE SMOOTH",
"796 1192 OFFCURVE",
"827 1248 OFFCURVE",
"840 1343 CURVE",
"831 1339 OFFCURVE",
"821 1337 OFFCURVE",
"809 1337 CURVE SMOOTH",
"746 1337 OFFCURVE",
"635 1391 OFFCURVE",
"476 1500 CURVE",
"150 1022 LINE",
"283 982 OFFCURVE",
"386 892 OFFCURVE",
"458 752 CURVE",
"150 476 LINE",
"190 255 OFFCURVE",
"504 0 OFFCURVE",
"664 0 CURVE SMOOTH",
"1050 0 LINE",
"1323 67 OFFCURVE",
"1473 233 OFFCURVE",
"1500 500 CURVE",
"1500 896 LINE",
"1487 1013 OFFCURVE",
"1420 1099 OFFCURVE",
"1301 1154 CURVE",
"1379 1249 LINE",
"1473 1197 OFFCURVE",
"1543 1171 OFFCURVE",
"1588 1171 CURVE SMOOTH",
"1599 1171 OFFCURVE",
"1609 1173 OFFCURVE",
"1618 1176 CURVE SMOOTH",
"1659 1192 OFFCURVE",
"1687 1248 OFFCURVE",
"1700 1343 CURVE",
"1691 1339 OFFCURVE",
"1681 1337 OFFCURVE",
"1670 1337 CURVE SMOOTH",
"1609 1337 OFFCURVE",
"1508 1391 OFFCURVE",
"1366 1500 CURVE",
"1040 1052 LINE",
"1187 1025 OFFCURVE",
"1273 967 OFFCURVE",
"1300 876 CURVE",
"1300 500 LINE",
"1267 353 OFFCURVE",
"1183 253 OFFCURVE",
"1050 200 CURVE",
"664 200 LINE",
"548 265 OFFCURVE",
"464 341 OFFCURVE",
"411 429 CURVE",
"595 617 LINE SMOOTH"
);
}
);
width = 1800;
}
);
note = uni1794;
unicode = 1794;
},
{
glyphname = uni1795;
lastChange = "2021-04-30 13:13:23 +0000";
layers = (
{
layerId = "BB6B0684-34D4-4B80-99D1-F5F29B570554";
paths = (
{
closed = 1;
nodes = (
"1328 0 OFFCURVE",
"1500 247 OFFCURVE",
"1500 490 CURVE SMOOTH",
"1500 690 OFFCURVE",
"1413 790 OFFCURVE",
"1240 790 CURVE SMOOTH",
"1113 790 OFFCURVE",
"1050 737 OFFCURVE",
"1050 630 CURVE SMOOTH",
"1050 583 OFFCURVE",
"1080 550 OFFCURVE",
"1140 530 CURVE",
"1167 570 OFFCURVE",
"1200 590 OFFCURVE",
"1240 590 CURVE SMOOTH",
"1280 590 OFFCURVE",
"1300 557 OFFCURVE",
"1300 490 CURVE",
"1301 484 OFFCURVE",
"1301 478 OFFCURVE",
"1301 472 CURVE SMOOTH",
"1301 427 OFFCURVE",
"1286 378 OFFCURVE",
"1256 327 CURVE SMOOTH",
"1221 269 OFFCURVE",
"1190 240 OFFCURVE",
"1163 240 CURVE",
"923 499 LINE",
"620 265 LINE",
"540 306 OFFCURVE",
"483 376 OFFCURVE",
"449 473 CURVE",
"612 645 LINE SMOOTH",
"651 688 OFFCURVE",
"670 734 OFFCURVE",
"670 784 CURVE SMOOTH",
"670 834 OFFCURVE",
"645 886 OFFCURVE",
"596 941 CURVE SMOOTH",
"450 1104 LINE",
"610 1250 LINE",
"755 1150 OFFCURVE",
"922 1100 OFFCURVE",
"1110 1100 CURVE SMOOTH",
"1370 1100 OFFCURVE",
"1500 1229 OFFCURVE",
"1500 1486 CURVE SMOOTH",
"1500 1662 OFFCURVE",
"1437 1750 OFFCURVE",
"1310 1750 CURVE SMOOTH",
"1259 1750 OFFCURVE",
"1234 1737 OFFCURVE",
"1234 1712 CURVE SMOOTH",
"1234 1701 OFFCURVE",
"1239 1687 OFFCURVE",
"1250 1670 CURVE SMOOTH",
"1283 1617 OFFCURVE",
"1300 1555 OFFCURVE",
"1300 1486 CURVE SMOOTH",
"1300 1362 OFFCURVE",
"1237 1300 OFFCURVE",
"1110 1300 CURVE SMOOTH",
"957 1300 OFFCURVE",
"840 1333 OFFCURVE",
"758 1400 CURVE SMOOTH",
"675 1467 OFFCURVE",
"623 1500 OFFCURVE",
"602 1500 CURVE SMOOTH",
"581 1500 OFFCURVE",
"547 1479 OFFCURVE",
"501 1437 CURVE SMOOTH",
"293 1249 LINE SMOOTH",
"231 1193 OFFCURVE",
"200 1152 OFFCURVE",
"200 1126 CURVE SMOOTH",
"200 1099 OFFCURVE",
"225 1057 OFFCURVE",
"275 1000 CURVE",
"458 772 LINE",
"200 517 LINE",
"200 360 OFFCURVE",
"464 0 OFFCURVE",
"624 0 CURVE",
"889 206 LINE",
"1029 69 OFFCURVE",
"1121 0 OFFCURVE",
"1165 0 CURVE SMOOTH"
);
}
);
width = 1800;
}
);
note = uni1795;
unicode = 1795;
},
{
glyphname = uni1796;
lastChange = "2021-04-30 13:13:23 +0000";
layers = (
{
layerId = "BB6B0684-34D4-4B80-99D1-F5F29B570554";
paths = (
{
closed = 1;
nodes = (
"1500 1186 OFFCURVE",
"1470 1236 OFFCURVE",
"1411 1285 CURVE SMOOTH",
"1152 1500 LINE",
"899 1322 LINE",
"645 1500 LINE",
"387 1285 LINE SMOOTH",
"329 1236 OFFCURVE",
"300 1186 OFFCURVE",
"300 1135 CURVE SMOOTH",
"300 370 LINE SMOOTH",
"300 203 OFFCURVE",
"458 0 OFFCURVE",
"587 0 CURVE SMOOTH",
"728 0 OFFCURVE",
"870 193 OFFCURVE",
"870 400 CURVE SMOOTH",
"870 580 OFFCURVE",
"782 670 OFFCURVE",
"607 670 CURVE SMOOTH",
"556 670 OFFCURVE",
"521 655 OFFCURVE",
"500 626 CURVE",
"500 1103 LINE",
"659 1235 LINE",
"899 1070 LINE",
"1139 1235 LINE",
"1300 1103 LINE",
"1300 500 LINE SMOOTH",
"1300 447 OFFCURVE",
"1275 396 OFFCURVE",
"1225 348 CURVE SMOOTH",
"1175 300 OFFCURVE",
"1150 248 OFFCURVE",
"1150 193 CURVE SMOOTH",
"1150 82 OFFCURVE",
"1310 0 OFFCURVE",
"1419 0 CURVE SMOOTH",
"1473 0 OFFCURVE",
"1500 33 OFFCURVE",
"1500 100 CURVE SMOOTH",
"1500 1135 LINE SMOOTH"
);
},
{
closed = 1;
nodes = (
"500 443 OFFCURVE",
"536 480 OFFCURVE",
"607 480 CURVE SMOOTH",
"649 480 OFFCURVE",
"670 453 OFFCURVE",
"670 400 CURVE SMOOTH",
"670 325 OFFCURVE",
"635 200 OFFCURVE",
"587 200 CURVE",
"542 220 OFFCURVE",
"513 277 OFFCURVE",
"500 370 CURVE"
);
}
);
width = 1800;
}
);
note = uni1796;
unicode = 1796;
},
{
glyphname = uni1797;
lastChange = "2021-04-30 13:13:23 +0000";
layers = (
{
layerId = "BB6B0684-34D4-4B80-99D1-F5F29B570554";
paths = (
{
closed = 1;
nodes = (
"487 1109 LINE",
"437 1189 LINE",
"589 1290 LINE",
"897 1181 LINE",
"1163 1307 LINE",
"1262 1242 OFFCURVE",
"1341 1199 OFFCURVE",
"1402 1179 CURVE SMOOTH",
"1411 1176 OFFCURVE",
"1421 1174 OFFCURVE",
"1430 1174 CURVE SMOOTH",
"1482 1174 OFFCURVE",
"1539 1223 OFFCURVE",
"1600 1320 CURVE",
"1483 1359 OFFCURVE",
"1388 1399 OFFCURVE",
"1317 1440 CURVE SMOOTH",
"1245 1480 OFFCURVE",
"1197 1500 OFFCURVE",
"1173 1500 CURVE SMOOTH",
"1148 1500 OFFCURVE",
"1056 1465 OFFCURVE",
"897 1394 CURVE",
"704 1465 OFFCURVE",
"595 1500 OFFCURVE",
"570 1500 CURVE SMOOTH",
"546 1500 OFFCURVE",
"506 1480 OFFCURVE",
"450 1440 CURVE SMOOTH",
"200 1270 LINE",
"200 1215 LINE",
"373 1051 LINE"
);
},
{
closed = 1;
nodes = (
"900 937 LINE",
"1300 738 LINE",
"1300 500 LINE SMOOTH",
"1300 447 OFFCURVE",
"1275 396 OFFCURVE",
"1225 348 CURVE SMOOTH",
"1175 300 OFFCURVE",
"1150 248 OFFCURVE",
"1150 193 CURVE SMOOTH",
"1150 82 OFFCURVE",
"1310 0 OFFCURVE",
"1419 0 CURVE SMOOTH",
"1473 0 OFFCURVE",
"1500 33 OFFCURVE",
"1500 100 CURVE SMOOTH",
"1500 788 LINE SMOOTH",
"1500 840 OFFCURVE",
"1475 879 OFFCURVE",
"1425 905 CURVE SMOOTH",
"900 1160 LINE",
"375 905 LINE SMOOTH",
"325 879 OFFCURVE",
"300 840 OFFCURVE",
"300 788 CURVE",
"385 735 OFFCURVE",
"428 673 OFFCURVE",
"428 600 CURVE SMOOTH",
"428 480 LINE SMOOTH",
"428 347 OFFCURVE",
"369 252 OFFCURVE",
"250 196 CURVE",
"250 65 OFFCURVE",
"299 0 OFFCURVE",
"396 0 CURVE SMOOTH",
"523 0 OFFCURVE",
"628 120 OFFCURVE",
"628 400 CURVE SMOOTH",
"628 600 LINE SMOOTH",
"628 673 OFFCURVE",
"603 727 OFFCURVE",
"554 763 CURVE"
);
}
);
width = 1800;
}
);
note = uni1797;
unicode = 1797;
},
{
glyphname = uni1798;
lastChange = "2021-04-30 13:13:23 +0000";
layers = (
{
layerId = "BB6B0684-34D4-4B80-99D1-F5F29B570554";
paths = (
{
closed = 1;
nodes = (
"638 872 OFFCURVE",
"620 901 OFFCURVE",
"596 931 CURVE SMOOTH",
"547 992 OFFCURVE",
"478 1053 OFFCURVE",
"391 1114 CURVE",
"489 1249 LINE",
"588 1197 OFFCURVE",
"663 1171 OFFCURVE",
"714 1171 CURVE SMOOTH",
"727 1171 OFFCURVE",
"738 1173 OFFCURVE",
"748 1176 CURVE SMOOTH",
"796 1192 OFFCURVE",
"827 1248 OFFCURVE",
"840 1343 CURVE",
"831 1339 OFFCURVE",
"821 1337 OFFCURVE",
"809 1337 CURVE SMOOTH",
"746 1337 OFFCURVE",
"635 1391 OFFCURVE",
"476 1500 CURVE",
"150 1022 LINE",
"283 982 OFFCURVE",
"386 892 OFFCURVE",
"458 752 CURVE",
"150 476 LINE",
"190 255 OFFCURVE",
"504 0 OFFCURVE",
"664 0 CURVE SMOOTH",
"1050 0 LINE",
"1323 67 OFFCURVE",
"1473 233 OFFCURVE",
"1500 500 CURVE",
"1500 896 LINE",
"1487 1013 OFFCURVE",
"1420 1099 OFFCURVE",
"1301 1154 CURVE",
"1379 1249 LINE",
"1473 1197 OFFCURVE",
"1543 1171 OFFCURVE",
"1588 1171 CURVE SMOOTH",
"1599 1171 OFFCURVE",
"1609 1173 OFFCURVE",
"1618 1176 CURVE SMOOTH",
"1659 1192 OFFCURVE",
"1687 1248 OFFCURVE",
"1700 1343 CURVE",
"1691 1339 OFFCURVE",
"1681 1337 OFFCURVE",
"1670 1337 CURVE SMOOTH",
"1609 1337 OFFCURVE",
"1508 1391 OFFCURVE",
"1366 1500 CURVE",
"1040 1052 LINE",
"1187 1025 OFFCURVE",
"1273 967 OFFCURVE",
"1300 876 CURVE",
"1300 845 LINE",
"651 845 LINE"
);
},
{
closed = 1;
nodes = (
"1267 353 OFFCURVE",
"1183 253 OFFCURVE",
"1050 200 CURVE",
"664 200 LINE",
"548 265 OFFCURVE",
"464 341 OFFCURVE",
"411 429 CURVE",
"595 617 LINE SMOOTH",
"605 626 OFFCURVE",
"614 636 OFFCURVE",
"621 645 CURVE",
"1300 645 LINE",
"1300 500 LINE"
);
}
);
width = 1800;
}
);
note = uni1798;
unicode = 1798;
},
{
glyphname = uni1799;
lastChange = "2021-04-30 13:13:23 +0000";
layers = (
{
layerId = "BB6B0684-34D4-4B80-99D1-F5F29B570554";
paths = (
{
closed = 1;
nodes = (
"1541 62 OFFCURVE",
"1640 0 OFFCURVE",
"1724 0 CURVE SMOOTH",
"2030 0 LINE",
"2283 67 OFFCURVE",
"2423 233 OFFCURVE",
"2450 500 CURVE",
"2450 896 LINE",
"2437 1013 OFFCURVE",
"2370 1099 OFFCURVE",
"2251 1154 CURVE",
"2329 1249 LINE",
"2423 1197 OFFCURVE",
"2493 1171 OFFCURVE",
"2538 1171 CURVE SMOOTH",
"2549 1171 OFFCURVE",
"2559 1173 OFFCURVE",
"2568 1176 CURVE SMOOTH",
"2609 1192 OFFCURVE",
"2637 1248 OFFCURVE",
"2650 1343 CURVE",
"2641 1339 OFFCURVE",
"2631 1337 OFFCURVE",
"2620 1337 CURVE SMOOTH",
"2559 1337 OFFCURVE",
"2458 1391 OFFCURVE",
"2316 1500 CURVE",
"1990 1052 LINE",
"2137 1025 OFFCURVE",
"2223 967 OFFCURVE",
"2250 876 CURVE",
"2250 500 LINE",
"2217 353 OFFCURVE",
"2133 253 OFFCURVE",
"2000 200 CURVE",
"1764 200 LINE",
"1668 254 OFFCURVE",
"1590 318 OFFCURVE",
"1531 393 CURVE",
"1540 426 OFFCURVE",
"1546 462 OFFCURVE",
"1550 500 CURVE",
"1550 896 LINE",
"1537 1013 OFFCURVE",
"1470 1099 OFFCURVE",
"1351 1154 CURVE",
"1429 1249 LINE",
"1523 1197 OFFCURVE",
"1593 1171 OFFCURVE",
"1638 1171 CURVE SMOOTH",
"1649 1171 OFFCURVE",
"1659 1173 OFFCURVE",
"1668 1176 CURVE SMOOTH",
"1709 1192 OFFCURVE",
"1737 1248 OFFCURVE",
"1750 1343 CURVE",
"1741 1339 OFFCURVE",
"1731 1337 OFFCURVE",
"1720 1337 CURVE SMOOTH",
"1659 1337 OFFCURVE",
"1558 1391 OFFCURVE",
"1416 1500 CURVE",
"1090 1052 LINE",
"1237 1025 OFFCURVE",
"1323 967 OFFCURVE",
"1350 876 CURVE",
"1350 500 LINE",
"1317 353 OFFCURVE",
"1233 253 OFFCURVE",
"1100 200 CURVE",
"744 200 LINE",
"648 265 OFFCURVE",
"567 351 OFFCURVE",
"500 459 CURVE",
"500 1006 LINE SMOOTH",
"500 1087 OFFCURVE",
"562 1160 OFFCURVE",
"687 1223 CURVE SMOOTH",
"788 1275 OFFCURVE",
"839 1326 OFFCURVE",
"839 1375 CURVE SMOOTH",
"839 1386 OFFCURVE",
"836 1398 OFFCURVE",
"831 1409 CURVE SMOOTH",
"803 1470 OFFCURVE",
"760 1500 OFFCURVE",
"701 1500 CURVE SMOOTH",
"584 1500 OFFCURVE",
"300 1178 OFFCURVE",
"300 1009 CURVE SMOOTH",
"300 476 LINE SMOOTH",
"300 255 OFFCURVE",
"584 0 OFFCURVE",
"744 0 CURVE SMOOTH",
"1100 0 LINE",
"1243 35 OFFCURVE",
"1352 97 OFFCURVE",
"1427 186 CURVE"
);
}
);
width = 2750;
}
);
note = uni1799;
unicode = 1799;
},
{
glyphname = uni179A;
lastChange = "2021-04-30 13:13:23 +0000";
layers = (
{
layerId = "BB6B0684-34D4-4B80-99D1-F5F29B570554";
paths = (
{
closed = 1;
nodes = (
"550 1023 OFFCURVE",
"500 1086 OFFCURVE",
"401 1134 CURVE",
"459 1219 LINE",
"523 1180 OFFCURVE",
"578 1160 OFFCURVE",
"624 1160 CURVE SMOOTH",
"661 1160 OFFCURVE",
"693 1174 OFFCURVE",
"718 1201 CURVE SMOOTH",
"773 1260 OFFCURVE",
"800 1331 OFFCURVE",
"800 1413 CURVE",
"756 1375 OFFCURVE",
"711 1356 OFFCURVE",
"665 1356 CURVE SMOOTH",
"592 1356 OFFCURVE",
"515 1404 OFFCURVE",
"436 1500 CURVE",
"150 1052 LINE",
"283 1025 OFFCURVE",
"350 967 OFFCURVE",
"350 876 CURVE SMOOTH",
"350 500 LINE SMOOTH",
"350 440 OFFCURVE",
"317 382 OFFCURVE",
"250 325 CURVE SMOOTH",
"183 268 OFFCURVE",
"150 215 OFFCURVE",
"150 165 CURVE SMOOTH",
"150 55 OFFCURVE",
"188 0 OFFCURVE",
"265 0 CURVE SMOOTH",
"335 0 OFFCURVE",
"400 37 OFFCURVE",
"460 110 CURVE SMOOTH",
"520 183 OFFCURVE",
"550 310 OFFCURVE",
"550 490 CURVE SMOOTH",
"550 946 LINE SMOOTH"
);
}
);
width = 850;
}
);
note = uni179A;
unicode = 179A;
},
{
glyphname = uni179B;
lastChange = "2021-04-30 13:13:23 +0000";
layers = (
{
layerId = "BB6B0684-34D4-4B80-99D1-F5F29B570554";
paths = (
{
closed = 1;
nodes = (
"1359 903 OFFCURVE",
"1388 858 OFFCURVE",
"1388 813 CURVE SMOOTH",
"1388 812 LINE",
"1102 528 LINE",
"1142 307 OFFCURVE",
"1384 0 OFFCURVE",
"1624 0 CURVE SMOOTH",
"1990 0 LINE",
"2237 67 OFFCURVE",
"2373 233 OFFCURVE",
"2400 500 CURVE",
"2400 896 LINE",
"2387 1013 OFFCURVE",
"2320 1099 OFFCURVE",
"2201 1154 CURVE",
"2279 1249 LINE",
"2373 1197 OFFCURVE",
"2443 1171 OFFCURVE",
"2488 1171 CURVE SMOOTH",
"2499 1171 OFFCURVE",
"2509 1173 OFFCURVE",
"2518 1176 CURVE SMOOTH",
"2559 1192 OFFCURVE",
"2587 1248 OFFCURVE",
"2600 1343 CURVE",
"2591 1339 OFFCURVE",
"2581 1337 OFFCURVE",
"2570 1337 CURVE SMOOTH",
"2509 1337 OFFCURVE",
"2408 1391 OFFCURVE",
"2266 1500 CURVE",
"1940 1052 LINE",
"2087 1025 OFFCURVE",
"2173 967 OFFCURVE",
"2200 876 CURVE",
"2200 500 LINE",
"2167 353 OFFCURVE",
"2097 253 OFFCURVE",
"1990 200 CURVE",
"1624 200 LINE",
"1509 278 OFFCURVE",
"1422 372 OFFCURVE",
"1363 481 CURVE",
"1528 654 LINE SMOOTH",
"1576 704 OFFCURVE",
"1600 761 OFFCURVE",
"1600 824 CURVE SMOOTH",
"1600 901 OFFCURVE",
"1516 1019 OFFCURVE",
"1425 1094 CURVE",
"900 1500 LINE",
"375 1094 LINE SMOOTH",
"325 1053 OFFCURVE",
"300 991 OFFCURVE",
"300 908 CURVE SMOOTH",
"300 290 LINE SMOOTH",
"300 103 OFFCURVE",
"405 0 OFFCURVE",
"532 0 CURVE SMOOTH",
"595 0 OFFCURVE",
"640 44 OFFCURVE",
"667 133 CURVE SMOOTH",
"674 158 OFFCURVE",
"678 181 OFFCURVE",
"678 203 CURVE SMOOTH",
"678 261 OFFCURVE",
"653 311 OFFCURVE",
"604 353 CURVE SMOOTH",
"535 411 OFFCURVE",
"500 453 OFFCURVE",
"500 480 CURVE SMOOTH",
"500 948 LINE",
"900 1265 LINE",
"1300 948 LINE SMOOTH"
);
}
);
width = 2700;
}
);
note = uni179B;
unicode = 179B;
},
{
glyphname = uni179C;
lastChange = "2021-04-30 13:13:23 +0000";
layers = (
{
layerId = "BB6B0684-34D4-4B80-99D1-F5F29B570554";
paths = (
{
closed = 1;
nodes = (
"350 440 OFFCURVE",
"317 382 OFFCURVE",
"250 325 CURVE SMOOTH",
"183 268 OFFCURVE",
"150 215 OFFCURVE",
"150 165 CURVE SMOOTH",
"150 55 OFFCURVE",
"188 0 OFFCURVE",
"265 0 CURVE SMOOTH",
"335 0 OFFCURVE",
"400 37 OFFCURVE",
"460 110 CURVE SMOOTH",
"520 183 OFFCURVE",
"550 310 OFFCURVE",
"550 490 CURVE SMOOTH",
"550 946 LINE SMOOTH",
"550 1023 OFFCURVE",
"500 1086 OFFCURVE",
"401 1134 CURVE",
"459 1219 LINE",
"528 1177 OFFCURVE",
"586 1156 OFFCURVE",
"633 1156 CURVE SMOOTH",
"666 1156 OFFCURVE",
"695 1167 OFFCURVE",
"718 1188 CURVE SMOOTH",
"773 1239 OFFCURVE",
"800 1322 OFFCURVE",
"800 1435 CURVE SMOOTH",
"800 1595 OFFCURVE",
"741 1717 OFFCURVE",
"623 1800 CURVE",
"638 1676 OFFCURVE",
"645 1579 OFFCURVE",
"645 1509 CURVE SMOOTH",
"645 1417 OFFCURVE",
"633 1371 OFFCURVE",
"608 1371 CURVE SMOOTH",
"607 1371 OFFCURVE",
"605 1371 OFFCURVE",
"604 1372 CURVE",
"557 1379 OFFCURVE",
"501 1422 OFFCURVE",
"436 1500 CURVE",
"150 1052 LINE",
"283 1025 OFFCURVE",
"350 967 OFFCURVE",
"350 876 CURVE SMOOTH",
"350 500 LINE SMOOTH"
);
}
);
width = 850;
}
);
note = uni179C;
unicode = 179C;
},
{
glyphname = uni179D;
lastChange = "2021-04-30 13:13:23 +0000";
layers = (
{
layerId = "BB6B0684-34D4-4B80-99D1-F5F29B570554";
paths = (
{
closed = 1;
nodes = (
"487 1109 LINE",
"437 1189 LINE",
"589 1290 LINE",
"897 1181 LINE",
"1163 1307 LINE",
"1262 1242 OFFCURVE",
"1341 1199 OFFCURVE",
"1402 1179 CURVE SMOOTH",
"1411 1176 OFFCURVE",
"1421 1174 OFFCURVE",
"1430 1174 CURVE SMOOTH",
"1482 1174 OFFCURVE",
"1539 1223 OFFCURVE",
"1600 1320 CURVE",
"1483 1359 OFFCURVE",
"1388 1399 OFFCURVE",
"1317 1440 CURVE SMOOTH",
"1245 1480 OFFCURVE",
"1197 1500 OFFCURVE",
"1173 1500 CURVE SMOOTH",
"1148 1500 OFFCURVE",
"1056 1465 OFFCURVE",
"897 1394 CURVE",
"704 1465 OFFCURVE",
"595 1500 OFFCURVE",
"570 1500 CURVE SMOOTH",
"546 1500 OFFCURVE",
"506 1480 OFFCURVE",
"450 1440 CURVE SMOOTH",
"200 1270 LINE",
"200 1215 LINE",
"373 1051 LINE"
);
},
{
closed = 1;
nodes = (
"1297 466 LINE",
"1288 425 OFFCURVE",
"1264 386 OFFCURVE",
"1225 348 CURVE SMOOTH",
"1175 300 OFFCURVE",
"1150 248 OFFCURVE",
"1150 193 CURVE SMOOTH",
"1150 82 OFFCURVE",
"1310 0 OFFCURVE",
"1419 0 CURVE SMOOTH",
"1473 0 OFFCURVE",
"1500 33 OFFCURVE",
"1500 100 CURVE SMOOTH",
"1500 466 LINE",
"1700 466 LINE",
"1700 666 LINE",
"1500 666 LINE",
"1500 788 LINE SMOOTH",
"1500 840 OFFCURVE",
"1475 879 OFFCURVE",
"1425 905 CURVE SMOOTH",
"900 1160 LINE",
"375 905 LINE SMOOTH",
"325 879 OFFCURVE",
"300 840 OFFCURVE",
"300 788 CURVE SMOOTH",
"300 290 LINE SMOOTH",
"300 103 OFFCURVE",
"405 0 OFFCURVE",
"532 0 CURVE SMOOTH",
"595 0 OFFCURVE",
"640 44 OFFCURVE",
"667 133 CURVE SMOOTH",
"674 158 OFFCURVE",
"678 181 OFFCURVE",
"678 203 CURVE SMOOTH",
"678 261 OFFCURVE",
"653 311 OFFCURVE",
"604 353 CURVE SMOOTH",
"535 411 OFFCURVE",
"500 453 OFFCURVE",
"500 480 CURVE SMOOTH",
"500 738 LINE",
"900 937 LINE",
"1300 738 LINE",
"1300 666 LINE",
"1100 666 LINE",
"1100 466 LINE"
);
}
);
width = 1800;
}
);
note = uni179D;
unicode = 179D;
},
{
glyphname = uni179E;
lastChange = "2021-04-30 13:13:23 +0000";
layers = (
{
layerId = "BB6B0684-34D4-4B80-99D1-F5F29B570554";
paths = (
{
closed = 1;
nodes = (
"1500 796 LINE",
"1500 896 LINE",
"1487 1013 OFFCURVE",
"1420 1099 OFFCURVE",
"1301 1154 CURVE",
"1379 1249 LINE",
"1473 1197 OFFCURVE",
"1543 1171 OFFCURVE",
"1588 1171 CURVE SMOOTH",
"1599 1171 OFFCURVE",
"1609 1173 OFFCURVE",
"1618 1176 CURVE SMOOTH",
"1659 1192 OFFCURVE",
"1687 1248 OFFCURVE",
"1700 1343 CURVE",
"1691 1339 OFFCURVE",
"1681 1337 OFFCURVE",
"1670 1337 CURVE SMOOTH",
"1609 1337 OFFCURVE",
"1508 1391 OFFCURVE",
"1366 1500 CURVE",
"1040 1052 LINE",
"1187 1025 OFFCURVE",
"1273 967 OFFCURVE",
"1300 876 CURVE",
"1300 796 LINE",
"1100 796 LINE",
"1100 596 LINE",
"1300 596 LINE",
"1300 500 LINE",
"1267 353 OFFCURVE",
"1183 253 OFFCURVE",
"1050 200 CURVE",
"664 200 LINE",
"548 265 OFFCURVE",
"464 341 OFFCURVE",
"411 429 CURVE",
"595 617 LINE SMOOTH",
"645 665 OFFCURVE",
"670 714 OFFCURVE",
"670 764 CURVE SMOOTH",
"670 864 OFFCURVE",
"566 993 OFFCURVE",
"391 1114 CURVE",
"489 1249 LINE",
"588 1197 OFFCURVE",
"663 1171 OFFCURVE",
"714 1171 CURVE SMOOTH",
"727 1171 OFFCURVE",
"738 1173 OFFCURVE",
"748 1176 CURVE SMOOTH",
"796 1192 OFFCURVE",
"827 1248 OFFCURVE",
"840 1343 CURVE",
"831 1339 OFFCURVE",
"821 1337 OFFCURVE",
"809 1337 CURVE SMOOTH",
"746 1337 OFFCURVE",
"635 1391 OFFCURVE",
"476 1500 CURVE",
"150 1022 LINE",
"283 982 OFFCURVE",
"386 892 OFFCURVE",
"458 752 CURVE",
"150 476 LINE",
"190 255 OFFCURVE",
"504 0 OFFCURVE",
"664 0 CURVE SMOOTH",
"1050 0 LINE",
"1323 67 OFFCURVE",
"1473 233 OFFCURVE",
"1500 500 CURVE",
"1500 596 LINE",
"1700 596 LINE",
"1700 796 LINE"
);
}
);
width = 1800;
}
);
note = uni179E;
unicode = 179E;
},
{
glyphname = uni179F;
lastChange = "2021-04-30 13:13:23 +0000";
layers = (
{
layerId = "BB6B0684-34D4-4B80-99D1-F5F29B570554";
paths = (
{
closed = 1;
nodes = (
"1039 1010 OFFCURVE",
"974 1015 OFFCURVE",
"913 1015 CURVE SMOOTH",
"762 1015 OFFCURVE",
"634 986 OFFCURVE",
"527 929 CURVE SMOOTH",
"376 847 OFFCURVE",
"300 737 OFFCURVE",
"300 600 CURVE SMOOTH",
"300 290 LINE SMOOTH",
"300 103 OFFCURVE",
"485 0 OFFCURVE",
"612 0 CURVE SMOOTH",
"675 0 OFFCURVE",
"710 43 OFFCURVE",
"717 128 CURVE SMOOTH",
"718 135 OFFCURVE",
"718 141 OFFCURVE",
"718 148 CURVE SMOOTH",
"718 223 OFFCURVE",
"683 278 OFFCURVE",
"614 313 CURVE SMOOTH",
"538 351 OFFCURVE",
"500 447 OFFCURVE",
"500 600 CURVE SMOOTH",
"500 685 OFFCURVE",
"570 755 OFFCURVE",
"710 808 CURVE SMOOTH",
"757 825 OFFCURVE",
"809 834 OFFCURVE",
"867 834 CURVE SMOOTH",
"982 834 OFFCURVE",
"1120 799 OFFCURVE",
"1280 728 CURVE",
"1130 476 LINE",
"1130 255 OFFCURVE",
"1494 0 OFFCURVE",
"1654 0 CURVE SMOOTH",
"1960 0 LINE",
"2227 67 OFFCURVE",
"2373 233 OFFCURVE",
"2400 500 CURVE",
"2400 896 LINE",
"2387 1013 OFFCURVE",
"2320 1099 OFFCURVE",
"2201 1154 CURVE",
"2279 1249 LINE",
"2373 1197 OFFCURVE",
"2443 1171 OFFCURVE",
"2488 1171 CURVE SMOOTH",
"2499 1171 OFFCURVE",
"2509 1173 OFFCURVE",
"2518 1176 CURVE SMOOTH",
"2559 1192 OFFCURVE",
"2587 1248 OFFCURVE",
"2600 1343 CURVE",
"2591 1339 OFFCURVE",
"2581 1337 OFFCURVE",
"2570 1337 CURVE SMOOTH",
"2509 1337 OFFCURVE",
"2408 1391 OFFCURVE",
"2266 1500 CURVE",
"1940 1052 LINE",
"2087 1025 OFFCURVE",
"2173 967 OFFCURVE",
"2200 876 CURVE",
"2200 500 LINE",
"2167 353 OFFCURVE",
"2087 253 OFFCURVE",
"1960 200 CURVE",
"1654 200 LINE",
"1525 265 OFFCURVE",
"1431 351 OFFCURVE",
"1374 458 CURVE",
"1472 607 LINE SMOOTH",
"1494 640 OFFCURVE",
"1505 674 OFFCURVE",
"1505 708 CURVE SMOOTH",
"1505 773 OFFCURVE",
"1463 839 OFFCURVE",
"1380 906 CURVE",
"1375 909 OFFCURVE",
"1369 911 OFFCURVE",
"1364 914 CURVE",
"1358 969 OFFCURVE",
"1344 1012 OFFCURVE",
"1323 1045 CURVE SMOOTH",
"1290 1096 OFFCURVE",
"1221 1142 OFFCURVE",
"1115 1185 CURVE",
"1143 1242 LINE",
"1222 1205 OFFCURVE",
"1283 1186 OFFCURVE",
"1326 1186 CURVE SMOOTH",
"1344 1186 OFFCURVE",
"1359 1189 OFFCURVE",
"1372 1196 CURVE SMOOTH",
"1413 1217 OFFCURVE",
"1441 1271 OFFCURVE",
"1454 1357 CURVE",
"1445 1354 OFFCURVE",
"1436 1352 OFFCURVE",
"1425 1352 CURVE SMOOTH",
"1365 1352 OFFCURVE",
"1267 1401 OFFCURVE",
"1130 1500 CURVE",
"822 1093 LINE",
"948 1070 OFFCURVE",
"1043 1040 OFFCURVE",
"1108 1001 CURVE"
);
}
);
width = 2700;
}
);
note = uni179F;
unicode = 179F;
},
{
glyphname = uni17A0;
lastChange = "2021-04-30 13:13:23 +0000";
layers = (
{
layerId = "BB6B0684-34D4-4B80-99D1-F5F29B570554";
paths = (
{
closed = 1;
nodes = (
"1500 982 OFFCURVE",
"1492 1015 OFFCURVE",
"1475 1045 CURVE",
"1799 1277 LINE",
"2250 1022 LINE",
"2250 500 LINE SMOOTH",
"2250 447 OFFCURVE",
"2225 396 OFFCURVE",
"2175 348 CURVE SMOOTH",
"2125 300 OFFCURVE",
"2100 248 OFFCURVE",
"2100 193 CURVE SMOOTH",
"2100 82 OFFCURVE",
"2260 0 OFFCURVE",
"2369 0 CURVE SMOOTH",
"2423 0 OFFCURVE",
"2450 33 OFFCURVE",
"2450 100 CURVE SMOOTH",
"2450 1140 LINE",
"2059 1380 OFFCURVE",
"1844 1500 OFFCURVE",
"1805 1500 CURVE SMOOTH",
"1767 1500 OFFCURVE",
"1566 1374 OFFCURVE",
"1201 1122 CURVE SMOOTH",
"1176 1105 OFFCURVE",
"1164 1086 OFFCURVE",
"1164 1066 CURVE SMOOTH",
"1164 1045 OFFCURVE",
"1175 1031 OFFCURVE",
"1198 1023 CURVE SMOOTH",
"1266 1000 OFFCURVE",
"1300 951 OFFCURVE",
"1300 876 CURVE SMOOTH",
"1300 500 LINE",
"1267 353 OFFCURVE",
"1183 253 OFFCURVE",
"1050 200 CURVE",
"664 200 LINE",
"548 265 OFFCURVE",
"464 341 OFFCURVE",
"411 429 CURVE",
"595 617 LINE SMOOTH",
"645 665 OFFCURVE",
"670 714 OFFCURVE",
"670 764 CURVE SMOOTH",
"670 864 OFFCURVE",
"566 993 OFFCURVE",
"391 1114 CURVE",
"489 1249 LINE",
"588 1197 OFFCURVE",
"663 1171 OFFCURVE",
"714 1171 CURVE SMOOTH",
"727 1171 OFFCURVE",
"738 1173 OFFCURVE",
"748 1176 CURVE SMOOTH",
"796 1192 OFFCURVE",
"827 1248 OFFCURVE",
"840 1343 CURVE",
"831 1339 OFFCURVE",
"821 1337 OFFCURVE",
"809 1337 CURVE SMOOTH",
"746 1337 OFFCURVE",
"635 1391 OFFCURVE",
"476 1500 CURVE",
"150 1022 LINE",
"283 982 OFFCURVE",
"386 892 OFFCURVE",
"458 752 CURVE",
"150 476 LINE",
"190 255 OFFCURVE",
"504 0 OFFCURVE",
"664 0 CURVE SMOOTH",
"1050 0 LINE",
"1323 67 OFFCURVE",
"1473 233 OFFCURVE",
"1500 500 CURVE",
"1500 946 LINE SMOOTH"
);
}
);
width = 2750;
}
);
note = uni17A0;
unicode = 17A0;
},
{
glyphname = uni17A1;
lastChange = "2021-04-30 13:13:23 +0000";
layers = (
{
layerId = "BB6B0684-34D4-4B80-99D1-F5F29B570554";
paths = (
{
closed = 1;
nodes = (
"200 405 OFFCURVE",
"254 284 OFFCURVE",
"362 155 CURVE",
"483 52 OFFCURVE",
"584 0 OFFCURVE",
"664 0 CURVE",
"951 225 LINE SMOOTH",
"1015 275 OFFCURVE",
"1086 300 OFFCURVE",
"1164 300 CURVE SMOOTH",
"1255 300 OFFCURVE",
"1300 267 OFFCURVE",
"1300 200 CURVE SMOOTH",
"1300 167 OFFCURVE",
"1278 131 OFFCURVE",
"1233 94 CURVE",
"1242 33 OFFCURVE",
"1289 3 OFFCURVE",
"1374 3 CURVE SMOOTH",
"1458 3 OFFCURVE",
"1500 69 OFFCURVE",
"1500 200 CURVE SMOOTH",
"1500 360 OFFCURVE",
"1357 500 OFFCURVE",
"1164 500 CURVE SMOOTH",
"1067 500 OFFCURVE",
"963 462 OFFCURVE",
"852 385 CURVE SMOOTH",
"630 235 LINE",
"537 276 OFFCURVE",
"473 349 OFFCURVE",
"439 453 CURVE",
"595 617 LINE",
"645 665 OFFCURVE",
"670 714 OFFCURVE",
"670 764 CURVE SMOOTH",
"670 864 OFFCURVE",
"548 1007 OFFCURVE",
"444 1071 CURVE",
"551 1224 OFFCURVE",
"655 1300 OFFCURVE",
"756 1300 CURVE SMOOTH",
"971 1300 LINE SMOOTH",
"1060 1300 OFFCURVE",
"1137 1278 OFFCURVE",
"1202 1234 CURVE SMOOTH",
"1268 1189 OFFCURVE",
"1302 1151 OFFCURVE",
"1303 1119 CURVE SMOOTH",
"1303 1118 LINE SMOOTH",
"1303 1086 OFFCURVE",
"1279 1070 OFFCURVE",
"1230 1070 CURVE SMOOTH",
"1183 1070 OFFCURVE",
"1160 1040 OFFCURVE",
"1160 980 CURVE SMOOTH",
"1160 970 LINE SMOOTH",
"1163 903 OFFCURVE",
"1220 870 OFFCURVE",
"1332 870 CURVE SMOOTH",
"1444 870 OFFCURVE",
"1500 953 OFFCURVE",
"1500 1119 CURVE SMOOTH",
"1500 1232 OFFCURVE",
"1448 1323 OFFCURVE",
"1344 1394 CURVE SMOOTH",
"1239 1465 OFFCURVE",
"1115 1500 OFFCURVE",
"971 1500 CURVE SMOOTH",
"756 1500 LINE SMOOTH",
"589 1500 OFFCURVE",
"433 1402 OFFCURVE",
"287 1205 CURVE SMOOTH",
"229 1128 OFFCURVE",
"200 1061 OFFCURVE",
"200 1006 CURVE",
"309 960 OFFCURVE",
"395 875 OFFCURVE",
"458 752 CURVE",
"200 517 LINE"
);
},
{
closed = 1;
nodes = (
"1447 -687 LINE",
"1524 -607 LINE SMOOTH",
"1575 -554 OFFCURVE",
"1600 -498 OFFCURVE",
"1600 -441 CURVE SMOOTH",
"1600 -280 OFFCURVE",
"1518 -200 OFFCURVE",
"1354 -200 CURVE SMOOTH",
"1289 -200 OFFCURVE",
"1256 -233 OFFCURVE",
"1255 -300 CURVE",
"1254 -301 OFFCURVE",
"1254 -303 OFFCURVE",
"1254 -305 CURVE SMOOTH",
"1254 -368 OFFCURVE",
"1286 -400 OFFCURVE",
"1351 -400 CURVE SMOOTH",
"1384 -400 OFFCURVE",
"1400 -414 OFFCURVE",
"1400 -441 CURVE SMOOTH",
"1400 -469 OFFCURVE",
"1387 -496 OFFCURVE",
"1361 -523 CURVE SMOOTH",
"1305 -584 LINE SMOOTH",
"1268 -625 OFFCURVE",
"1250 -675 OFFCURVE",
"1250 -734 CURVE SMOOTH",
"1250 -794 OFFCURVE",
"1296 -845 OFFCURVE",
"1389 -887 CURVE SMOOTH",
"1461 -918 LINE SMOOTH",
"1510 -939 OFFCURVE",
"1564 -950 OFFCURVE",
"1624 -950 CURVE SMOOTH",
"1683 -950 OFFCURVE",
"1726 -931 OFFCURVE",
"1751 -894 CURVE SMOOTH",
"1866 -727 LINE",
"2042 -838 LINE",
"2129 -894 LINE SMOOTH",
"2188 -931 OFFCURVE",
"2256 -950 OFFCURVE",
"2334 -950 CURVE SMOOTH",
"2411 -950 OFFCURVE",
"2450 -876 OFFCURVE",
"2450 -728 CURVE SMOOTH",
"2450 946 LINE SMOOTH",
"2450 1037 OFFCURVE",
"2397 1109 OFFCURVE",
"2291 1164 CURVE",
"2349 1249 LINE",
"2432 1197 OFFCURVE",
"2496 1171 OFFCURVE",
"2539 1171 CURVE SMOOTH",
"2550 1171 OFFCURVE",
"2559 1173 OFFCURVE",
"2568 1176 CURVE SMOOTH",
"2609 1192 OFFCURVE",
"2637 1248 OFFCURVE",
"2650 1343 CURVE",
"2641 1339 OFFCURVE",
"2631 1337 OFFCURVE",
"2620 1337 CURVE SMOOTH",
"2562 1337 OFFCURVE",
"2467 1391 OFFCURVE",
"2336 1500 CURVE",
"2050 1052 LINE",
"2183 1025 OFFCURVE",
"2250 967 OFFCURVE",
"2250 876 CURVE SMOOTH",
"2250 -728 LINE",
"1840 -487 LINE",
"1600 -752 LINE"
);
}
);
width = 2750;
}
);
note = uni17A1;
unicode = 17A1;
},
{
glyphname = uni17A2;
lastChange = "2021-04-30 13:13:23 +0000";
layers = (
{
layerId = "BB6B0684-34D4-4B80-99D1-F5F29B570554";
paths = (
{
closed = 1;
nodes = (
"1300 440 OFFCURVE",
"1267 382 OFFCURVE",
"1200 325 CURVE SMOOTH",
"1133 268 OFFCURVE",
"1100 215 OFFCURVE",
"1100 165 CURVE SMOOTH",
"1100 55 OFFCURVE",
"1138 0 OFFCURVE",
"1215 0 CURVE SMOOTH",
"1285 0 OFFCURVE",
"1350 37 OFFCURVE",
"1410 110 CURVE SMOOTH",
"1470 183 OFFCURVE",
"1500 310 OFFCURVE",
"1500 490 CURVE SMOOTH",
"1500 946 LINE SMOOTH",
"1500 1037 OFFCURVE",
"1447 1109 OFFCURVE",
"1341 1164 CURVE",
"1399 1249 LINE",
"1482 1197 OFFCURVE",
"1546 1171 OFFCURVE",
"1589 1171 CURVE SMOOTH",
"1600 1171 OFFCURVE",
"1609 1173 OFFCURVE",
"1618 1176 CURVE SMOOTH",
"1659 1192 OFFCURVE",
"1687 1248 OFFCURVE",
"1700 1343 CURVE",
"1691 1339 OFFCURVE",
"1681 1337 OFFCURVE",
"1670 1337 CURVE SMOOTH",
"1612 1337 OFFCURVE",
"1517 1391 OFFCURVE",
"1386 1500 CURVE",
"1100 1052 LINE",
"1233 1025 OFFCURVE",
"1300 967 OFFCURVE",
"1300 876 CURVE SMOOTH",
"1300 845 LINE",
"550 845 LINE",
"550 946 LINE SMOOTH",
"550 1037 OFFCURVE",
"497 1109 OFFCURVE",
"391 1164 CURVE",
"449 1249 LINE",
"548 1197 OFFCURVE",
"623 1171 OFFCURVE",
"674 1171 CURVE SMOOTH",
"687 1171 OFFCURVE",
"698 1173 OFFCURVE",
"708 1176 CURVE SMOOTH",
"756 1192 OFFCURVE",
"787 1248 OFFCURVE",
"800 1343 CURVE",
"791 1339 OFFCURVE",
"781 1337 OFFCURVE",
"769 1337 CURVE SMOOTH",
"706 1337 OFFCURVE",
"595 1391 OFFCURVE",
"436 1500 CURVE",
"150 1052 LINE",
"283 1025 OFFCURVE",
"350 967 OFFCURVE",
"350 876 CURVE SMOOTH",
"350 500 LINE SMOOTH",
"350 440 OFFCURVE",
"317 382 OFFCURVE",
"250 325 CURVE SMOOTH",
"183 268 OFFCURVE",
"150 215 OFFCURVE",
"150 165 CURVE SMOOTH",
"150 55 OFFCURVE",
"188 0 OFFCURVE",
"265 0 CURVE SMOOTH",
"335 0 OFFCURVE",
"400 37 OFFCURVE",
"460 110 CURVE SMOOTH",
"520 183 OFFCURVE",
"550 310 OFFCURVE",
"550 490 CURVE SMOOTH",
"550 645 LINE",
"1300 645 LINE",
"1300 500 LINE SMOOTH"
);
}
);
width = 1800;
}
);
note = uni17A2;
unicode = 17A2;
},
{
glyphname = uni17A5;
lastChange = "2021-04-30 13:13:23 +0000";
layers = (
{
layerId = "BB6B0684-34D4-4B80-99D1-F5F29B570554";
paths = (
{
closed = 1;
nodes = (
"925 1170 OFFCURVE",
"1039 1130 OFFCURVE",
"1140 1130 CURVE SMOOTH",
"1380 1130 OFFCURVE",
"1500 1249 OFFCURVE",
"1500 1486 CURVE SMOOTH",
"1500 1662 OFFCURVE",
"1437 1750 OFFCURVE",
"1310 1750 CURVE SMOOTH",
"1259 1750 OFFCURVE",
"1234 1737 OFFCURVE",
"1234 1712 CURVE SMOOTH",
"1234 1701 OFFCURVE",
"1239 1687 OFFCURVE",
"1250 1670 CURVE SMOOTH",
"1283 1617 OFFCURVE",
"1300 1555 OFFCURVE",
"1300 1486 CURVE SMOOTH",
"1300 1382 OFFCURVE",
"1247 1330 OFFCURVE",
"1140 1330 CURVE SMOOTH",
"1074 1330 OFFCURVE",
"1010 1353 OFFCURVE",
"948 1400 CURVE SMOOTH",
"865 1467 OFFCURVE",
"813 1500 OFFCURVE",
"792 1500 CURVE SMOOTH",
"771 1500 OFFCURVE",
"737 1479 OFFCURVE",
"691 1437 CURVE SMOOTH",
"556 1310 LINE",
"521 1271 OFFCURVE",
"504 1231 OFFCURVE",
"504 1189 CURVE SMOOTH",
"504 1180 OFFCURVE",
"505 1172 OFFCURVE",
"506 1164 CURVE",
"515 1138 OFFCURVE",
"552 1106 OFFCURVE",
"617 1068 CURVE SMOOTH",
"657 1042 LINE",
"375 905 LINE SMOOTH",
"325 879 OFFCURVE",
"300 840 OFFCURVE",
"300 788 CURVE SMOOTH",
"300 330 LINE SMOOTH",
"300 217 OFFCURVE",
"458 0 OFFCURVE",
"587 0 CURVE SMOOTH",
"728 0 OFFCURVE",
"870 207 OFFCURVE",
"870 360 CURVE SMOOTH",
"870 540 OFFCURVE",
"782 630 OFFCURVE",
"607 630 CURVE SMOOTH",
"556 630 OFFCURVE",
"521 615 OFFCURVE",
"500 586 CURVE",
"500 738 LINE",
"900 937 LINE",
"1300 738 LINE",
"1300 500 LINE SMOOTH",
"1300 447 OFFCURVE",
"1275 396 OFFCURVE",
"1225 348 CURVE SMOOTH",
"1175 300 OFFCURVE",
"1150 248 OFFCURVE",
"1150 193 CURVE SMOOTH",
"1150 82 OFFCURVE",
"1310 0 OFFCURVE",
"1419 0 CURVE SMOOTH",
"1473 0 OFFCURVE",
"1500 33 OFFCURVE",
"1500 100 CURVE SMOOTH",
"1500 788 LINE SMOOTH",
"1500 840 OFFCURVE",
"1475 879 OFFCURVE",
"1425 905 CURVE SMOOTH",
"900 1160 LINE",
"877 1149 LINE",
"762 1215 LINE",
"800 1250 LINE"
);
},
{
closed = 1;
nodes = (
"500 403 OFFCURVE",
"536 440 OFFCURVE",
"607 440 CURVE SMOOTH",
"649 440 OFFCURVE",
"670 413 OFFCURVE",
"670 360 CURVE SMOOTH",
"670 285 OFFCURVE",
"635 200 OFFCURVE",
"587 200 CURVE",
"542 220 OFFCURVE",
"513 263 OFFCURVE",
"500 330 CURVE"
);
}
);
width = 1800;
}
);
note = uni17A5;
unicode = 17A5;
},
{
glyphname = uni17A6;
lastChange = "2021-04-30 13:13:23 +0000";
layers = (
{
layerId = "BB6B0684-34D4-4B80-99D1-F5F29B570554";
paths = (
{
closed = 1;
nodes = (
"1300 -622 OFFCURVE",
"1275 -660 OFFCURVE",
"1225 -695 CURVE SMOOTH",
"1175 -730 OFFCURVE",
"1150 -767 OFFCURVE",
"1150 -808 CURVE SMOOTH",
"1150 -889 OFFCURVE",
"1310 -950 OFFCURVE",
"1419 -950 CURVE SMOOTH",
"1472 -950 OFFCURVE",
"1499 -926 OFFCURVE",
"1500 -877 CURVE",
"1559 -926 OFFCURVE",
"1626 -950 OFFCURVE",
"1700 -950 CURVE SMOOTH",
"1900 -950 LINE SMOOTH",
"2167 -950 OFFCURVE",
"2300 -817 OFFCURVE",
"2300 -550 CURVE SMOOTH",
"2300 1700 LINE SMOOTH",
"2300 2100 OFFCURVE",
"2167 2300 OFFCURVE",
"1900 2300 CURVE SMOOTH",
"1805 2300 OFFCURVE",
"1736 2292 OFFCURVE",
"1692 2276 CURVE",
"1717 2337 OFFCURVE",
"1735 2399 OFFCURVE",
"1746 2460 CURVE SMOOTH",
"1755 2507 OFFCURVE",
"1759 2548 OFFCURVE",
"1759 2581 CURVE SMOOTH",
"1759 2660 OFFCURVE",
"1734 2700 OFFCURVE",
"1685 2700 CURVE SMOOTH",
"1615 2700 OFFCURVE",
"1576 2672 OFFCURVE",
"1569 2615 CURVE SMOOTH",
"1547 2444 OFFCURVE",
"1474 2282 OFFCURVE",
"1351 2130 CURVE SMOOTH",
"1314 2083 OFFCURVE",
"1295 2044 OFFCURVE",
"1295 2011 CURVE SMOOTH",
"1295 1984 OFFCURVE",
"1308 1962 OFFCURVE",
"1334 1945 CURVE SMOOTH",
"1353 1932 OFFCURVE",
"1372 1926 OFFCURVE",
"1392 1926 CURVE SMOOTH",
"1432 1926 OFFCURVE",
"1474 1952 OFFCURVE",
"1519 2003 CURVE",
"1588 2068 OFFCURVE",
"1715 2100 OFFCURVE",
"1900 2100 CURVE SMOOTH",
"2033 2100 OFFCURVE",
"2100 1967 OFFCURVE",
"2100 1700 CURVE SMOOTH",
"2100 -550 LINE SMOOTH",
"2100 -683 OFFCURVE",
"2033 -750 OFFCURVE",
"1900 -750 CURVE SMOOTH",
"1700 -750 LINE SMOOTH",
"1627 -750 OFFCURVE",
"1560 -683 OFFCURVE",
"1500 -550 CURVE",
"1500 -372 LINE SMOOTH",
"1500 -334 OFFCURVE",
"1475 -305 OFFCURVE",
"1425 -286 CURVE SMOOTH",
"900 -100 LINE",
"375 -286 LINE SMOOTH",
"325 -305 OFFCURVE",
"300 -334 OFFCURVE",
"300 -372 CURVE SMOOTH",
"300 -708 LINE SMOOTH",
"300 -791 OFFCURVE",
"458 -950 OFFCURVE",
"587 -950 CURVE SMOOTH",
"728 -950 OFFCURVE",
"870 -798 OFFCURVE",
"870 -686 CURVE SMOOTH",
"870 -554 OFFCURVE",
"782 -488 OFFCURVE",
"607 -488 CURVE SMOOTH",
"556 -488 OFFCURVE",
"521 -499 OFFCURVE",
"500 -520 CURVE",
"500 -439 LINE",
"900 -293 LINE",
"1300 -439 LINE",
"1300 -583 LINE SMOOTH"
);
},
{
closed = 1;
nodes = (
"325 879 OFFCURVE",
"300 840 OFFCURVE",
"300 788 CURVE SMOOTH",
"300 330 LINE SMOOTH",
"300 217 OFFCURVE",
"458 0 OFFCURVE",
"587 0 CURVE SMOOTH",
"728 0 OFFCURVE",
"870 207 OFFCURVE",
"870 360 CURVE SMOOTH",
"870 540 OFFCURVE",
"782 630 OFFCURVE",
"607 630 CURVE SMOOTH",
"556 630 OFFCURVE",
"521 615 OFFCURVE",
"500 586 CURVE",
"500 738 LINE",
"900 937 LINE",
"1300 738 LINE",
"1300 500 LINE SMOOTH",
"1300 447 OFFCURVE",
"1275 396 OFFCURVE",
"1225 348 CURVE SMOOTH",
"1175 300 OFFCURVE",
"1150 248 OFFCURVE",
"1150 193 CURVE SMOOTH",
"1150 82 OFFCURVE",
"1310 0 OFFCURVE",
"1419 0 CURVE SMOOTH",
"1473 0 OFFCURVE",
"1500 33 OFFCURVE",
"1500 100 CURVE SMOOTH",
"1500 788 LINE SMOOTH",
"1500 840 OFFCURVE",
"1475 879 OFFCURVE",
"1425 905 CURVE SMOOTH",
"900 1160 LINE",
"375 905 LINE SMOOTH"
);
},
{
closed = 1;
nodes = (
"500 403 OFFCURVE",
"536 440 OFFCURVE",
"607 440 CURVE SMOOTH",
"649 440 OFFCURVE",
"670 413 OFFCURVE",
"670 360 CURVE SMOOTH",
"670 285 OFFCURVE",
"635 200 OFFCURVE",
"587 200 CURVE",
"542 220 OFFCURVE",
"513 263 OFFCURVE",
"500 330 CURVE"
);
},
{
closed = 1;
nodes = (
"500 -654 OFFCURVE",
"536 -627 OFFCURVE",
"607 -627 CURVE SMOOTH",
"649 -627 OFFCURVE",
"670 -647 OFFCURVE",
"670 -686 CURVE SMOOTH",
"670 -741 OFFCURVE",
"635 -803 OFFCURVE",
"587 -803 CURVE",
"542 -788 OFFCURVE",
"513 -757 OFFCURVE",
"500 -708 CURVE"
);
}
);
width = 2600;
}
);
note = uni17A6;
unicode = 17A6;
},
{
glyphname = uni17A7;
lastChange = "2021-04-30 13:13:23 +0000";
layers = (
{
layerId = "BB6B0684-34D4-4B80-99D1-F5F29B570554";
paths = (
{
closed = 1;
nodes = (
"1300 40 LINE SMOOTH",
"1300 -7 OFFCURVE",
"1288 -52 OFFCURVE",
"1265 -95 CURVE SMOOTH",
"1258 -107 OFFCURVE",
"1255 -118 OFFCURVE",
"1255 -129 CURVE SMOOTH",
"1255 -157 OFFCURVE",
"1277 -180 OFFCURVE",
"1320 -198 CURVE SMOOTH",
"1338 -205 OFFCURVE",
"1355 -209 OFFCURVE",
"1370 -209 CURVE SMOOTH",
"1406 -209 OFFCURVE",
"1434 -189 OFFCURVE",
"1455 -148 CURVE SMOOTH",
"1485 -89 OFFCURVE",
"1500 -27 OFFCURVE",
"1500 40 CURVE SMOOTH",
"1500 402 LINE SMOOTH",
"1500 459 OFFCURVE",
"1465 487 OFFCURVE",
"1396 487 CURVE SMOOTH",
"1369 487 OFFCURVE",
"1337 483 OFFCURVE",
"1300 474 CURVE",
"950 225 LINE",
"836 356 LINE",
"1279 654 OFFCURVE",
"1500 889 OFFCURVE",
"1500 1060 CURVE SMOOTH",
"1500 1420 OFFCURVE",
"1229 1500 OFFCURVE",
"900 1500 CURVE SMOOTH",
"571 1500 OFFCURVE",
"300 1390 OFFCURVE",
"300 1110 CURVE SMOOTH",
"300 903 OFFCURVE",
"399 800 OFFCURVE",
"596 800 CURVE SMOOTH",
"695 800 OFFCURVE",
"767 825 OFFCURVE",
"811 876 CURVE SMOOTH",
"839 909 OFFCURVE",
"853 944 OFFCURVE",
"853 982 CURVE SMOOTH",
"853 1002 OFFCURVE",
"849 1023 OFFCURVE",
"842 1045 CURVE SMOOTH",
"823 1096 OFFCURVE",
"787 1122 OFFCURVE",
"735 1122 CURVE SMOOTH",
"724 1122 OFFCURVE",
"713 1121 OFFCURVE",
"702 1119 CURVE SMOOTH",
"631 1106 OFFCURVE",
"596 1060 OFFCURVE",
"596 980 CURVE",
"532 980 OFFCURVE",
"500 1023 OFFCURVE",
"500 1110 CURVE SMOOTH",
"500 1237 OFFCURVE",
"633 1300 OFFCURVE",
"900 1300 CURVE SMOOTH",
"1167 1300 OFFCURVE",
"1300 1220 OFFCURVE",
"1300 1060 CURVE SMOOTH",
"1300 982 OFFCURVE",
"1086 794 OFFCURVE",
"659 496 CURVE",
"610 465 OFFCURVE",
"586 427 OFFCURVE",
"586 382 CURVE SMOOTH",
"586 330 OFFCURVE",
"618 269 OFFCURVE",
"681 199 CURVE SMOOTH",
"799 66 OFFCURVE",
"888 0 OFFCURVE",
"947 0 CURVE SMOOTH",
"979 1 OFFCURVE",
"1097 79 OFFCURVE",
"1300 234 CURVE"
);
}
);
width = 1800;
}
);
note = uni17A7;
unicode = 17A7;
},
{
glyphname = uni17A8;
lastChange = "2021-04-30 13:13:23 +0000";
layers = (
{
layerId = "BB6B0684-34D4-4B80-99D1-F5F29B570554";
paths = (
{
closed = 1;
nodes = (
"200 1766 OFFCURVE",
"240 1750 OFFCURVE",
"319 1750 CURVE SMOOTH",
"398 1750 OFFCURVE",
"462 1769 OFFCURVE",
"513 1808 CURVE SMOOTH",
"589 1866 LINE",
"897 1750 LINE",
"1163 1883 LINE",
"1262 1818 OFFCURVE",
"1341 1775 OFFCURVE",
"1402 1755 CURVE SMOOTH",
"1411 1752 OFFCURVE",
"1421 1750 OFFCURVE",
"1430 1750 CURVE SMOOTH",
"1482 1750 OFFCURVE",
"1539 1799 OFFCURVE",
"1600 1896 CURVE",
"1483 1935 OFFCURVE",
"1388 1975 OFFCURVE",
"1317 2016 CURVE SMOOTH",
"1245 2056 OFFCURVE",
"1197 2076 OFFCURVE",
"1173 2076 CURVE SMOOTH",
"1148 2076 OFFCURVE",
"1056 2037 OFFCURVE",
"897 1960 CURVE",
"704 2037 OFFCURVE",
"595 2076 OFFCURVE",
"570 2076 CURVE SMOOTH",
"546 2076 OFFCURVE",
"506 2056 OFFCURVE",
"450 2016 CURVE SMOOTH",
"263 1889 LINE SMOOTH",
"221 1860 OFFCURVE",
"200 1830 OFFCURVE",
"200 1798 CURVE SMOOTH"
);
},
{
closed = 1;
nodes = (
"1300 40 LINE SMOOTH",
"1300 -7 OFFCURVE",
"1288 -52 OFFCURVE",
"1265 -95 CURVE SMOOTH",
"1258 -107 OFFCURVE",
"1255 -118 OFFCURVE",
"1255 -129 CURVE SMOOTH",
"1255 -157 OFFCURVE",
"1277 -180 OFFCURVE",
"1320 -198 CURVE SMOOTH",
"1338 -205 OFFCURVE",
"1355 -209 OFFCURVE",
"1370 -209 CURVE SMOOTH",
"1406 -209 OFFCURVE",
"1434 -189 OFFCURVE",
"1455 -148 CURVE SMOOTH",
"1485 -89 OFFCURVE",
"1500 -27 OFFCURVE",
"1500 40 CURVE SMOOTH",
"1500 402 LINE SMOOTH",
"1500 459 OFFCURVE",
"1465 487 OFFCURVE",
"1396 487 CURVE SMOOTH",
"1369 487 OFFCURVE",
"1337 483 OFFCURVE",
"1300 474 CURVE",
"950 225 LINE",
"836 356 LINE",
"1279 654 OFFCURVE",
"1500 889 OFFCURVE",
"1500 1060 CURVE SMOOTH",
"1500 1420 OFFCURVE",
"1229 1500 OFFCURVE",
"900 1500 CURVE SMOOTH",
"571 1500 OFFCURVE",
"300 1390 OFFCURVE",
"300 1110 CURVE SMOOTH",
"300 903 OFFCURVE",
"399 800 OFFCURVE",
"596 800 CURVE SMOOTH",
"695 800 OFFCURVE",
"767 825 OFFCURVE",
"811 876 CURVE SMOOTH",
"839 909 OFFCURVE",
"853 944 OFFCURVE",
"853 982 CURVE SMOOTH",
"853 1002 OFFCURVE",
"849 1023 OFFCURVE",
"842 1045 CURVE SMOOTH",
"823 1096 OFFCURVE",
"787 1122 OFFCURVE",
"735 1122 CURVE SMOOTH",
"724 1122 OFFCURVE",
"713 1121 OFFCURVE",
"702 1119 CURVE SMOOTH",
"631 1106 OFFCURVE",
"596 1060 OFFCURVE",
"596 980 CURVE",
"532 980 OFFCURVE",
"500 1023 OFFCURVE",
"500 1110 CURVE SMOOTH",
"500 1237 OFFCURVE",
"633 1300 OFFCURVE",
"900 1300 CURVE SMOOTH",
"1167 1300 OFFCURVE",
"1300 1220 OFFCURVE",
"1300 1060 CURVE SMOOTH",
"1300 982 OFFCURVE",
"1086 794 OFFCURVE",
"659 496 CURVE",
"610 465 OFFCURVE",
"586 427 OFFCURVE",
"586 382 CURVE SMOOTH",
"586 330 OFFCURVE",
"618 269 OFFCURVE",
"681 199 CURVE SMOOTH",
"799 66 OFFCURVE",
"888 0 OFFCURVE",
"947 0 CURVE SMOOTH",
"979 1 OFFCURVE",
"1097 79 OFFCURVE",
"1300 234 CURVE"
);
}
);
width = 1800;
}
);
note = uni17A8;
unicode = 17A8;
},
{
glyphname = uni17A9;
lastChange = "2021-04-30 13:13:23 +0000";
layers = (
{
layerId = "BB6B0684-34D4-4B80-99D1-F5F29B570554";
paths = (
{
closed = 1;
nodes = (
"1300 40 LINE SMOOTH",
"1300 -7 OFFCURVE",
"1288 -52 OFFCURVE",
"1265 -95 CURVE SMOOTH",
"1258 -107 OFFCURVE",
"1255 -118 OFFCURVE",
"1255 -129 CURVE SMOOTH",
"1255 -157 OFFCURVE",
"1277 -180 OFFCURVE",
"1320 -198 CURVE SMOOTH",
"1338 -205 OFFCURVE",
"1355 -209 OFFCURVE",
"1370 -209 CURVE SMOOTH",
"1406 -209 OFFCURVE",
"1434 -189 OFFCURVE",
"1455 -148 CURVE SMOOTH",
"1485 -89 OFFCURVE",
"1500 -27 OFFCURVE",
"1500 40 CURVE SMOOTH",
"1500 402 LINE SMOOTH",
"1500 459 OFFCURVE",
"1465 487 OFFCURVE",
"1396 487 CURVE SMOOTH",
"1369 487 OFFCURVE",
"1337 483 OFFCURVE",
"1300 474 CURVE",
"950 225 LINE",
"836 356 LINE",
"1279 654 OFFCURVE",
"1500 889 OFFCURVE",
"1500 1060 CURVE SMOOTH",
"1500 1420 OFFCURVE",
"1229 1500 OFFCURVE",
"900 1500 CURVE SMOOTH",
"571 1500 OFFCURVE",
"300 1390 OFFCURVE",
"300 1110 CURVE SMOOTH",
"300 903 OFFCURVE",
"399 800 OFFCURVE",
"596 800 CURVE SMOOTH",
"695 800 OFFCURVE",
"767 825 OFFCURVE",
"811 876 CURVE SMOOTH",
"839 909 OFFCURVE",
"853 944 OFFCURVE",
"853 982 CURVE SMOOTH",
"853 1002 OFFCURVE",
"849 1023 OFFCURVE",
"842 1045 CURVE SMOOTH",
"823 1096 OFFCURVE",
"787 1122 OFFCURVE",
"735 1122 CURVE SMOOTH",
"724 1122 OFFCURVE",
"713 1121 OFFCURVE",
"702 1119 CURVE SMOOTH",
"631 1106 OFFCURVE",
"596 1060 OFFCURVE",
"596 980 CURVE",
"532 980 OFFCURVE",
"500 1023 OFFCURVE",
"500 1110 CURVE SMOOTH",
"500 1237 OFFCURVE",
"633 1300 OFFCURVE",
"900 1300 CURVE SMOOTH",
"1167 1300 OFFCURVE",
"1300 1220 OFFCURVE",
"1300 1060 CURVE SMOOTH",
"1300 982 OFFCURVE",
"1086 794 OFFCURVE",
"659 496 CURVE",
"610 465 OFFCURVE",
"586 427 OFFCURVE",
"586 382 CURVE SMOOTH",
"586 330 OFFCURVE",
"618 269 OFFCURVE",
"681 199 CURVE SMOOTH",
"799 66 OFFCURVE",
"888 0 OFFCURVE",
"947 0 CURVE SMOOTH",
"979 1 OFFCURVE",
"1097 79 OFFCURVE",
"1300 234 CURVE"
);
},
{
closed = 1;
nodes = (
"1607 609 OFFCURVE",
"1564 581 OFFCURVE",
"1564 524 CURVE SMOOTH",
"1564 467 OFFCURVE",
"1579 432 OFFCURVE",
"1609 419 CURVE SMOOTH",
"1639 406 OFFCURVE",
"1654 376 OFFCURVE",
"1654 329 CURVE SMOOTH",
"1654 -111 LINE SMOOTH",
"1654 -178 OFFCURVE",
"1687 -211 OFFCURVE",
"1754 -211 CURVE SMOOTH",
"1821 -211 OFFCURVE",
"1854 -178 OFFCURVE",
"1854 -111 CURVE SMOOTH",
"1854 359 LINE SMOOTH",
"1854 526 OFFCURVE",
"1801 609 OFFCURVE",
"1694 609 CURVE SMOOTH"
);
}
);
width = 1854;
}
);
note = uni17A9;
unicode = 17A9;
},
{
glyphname = uni17AA;
lastChange = "2021-04-30 13:13:23 +0000";
layers = (
{
layerId = "BB6B0684-34D4-4B80-99D1-F5F29B570554";
paths = (
{
closed = 1;
nodes = (
"450 1744 LINE",
"610 1890 LINE",
"755 1790 OFFCURVE",
"922 1740 OFFCURVE",
"1110 1740 CURVE SMOOTH",
"1370 1740 OFFCURVE",
"1500 1869 OFFCURVE",
"1500 2126 CURVE SMOOTH",
"1500 2302 OFFCURVE",
"1437 2390 OFFCURVE",
"1310 2390 CURVE SMOOTH",
"1259 2390 OFFCURVE",
"1234 2377 OFFCURVE",
"1234 2352 CURVE SMOOTH",
"1234 2341 OFFCURVE",
"1239 2327 OFFCURVE",
"1250 2310 CURVE SMOOTH",
"1283 2257 OFFCURVE",
"1300 2195 OFFCURVE",
"1300 2126 CURVE SMOOTH",
"1300 2002 OFFCURVE",
"1237 1940 OFFCURVE",
"1110 1940 CURVE SMOOTH",
"957 1940 OFFCURVE",
"840 1973 OFFCURVE",
"758 2040 CURVE SMOOTH",
"675 2107 OFFCURVE",
"623 2140 OFFCURVE",
"602 2140 CURVE SMOOTH",
"581 2140 OFFCURVE",
"547 2119 OFFCURVE",
"501 2077 CURVE SMOOTH",
"293 1889 LINE SMOOTH",
"231 1833 OFFCURVE",
"200 1792 OFFCURVE",
"200 1766 CURVE SMOOTH",
"200 1739 OFFCURVE",
"225 1697 OFFCURVE",
"275 1640 CURVE",
"426 1452 LINE",
"609 1566 LINE"
);
},
{
closed = 1;
nodes = (
"1300 40 LINE SMOOTH",
"1300 -7 OFFCURVE",
"1288 -52 OFFCURVE",
"1265 -95 CURVE SMOOTH",
"1258 -107 OFFCURVE",
"1255 -118 OFFCURVE",
"1255 -129 CURVE SMOOTH",
"1255 -157 OFFCURVE",
"1277 -180 OFFCURVE",
"1320 -198 CURVE SMOOTH",
"1338 -205 OFFCURVE",
"1355 -209 OFFCURVE",
"1370 -209 CURVE SMOOTH",
"1406 -209 OFFCURVE",
"1434 -189 OFFCURVE",
"1455 -148 CURVE SMOOTH",
"1485 -89 OFFCURVE",
"1500 -27 OFFCURVE",
"1500 40 CURVE SMOOTH",
"1500 402 LINE SMOOTH",
"1500 459 OFFCURVE",
"1465 487 OFFCURVE",
"1396 487 CURVE SMOOTH",
"1369 487 OFFCURVE",
"1337 483 OFFCURVE",
"1300 474 CURVE",
"950 225 LINE",
"836 356 LINE",
"1279 654 OFFCURVE",
"1500 889 OFFCURVE",
"1500 1060 CURVE SMOOTH",
"1500 1420 OFFCURVE",
"1229 1500 OFFCURVE",
"900 1500 CURVE SMOOTH",
"571 1500 OFFCURVE",
"300 1390 OFFCURVE",
"300 1110 CURVE SMOOTH",
"300 903 OFFCURVE",
"399 800 OFFCURVE",
"596 800 CURVE SMOOTH",
"695 800 OFFCURVE",
"767 825 OFFCURVE",
"811 876 CURVE SMOOTH",
"839 909 OFFCURVE",
"853 944 OFFCURVE",
"853 982 CURVE SMOOTH",
"853 1002 OFFCURVE",
"849 1023 OFFCURVE",
"842 1045 CURVE SMOOTH",
"823 1096 OFFCURVE",
"787 1122 OFFCURVE",
"735 1122 CURVE SMOOTH",
"724 1122 OFFCURVE",
"713 1121 OFFCURVE",
"702 1119 CURVE SMOOTH",
"631 1106 OFFCURVE",
"596 1060 OFFCURVE",
"596 980 CURVE",
"532 980 OFFCURVE",
"500 1023 OFFCURVE",
"500 1110 CURVE SMOOTH",
"500 1237 OFFCURVE",
"633 1300 OFFCURVE",
"900 1300 CURVE SMOOTH",
"1167 1300 OFFCURVE",
"1300 1220 OFFCURVE",
"1300 1060 CURVE SMOOTH",
"1300 982 OFFCURVE",
"1086 794 OFFCURVE",
"659 496 CURVE",
"610 465 OFFCURVE",
"586 427 OFFCURVE",
"586 382 CURVE SMOOTH",
"586 330 OFFCURVE",
"618 269 OFFCURVE",
"681 199 CURVE SMOOTH",
"799 66 OFFCURVE",
"888 0 OFFCURVE",
"947 0 CURVE SMOOTH",
"979 1 OFFCURVE",
"1097 79 OFFCURVE",
"1300 234 CURVE"
);
}
);
width = 1800;
}
);
note = uni17AA;
unicode = 17AA;
},
{
glyphname = uni17AB;
lastChange = "2021-04-30 13:13:23 +0000";
layers = (
{
layerId = "BB6B0684-34D4-4B80-99D1-F5F29B570554";
paths = (
{
closed = 1;
nodes = (
"645 665 OFFCURVE",
"670 714 OFFCURVE",
"670 764 CURVE SMOOTH",
"670 864 OFFCURVE",
"566 993 OFFCURVE",
"391 1114 CURVE",
"489 1249 LINE",
"588 1197 OFFCURVE",
"663 1171 OFFCURVE",
"714 1171 CURVE SMOOTH",
"727 1171 OFFCURVE",
"738 1173 OFFCURVE",
"748 1176 CURVE SMOOTH",
"796 1192 OFFCURVE",
"827 1248 OFFCURVE",
"840 1343 CURVE",
"831 1339 OFFCURVE",
"821 1337 OFFCURVE",
"809 1337 CURVE SMOOTH",
"746 1337 OFFCURVE",
"635 1391 OFFCURVE",
"476 1500 CURVE",
"150 1022 LINE",
"283 982 OFFCURVE",
"386 892 OFFCURVE",
"458 752 CURVE",
"150 476 LINE",
"190 255 OFFCURVE",
"504 0 OFFCURVE",
"664 0 CURVE SMOOTH",
"1050 0 LINE",
"1323 67 OFFCURVE",
"1473 233 OFFCURVE",
"1500 500 CURVE",
"1500 896 LINE",
"1487 1013 OFFCURVE",
"1420 1099 OFFCURVE",
"1301 1154 CURVE",
"1379 1249 LINE",
"1473 1197 OFFCURVE",
"1543 1171 OFFCURVE",
"1588 1171 CURVE SMOOTH",
"1599 1171 OFFCURVE",
"1609 1173 OFFCURVE",
"1618 1176 CURVE SMOOTH",
"1659 1192 OFFCURVE",
"1687 1248 OFFCURVE",
"1700 1343 CURVE",
"1691 1339 OFFCURVE",
"1681 1337 OFFCURVE",
"1670 1337 CURVE SMOOTH",
"1609 1337 OFFCURVE",
"1508 1391 OFFCURVE",
"1366 1500 CURVE",
"1040 1052 LINE",
"1187 1025 OFFCURVE",
"1273 967 OFFCURVE",
"1300 876 CURVE",
"1300 500 LINE",
"1267 353 OFFCURVE",
"1183 253 OFFCURVE",
"1050 200 CURVE",
"664 200 LINE",
"548 265 OFFCURVE",
"464 341 OFFCURVE",
"411 429 CURVE",
"595 617 LINE SMOOTH"
);
},
{
closed = 1;
nodes = (
"1011 -121 OFFCURVE",
"994 -147 OFFCURVE",
"994 -171 CURVE SMOOTH",
"994 -184 OFFCURVE",
"999 -196 OFFCURVE",
"1008 -207 CURVE",
"1025 -245 OFFCURVE",
"1033 -282 OFFCURVE",
"1033 -319 CURVE SMOOTH",
"1033 -424 OFFCURVE",
"967 -526 OFFCURVE",
"835 -626 CURVE SMOOTH",
"747 -691 OFFCURVE",
"656 -739 OFFCURVE",
"563 -769 CURVE SMOOTH",
"489 -793 OFFCURVE",
"452 -825 OFFCURVE",
"452 -864 CURVE SMOOTH",
"452 -874 OFFCURVE",
"454 -885 OFFCURVE",
"459 -896 CURVE SMOOTH",
"475 -932 OFFCURVE",
"506 -950 OFFCURVE",
"552 -950 CURVE SMOOTH",
"576 -950 OFFCURVE",
"604 -945 OFFCURVE",
"637 -936 CURVE SMOOTH",
"752 -909 OFFCURVE",
"860 -858 OFFCURVE",
"959 -783 CURVE",
"1073 -706 OFFCURVE",
"1150 -621 OFFCURVE",
"1190 -526 CURVE SMOOTH",
"1217 -463 OFFCURVE",
"1230 -399 OFFCURVE",
"1230 -336 CURVE SMOOTH",
"1230 -305 OFFCURVE",
"1227 -274 OFFCURVE",
"1220 -243 CURVE",
"1217 -210 OFFCURVE",
"1206 -167 OFFCURVE",
"1188 -113 CURVE",
"1164 -82 OFFCURVE",
"1138 -67 OFFCURVE",
"1111 -67 CURVE SMOOTH",
"1090 -67 OFFCURVE",
"1069 -76 OFFCURVE",
"1046 -94 CURVE SMOOTH"
);
}
);
width = 1800;
}
);
note = uni17AB;
unicode = 17AB;
},
{
glyphname = uni17AC;
lastChange = "2021-04-30 13:13:23 +0000";
layers = (
{
layerId = "BB6B0684-34D4-4B80-99D1-F5F29B570554";
paths = (
{
closed = 1;
nodes = (
"645 665 OFFCURVE",
"670 714 OFFCURVE",
"670 764 CURVE SMOOTH",
"670 864 OFFCURVE",
"566 993 OFFCURVE",
"391 1114 CURVE",
"489 1249 LINE",
"588 1197 OFFCURVE",
"663 1171 OFFCURVE",
"714 1171 CURVE SMOOTH",
"727 1171 OFFCURVE",
"738 1173 OFFCURVE",
"748 1176 CURVE SMOOTH",
"796 1192 OFFCURVE",
"827 1248 OFFCURVE",
"840 1343 CURVE",
"831 1339 OFFCURVE",
"821 1337 OFFCURVE",
"809 1337 CURVE SMOOTH",
"746 1337 OFFCURVE",
"635 1391 OFFCURVE",
"476 1500 CURVE",
"150 1022 LINE",
"283 982 OFFCURVE",
"386 892 OFFCURVE",
"458 752 CURVE",
"150 476 LINE",
"190 255 OFFCURVE",
"504 0 OFFCURVE",
"664 0 CURVE SMOOTH",
"1050 0 LINE",
"1323 67 OFFCURVE",
"1473 233 OFFCURVE",
"1500 500 CURVE",
"1500 896 LINE",
"1487 1013 OFFCURVE",
"1420 1099 OFFCURVE",
"1301 1154 CURVE",
"1379 1249 LINE",
"1473 1197 OFFCURVE",
"1543 1171 OFFCURVE",
"1588 1171 CURVE SMOOTH",
"1599 1171 OFFCURVE",
"1609 1173 OFFCURVE",
"1618 1176 CURVE SMOOTH",
"1659 1192 OFFCURVE",
"1687 1248 OFFCURVE",
"1700 1343 CURVE",
"1691 1339 OFFCURVE",
"1681 1337 OFFCURVE",
"1670 1337 CURVE SMOOTH",
"1609 1337 OFFCURVE",
"1508 1391 OFFCURVE",
"1366 1500 CURVE",
"1040 1052 LINE",
"1187 1025 OFFCURVE",
"1273 967 OFFCURVE",
"1300 876 CURVE",
"1300 500 LINE",
"1267 353 OFFCURVE",
"1183 253 OFFCURVE",
"1050 200 CURVE",
"664 200 LINE",
"548 265 OFFCURVE",
"464 341 OFFCURVE",
"411 429 CURVE",
"595 617 LINE SMOOTH"
);
},
{
closed = 1;
nodes = (
"1011 -121 OFFCURVE",
"994 -147 OFFCURVE",
"994 -171 CURVE SMOOTH",
"994 -184 OFFCURVE",
"999 -196 OFFCURVE",
"1008 -207 CURVE SMOOTH",
"1032 -237 OFFCURVE",
"1044 -270 OFFCURVE",
"1044 -307 CURVE SMOOTH",
"1044 -395 OFFCURVE",
"974 -501 OFFCURVE",
"835 -626 CURVE",
"747 -691 OFFCURVE",
"656 -739 OFFCURVE",
"563 -769 CURVE SMOOTH",
"489 -793 OFFCURVE",
"452 -825 OFFCURVE",
"452 -864 CURVE SMOOTH",
"452 -874 OFFCURVE",
"454 -885 OFFCURVE",
"459 -896 CURVE SMOOTH",
"475 -932 OFFCURVE",
"506 -950 OFFCURVE",
"552 -950 CURVE SMOOTH",
"576 -950 OFFCURVE",
"604 -945 OFFCURVE",
"637 -936 CURVE SMOOTH",
"752 -909 OFFCURVE",
"860 -858 OFFCURVE",
"959 -783 CURVE",
"1073 -706 OFFCURVE",
"1152 -610 OFFCURVE",
"1195 -495 CURVE",
"1242 -611 OFFCURVE",
"1288 -669 OFFCURVE",
"1332 -669 CURVE SMOOTH",
"1337 -669 OFFCURVE",
"1341 -668 OFFCURVE",
"1346 -667 CURVE SMOOTH",
"1394 -654 OFFCURVE",
"1418 -624 OFFCURVE",
"1418 -579 CURVE SMOOTH",
"1418 -538 OFFCURVE",
"1412 -510 OFFCURVE",
"1400 -495 CURVE SMOOTH",
"1369 -456 OFFCURVE",
"1337 -428 OFFCURVE",
"1302 -411 CURVE SMOOTH",
"1267 -393 OFFCURVE",
"1239 -337 OFFCURVE",
"1220 -243 CURVE",
"1217 -210 OFFCURVE",
"1206 -167 OFFCURVE",
"1188 -113 CURVE",
"1164 -82 OFFCURVE",
"1138 -67 OFFCURVE",
"1111 -67 CURVE SMOOTH",
"1090 -67 OFFCURVE",
"1069 -76 OFFCURVE",
"1046 -94 CURVE SMOOTH"
);
}
);
width = 1800;
}
);
note = uni17AC;
unicode = 17AC;
},
{
glyphname = uni17AD;
lastChange = "2021-04-30 13:13:23 +0000";
layers = (
{
layerId = "BB6B0684-34D4-4B80-99D1-F5F29B570554";
paths = (
{
closed = 1;
nodes = (
"1500 1186 OFFCURVE",
"1470 1236 OFFCURVE",
"1411 1285 CURVE SMOOTH",
"1152 1500 LINE",
"899 1322 LINE",
"645 1500 LINE",
"387 1285 LINE SMOOTH",
"329 1236 OFFCURVE",
"300 1186 OFFCURVE",
"300 1135 CURVE SMOOTH",
"300 370 LINE SMOOTH",
"300 203 OFFCURVE",
"458 0 OFFCURVE",
"587 0 CURVE SMOOTH",
"728 0 OFFCURVE",
"870 193 OFFCURVE",
"870 400 CURVE SMOOTH",
"870 580 OFFCURVE",
"782 670 OFFCURVE",
"607 670 CURVE SMOOTH",
"556 670 OFFCURVE",
"521 655 OFFCURVE",
"500 626 CURVE",
"500 1103 LINE",
"659 1235 LINE",
"899 1070 LINE",
"1139 1235 LINE",
"1300 1103 LINE",
"1300 500 LINE SMOOTH",
"1300 447 OFFCURVE",
"1275 396 OFFCURVE",
"1225 348 CURVE SMOOTH",
"1175 300 OFFCURVE",
"1150 248 OFFCURVE",
"1150 193 CURVE SMOOTH",
"1150 82 OFFCURVE",
"1310 0 OFFCURVE",
"1419 0 CURVE SMOOTH",
"1473 0 OFFCURVE",
"1500 33 OFFCURVE",
"1500 100 CURVE SMOOTH",
"1500 1135 LINE SMOOTH"
);
},
{
closed = 1;
nodes = (
"500 443 OFFCURVE",
"536 480 OFFCURVE",
"607 480 CURVE SMOOTH",
"649 480 OFFCURVE",
"670 453 OFFCURVE",
"670 400 CURVE SMOOTH",
"670 325 OFFCURVE",
"635 200 OFFCURVE",
"587 200 CURVE",
"542 220 OFFCURVE",
"513 277 OFFCURVE",
"500 370 CURVE"
);
},
{
closed = 1;
nodes = (
"1011 -121 OFFCURVE",
"994 -147 OFFCURVE",
"994 -171 CURVE SMOOTH",
"994 -184 OFFCURVE",
"999 -196 OFFCURVE",
"1008 -207 CURVE",
"1025 -245 OFFCURVE",
"1033 -282 OFFCURVE",
"1033 -319 CURVE SMOOTH",
"1033 -424 OFFCURVE",
"967 -526 OFFCURVE",
"835 -626 CURVE SMOOTH",
"747 -691 OFFCURVE",
"656 -739 OFFCURVE",
"563 -769 CURVE SMOOTH",
"489 -793 OFFCURVE",
"452 -825 OFFCURVE",
"452 -864 CURVE SMOOTH",
"452 -874 OFFCURVE",
"454 -885 OFFCURVE",
"459 -896 CURVE SMOOTH",
"475 -932 OFFCURVE",
"506 -950 OFFCURVE",
"552 -950 CURVE SMOOTH",
"576 -950 OFFCURVE",
"604 -945 OFFCURVE",
"637 -936 CURVE SMOOTH",
"752 -909 OFFCURVE",
"860 -858 OFFCURVE",
"959 -783 CURVE",
"1073 -706 OFFCURVE",
"1150 -621 OFFCURVE",
"1190 -526 CURVE SMOOTH",
"1217 -463 OFFCURVE",
"1230 -399 OFFCURVE",
"1230 -336 CURVE SMOOTH",
"1230 -305 OFFCURVE",
"1227 -274 OFFCURVE",
"1220 -243 CURVE",
"1217 -210 OFFCURVE",
"1206 -167 OFFCURVE",
"1188 -113 CURVE",
"1164 -82 OFFCURVE",
"1138 -67 OFFCURVE",
"1111 -67 CURVE SMOOTH",
"1090 -67 OFFCURVE",
"1069 -76 OFFCURVE",
"1046 -94 CURVE SMOOTH"
);
}
);
width = 1800;
}
);
note = uni17AD;
unicode = 17AD;
},
{
glyphname = uni17AE;
lastChange = "2021-04-30 13:13:23 +0000";
layers = (
{
layerId = "BB6B0684-34D4-4B80-99D1-F5F29B570554";
paths = (
{
closed = 1;
nodes = (
"1500 1186 OFFCURVE",
"1470 1236 OFFCURVE",
"1411 1285 CURVE SMOOTH",
"1152 1500 LINE",
"899 1322 LINE",
"645 1500 LINE",
"387 1285 LINE SMOOTH",
"329 1236 OFFCURVE",
"300 1186 OFFCURVE",
"300 1135 CURVE SMOOTH",
"300 370 LINE SMOOTH",
"300 203 OFFCURVE",
"458 0 OFFCURVE",
"587 0 CURVE SMOOTH",
"728 0 OFFCURVE",
"870 193 OFFCURVE",
"870 400 CURVE SMOOTH",
"870 580 OFFCURVE",
"782 670 OFFCURVE",
"607 670 CURVE SMOOTH",
"556 670 OFFCURVE",
"521 655 OFFCURVE",
"500 626 CURVE",
"500 1103 LINE",
"659 1235 LINE",
"899 1070 LINE",
"1139 1235 LINE",
"1300 1103 LINE",
"1300 500 LINE SMOOTH",
"1300 447 OFFCURVE",
"1275 396 OFFCURVE",
"1225 348 CURVE SMOOTH",
"1175 300 OFFCURVE",
"1150 248 OFFCURVE",
"1150 193 CURVE SMOOTH",
"1150 82 OFFCURVE",
"1310 0 OFFCURVE",
"1419 0 CURVE SMOOTH",
"1473 0 OFFCURVE",
"1500 33 OFFCURVE",
"1500 100 CURVE SMOOTH",
"1500 1135 LINE SMOOTH"
);
},
{
closed = 1;
nodes = (
"500 443 OFFCURVE",
"536 480 OFFCURVE",
"607 480 CURVE SMOOTH",
"649 480 OFFCURVE",
"670 453 OFFCURVE",
"670 400 CURVE SMOOTH",
"670 325 OFFCURVE",
"635 200 OFFCURVE",
"587 200 CURVE",
"542 220 OFFCURVE",
"513 277 OFFCURVE",
"500 370 CURVE"
);
},
{
closed = 1;
nodes = (
"1011 -121 OFFCURVE",
"994 -147 OFFCURVE",
"994 -171 CURVE SMOOTH",
"994 -184 OFFCURVE",
"999 -196 OFFCURVE",
"1008 -207 CURVE SMOOTH",
"1032 -237 OFFCURVE",
"1044 -270 OFFCURVE",
"1044 -307 CURVE SMOOTH",
"1044 -395 OFFCURVE",
"974 -501 OFFCURVE",
"835 -626 CURVE",
"747 -691 OFFCURVE",
"656 -739 OFFCURVE",
"563 -769 CURVE SMOOTH",
"489 -793 OFFCURVE",
"452 -825 OFFCURVE",
"452 -864 CURVE SMOOTH",
"452 -874 OFFCURVE",
"454 -885 OFFCURVE",
"459 -896 CURVE SMOOTH",
"475 -932 OFFCURVE",
"506 -950 OFFCURVE",
"552 -950 CURVE SMOOTH",
"576 -950 OFFCURVE",
"604 -945 OFFCURVE",
"637 -936 CURVE SMOOTH",
"752 -909 OFFCURVE",
"860 -858 OFFCURVE",
"959 -783 CURVE",
"1073 -706 OFFCURVE",
"1152 -610 OFFCURVE",
"1195 -495 CURVE",
"1242 -611 OFFCURVE",
"1288 -669 OFFCURVE",
"1332 -669 CURVE SMOOTH",
"1337 -669 OFFCURVE",
"1341 -668 OFFCURVE",
"1346 -667 CURVE SMOOTH",
"1394 -654 OFFCURVE",
"1418 -624 OFFCURVE",
"1418 -579 CURVE SMOOTH",
"1418 -538 OFFCURVE",
"1412 -510 OFFCURVE",
"1400 -495 CURVE SMOOTH",
"1369 -456 OFFCURVE",
"1337 -428 OFFCURVE",
"1302 -411 CURVE SMOOTH",
"1267 -393 OFFCURVE",
"1239 -337 OFFCURVE",
"1220 -243 CURVE",
"1217 -210 OFFCURVE",
"1206 -167 OFFCURVE",
"1188 -113 CURVE",
"1164 -82 OFFCURVE",
"1138 -67 OFFCURVE",
"1111 -67 CURVE SMOOTH",
"1090 -67 OFFCURVE",
"1069 -76 OFFCURVE",
"1046 -94 CURVE SMOOTH"
);
}
);
width = 1800;
}
);
note = uni17AE;
unicode = 17AE;
},
{
glyphname = uni17AF;
lastChange = "2021-04-30 13:13:23 +0000";
layers = (
{
layerId = "BB6B0684-34D4-4B80-99D1-F5F29B570554";
paths = (
{
closed = 1;
nodes = (
"648 684 OFFCURVE",
"740 834 OFFCURVE",
"740 884 CURVE SMOOTH",
"740 977 LINE SMOOTH",
"740 1038 OFFCURVE",
"698 1149 OFFCURVE",
"613 1309 CURVE SMOOTH",
"544 1436 OFFCURVE",
"493 1500 OFFCURVE",
"461 1500 CURVE SMOOTH",
"397 1500 OFFCURVE",
"200 1302 OFFCURVE",
"200 1111 CURVE SMOOTH",
"200 1016 OFFCURVE",
"235 966 OFFCURVE",
"306 961 CURVE SMOOTH",
"312 960 OFFCURVE",
"318 960 OFFCURVE",
"323 960 CURVE SMOOTH",
"384 960 OFFCURVE",
"420 983 OFFCURVE",
"433 1029 CURVE SMOOTH",
"437 1044 OFFCURVE",
"439 1058 OFFCURVE",
"439 1071 CURVE SMOOTH",
"439 1101 OFFCURVE",
"428 1126 OFFCURVE",
"405 1145 CURVE SMOOTH",
"385 1162 OFFCURVE",
"375 1176 OFFCURVE",
"375 1187 CURVE SMOOTH",
"375 1194 OFFCURVE",
"379 1199 OFFCURVE",
"386 1204 CURVE SMOOTH",
"391 1207 OFFCURVE",
"396 1208 OFFCURVE",
"401 1208 CURVE SMOOTH",
"417 1208 OFFCURVE",
"433 1195 OFFCURVE",
"450 1170 CURVE SMOOTH",
"512 1075 OFFCURVE",
"543 1005 OFFCURVE",
"543 960 CURVE SMOOTH",
"543 957 OFFCURVE",
"543 953 OFFCURVE",
"542 950 CURVE",
"533 882 LINE",
"200 476 LINE",
"217 403 OFFCURVE",
"267 311 OFFCURVE",
"352 200 CURVE SMOOTH",
"453 67 OFFCURVE",
"544 0 OFFCURVE",
"624 0 CURVE",
"889 206 LINE",
"1029 69 OFFCURVE",
"1121 0 OFFCURVE",
"1165 0 CURVE SMOOTH",
"1328 0 OFFCURVE",
"1500 247 OFFCURVE",
"1500 490 CURVE SMOOTH",
"1500 1500 LINE SMOOTH",
"1500 1660 OFFCURVE",
"1441 1800 OFFCURVE",
"1322 1919 CURVE SMOOTH",
"1157 2091 LINE SMOOTH",
"1119 2129 OFFCURVE",
"1085 2148 OFFCURVE",
"1054 2148 CURVE SMOOTH",
"1031 2148 OFFCURVE",
"1011 2137 OFFCURVE",
"992 2115 CURVE SMOOTH",
"977 2097 OFFCURVE",
"969 2078 OFFCURVE",
"969 2059 CURVE SMOOTH",
"969 2024 OFFCURVE",
"994 1986 OFFCURVE",
"1044 1946 CURVE",
"1186 1789 LINE",
"1262 1696 OFFCURVE",
"1300 1600 OFFCURVE",
"1300 1500 CURVE SMOOTH",
"1300 490 LINE",
"1301 484 OFFCURVE",
"1301 478 OFFCURVE",
"1301 472 CURVE SMOOTH",
"1301 427 OFFCURVE",
"1286 378 OFFCURVE",
"1256 327 CURVE SMOOTH",
"1221 269 OFFCURVE",
"1190 240 OFFCURVE",
"1163 240 CURVE",
"923 499 LINE",
"620 265 LINE",
"551 300 OFFCURVE",
"500 357 OFFCURVE",
"465 434 CURVE"
);
}
);
width = 1800;
}
);
note = uni17AF;
unicode = 17AF;
},
{
glyphname = uni17B0;
lastChange = "2021-04-30 13:13:23 +0000";
layers = (
{
layerId = "BB6B0684-34D4-4B80-99D1-F5F29B570554";
paths = (
{
closed = 1;
nodes = (
"1300 220 OFFCURVE",
"1255 6 OFFCURVE",
"1055 -226 CURVE SMOOTH",
"954 -342 OFFCURVE",
"804 -452 OFFCURVE",
"605 -556 CURVE SMOOTH",
"568 -575 OFFCURVE",
"550 -621 OFFCURVE",
"550 -694 CURVE SMOOTH",
"550 -841 OFFCURVE",
"680 -950 OFFCURVE",
"825 -950 CURVE SMOOTH",
"969 -950 OFFCURVE",
"1125 -866 OFFCURVE",
"1142 -647 CURVE",
"1187 -671 OFFCURVE",
"1231 -683 OFFCURVE",
"1274 -683 CURVE SMOOTH",
"1312 -683 OFFCURVE",
"1349 -673 OFFCURVE",
"1386 -654 CURVE SMOOTH",
"1462 -613 OFFCURVE",
"1500 -515 OFFCURVE",
"1500 -361 CURVE SMOOTH",
"1500 1135 LINE SMOOTH",
"1500 1186 OFFCURVE",
"1470 1236 OFFCURVE",
"1411 1285 CURVE SMOOTH",
"1152 1500 LINE",
"899 1322 LINE",
"645 1500 LINE",
"387 1285 LINE SMOOTH",
"329 1236 OFFCURVE",
"300 1186 OFFCURVE",
"300 1135 CURVE SMOOTH",
"300 370 LINE SMOOTH",
"300 203 OFFCURVE",
"458 0 OFFCURVE",
"587 0 CURVE SMOOTH",
"728 0 OFFCURVE",
"870 193 OFFCURVE",
"870 400 CURVE SMOOTH",
"870 580 OFFCURVE",
"782 670 OFFCURVE",
"607 670 CURVE SMOOTH",
"556 670 OFFCURVE",
"521 655 OFFCURVE",
"500 626 CURVE",
"500 1103 LINE",
"659 1235 LINE",
"899 1070 LINE",
"1139 1235 LINE",
"1300 1103 LINE",
"1300 500 LINE SMOOTH"
);
},
{
closed = 1;
nodes = (
"500 443 OFFCURVE",
"536 480 OFFCURVE",
"607 480 CURVE SMOOTH",
"649 480 OFFCURVE",
"670 453 OFFCURVE",
"670 400 CURVE SMOOTH",
"670 325 OFFCURVE",
"635 200 OFFCURVE",
"587 200 CURVE",
"542 220 OFFCURVE",
"513 277 OFFCURVE",
"500 370 CURVE"
);
},
{
closed = 1;
nodes = (
"1294 -256 OFFCURVE",
"1300 -292 OFFCURVE",
"1300 -361 CURVE SMOOTH",
"1300 -418 OFFCURVE",
"1285 -455 OFFCURVE",
"1256 -473 CURVE SMOOTH",
"1246 -479 OFFCURVE",
"1234 -482 OFFCURVE",
"1220 -482 CURVE SMOOTH",
"1191 -482 OFFCURVE",
"1154 -470 OFFCURVE",
"1109 -447 CURVE",
"1180 -392 OFFCURVE",
"1238 -327 OFFCURVE",
"1283 -253 CURVE"
);
},
{
closed = 1;
nodes = (
"794 -687 OFFCURVE",
"829 -667 OFFCURVE",
"855 -647 CURVE SMOOTH",
"881 -626 OFFCURVE",
"931 -591 OFFCURVE",
"1006 -540 CURVE",
"978 -682 OFFCURVE",
"929 -753 OFFCURVE",
"859 -753 CURVE SMOOTH",
"857 -753 LINE SMOOTH",
"786 -752 OFFCURVE",
"750 -736 OFFCURVE",
"750 -706 CURVE"
);
}
);
width = 1800;
}
);
note = uni17B0;
unicode = 17B0;
},
{
glyphname = uni17B1;
lastChange = "2021-04-30 13:13:23 +0000";
layers = (
{
layerId = "BB6B0684-34D4-4B80-99D1-F5F29B570554";
paths = (
{
closed = 1;
nodes = (
"952 1656 LINE SMOOTH",
"1031 1596 OFFCURVE",
"1121 1551 OFFCURVE",
"1222 1521 CURVE SMOOTH",
"1241 1515 OFFCURVE",
"1259 1512 OFFCURVE",
"1275 1512 CURVE SMOOTH",
"1320 1512 OFFCURVE",
"1350 1536 OFFCURVE",
"1364 1584 CURVE SMOOTH",
"1368 1597 OFFCURVE",
"1370 1610 OFFCURVE",
"1370 1622 CURVE SMOOTH",
"1370 1665 OFFCURVE",
"1342 1695 OFFCURVE",
"1287 1711 CURVE SMOOTH",
"1216 1732 OFFCURVE",
"1149 1767 OFFCURVE",
"1085 1815 CURVE SMOOTH",
"852 2002 LINE",
"807 2035 OFFCURVE",
"765 2052 OFFCURVE",
"725 2052 CURVE SMOOTH",
"679 2052 OFFCURVE",
"636 2031 OFFCURVE",
"597 1988 CURVE SMOOTH",
"480 1855 LINE SMOOTH",
"446 1817 OFFCURVE",
"429 1780 OFFCURVE",
"429 1745 CURVE SMOOTH",
"429 1700 OFFCURVE",
"457 1658 OFFCURVE",
"513 1619 CURVE SMOOTH",
"706 1484 LINE",
"621 1469 OFFCURVE",
"545 1445 OFFCURVE",
"477 1410 CURVE SMOOTH",
"359 1350 OFFCURVE",
"300 1250 OFFCURVE",
"300 1110 CURVE SMOOTH",
"300 903 OFFCURVE",
"399 800 OFFCURVE",
"596 800 CURVE SMOOTH",
"695 800 OFFCURVE",
"767 825 OFFCURVE",
"811 876 CURVE SMOOTH",
"839 909 OFFCURVE",
"853 944 OFFCURVE",
"853 982 CURVE SMOOTH",
"853 1002 OFFCURVE",
"849 1023 OFFCURVE",
"842 1045 CURVE SMOOTH",
"823 1096 OFFCURVE",
"787 1122 OFFCURVE",
"735 1122 CURVE SMOOTH",
"724 1122 OFFCURVE",
"713 1121 OFFCURVE",
"702 1119 CURVE SMOOTH",
"631 1106 OFFCURVE",
"596 1060 OFFCURVE",
"596 980 CURVE",
"532 980 OFFCURVE",
"500 1023 OFFCURVE",
"500 1110 CURVE SMOOTH",
"500 1237 OFFCURVE",
"633 1300 OFFCURVE",
"900 1300 CURVE SMOOTH",
"1167 1300 OFFCURVE",
"1300 1220 OFFCURVE",
"1300 1060 CURVE SMOOTH",
"1300 982 OFFCURVE",
"1086 794 OFFCURVE",
"659 496 CURVE",
"610 465 OFFCURVE",
"586 427 OFFCURVE",
"586 382 CURVE SMOOTH",
"586 330 OFFCURVE",
"618 269 OFFCURVE",
"681 199 CURVE SMOOTH",
"799 66 OFFCURVE",
"888 0 OFFCURVE",
"947 0 CURVE SMOOTH",
"979 1 OFFCURVE",
"1097 79 OFFCURVE",
"1300 234 CURVE",
"1300 40 LINE SMOOTH",
"1300 -7 OFFCURVE",
"1288 -52 OFFCURVE",
"1265 -95 CURVE SMOOTH",
"1258 -107 OFFCURVE",
"1255 -118 OFFCURVE",
"1255 -129 CURVE SMOOTH",
"1255 -157 OFFCURVE",
"1277 -180 OFFCURVE",
"1320 -198 CURVE SMOOTH",
"1338 -205 OFFCURVE",
"1355 -209 OFFCURVE",
"1370 -209 CURVE SMOOTH",
"1406 -209 OFFCURVE",
"1434 -189 OFFCURVE",
"1455 -148 CURVE SMOOTH",
"1485 -89 OFFCURVE",
"1500 -27 OFFCURVE",
"1500 40 CURVE SMOOTH",
"1500 402 LINE SMOOTH",
"1500 459 OFFCURVE",
"1465 487 OFFCURVE",
"1396 487 CURVE SMOOTH",
"1369 487 OFFCURVE",
"1337 483 OFFCURVE",
"1300 474 CURVE",
"950 225 LINE",
"836 356 LINE",
"1279 654 OFFCURVE",
"1500 889 OFFCURVE",
"1500 1060 CURVE SMOOTH",
"1500 1240 OFFCURVE",
"1441 1358 OFFCURVE",
"1324 1415 CURVE SMOOTH",
"1219 1465 OFFCURVE",
"1097 1493 OFFCURVE",
"956 1499 CURVE",
"644 1751 LINE",
"721 1833 LINE"
);
}
);
width = 1800;
}
);
note = uni17B1;
unicode = 17B1;
},
{
glyphname = uni17B2;
lastChange = "2021-04-30 13:13:23 +0000";
layers = (
{
layerId = "BB6B0684-34D4-4B80-99D1-F5F29B570554";
paths = (
{
closed = 1;
nodes = (
"1339 1225 OFFCURVE",
"1371 1214 OFFCURVE",
"1400 1214 CURVE SMOOTH",
"1415 1214 OFFCURVE",
"1430 1217 OFFCURVE",
"1443 1224 CURVE SMOOTH",
"1458 1231 OFFCURVE",
"1465 1243 OFFCURVE",
"1465 1260 CURVE SMOOTH",
"1465 1286 OFFCURVE",
"1447 1325 OFFCURVE",
"1410 1376 CURVE SMOOTH",
"1349 1459 OFFCURVE",
"1246 1500 OFFCURVE",
"1100 1500 CURVE SMOOTH",
"700 1500 LINE SMOOTH",
"433 1500 OFFCURVE",
"300 1367 OFFCURVE",
"300 1100 CURVE SMOOTH",
"300 400 LINE SMOOTH",
"300 133 OFFCURVE",
"433 0 OFFCURVE",
"700 0 CURVE SMOOTH",
"1100 0 LINE SMOOTH",
"1367 0 OFFCURVE",
"1500 133 OFFCURVE",
"1500 400 CURVE SMOOTH",
"1500 463 OFFCURVE",
"1479 515 OFFCURVE",
"1437 556 CURVE SMOOTH",
"1405 587 OFFCURVE",
"1361 609 OFFCURVE",
"1304 623 CURVE",
"1376 680 OFFCURVE",
"1428 733 OFFCURVE",
"1460 784 CURVE SMOOTH",
"1487 825 OFFCURVE",
"1500 860 OFFCURVE",
"1500 890 CURVE SMOOTH",
"1500 1041 OFFCURVE",
"1372 1150 OFFCURVE",
"1133 1150 CURVE SMOOTH",
"893 1150 OFFCURVE",
"767 1039 OFFCURVE",
"767 890 CURVE SMOOTH",
"767 803 OFFCURVE",
"845 700 OFFCURVE",
"949 700 CURVE SMOOTH",
"1050 700 OFFCURVE",
"1100 735 OFFCURVE",
"1100 806 CURVE SMOOTH",
"1100 864 OFFCURVE",
"1069 893 OFFCURVE",
"1007 893 CURVE SMOOTH",
"995 893 OFFCURVE",
"982 892 OFFCURVE",
"967 890 CURVE",
"967 911 OFFCURVE",
"981 927 OFFCURVE",
"1010 936 CURVE SMOOTH",
"1039 945 OFFCURVE",
"1080 950 OFFCURVE",
"1133 950 CURVE SMOOTH",
"1185 950 OFFCURVE",
"1226 946 OFFCURVE",
"1256 937 CURVE SMOOTH",
"1285 928 OFFCURVE",
"1300 912 OFFCURVE",
"1300 890 CURVE SMOOTH",
"1300 873 OFFCURVE",
"1285 848 OFFCURVE",
"1255 813 CURVE SMOOTH",
"1206 759 OFFCURVE",
"1127 698 OFFCURVE",
"1019 629 CURVE SMOOTH",
"976 601 OFFCURVE",
"955 572 OFFCURVE",
"955 541 CURVE SMOOTH",
"955 526 OFFCURVE",
"960 512 OFFCURVE",
"970 497 CURVE SMOOTH",
"986 471 OFFCURVE",
"1007 458 OFFCURVE",
"1033 458 CURVE SMOOTH",
"1053 458 OFFCURVE",
"1076 466 OFFCURVE",
"1102 482 CURVE SMOOTH",
"1131 500 LINE SMOOTH",
"1140 505 OFFCURVE",
"1148 511 OFFCURVE",
"1156 517 CURVE",
"1207 512 OFFCURVE",
"1242 500 OFFCURVE",
"1261 481 CURVE SMOOTH",
"1287 456 OFFCURVE",
"1300 429 OFFCURVE",
"1300 400 CURVE SMOOTH",
"1300 267 OFFCURVE",
"1233 200 OFFCURVE",
"1100 200 CURVE SMOOTH",
"700 200 LINE SMOOTH",
"567 200 OFFCURVE",
"500 267 OFFCURVE",
"500 400 CURVE SMOOTH",
"500 1100 LINE SMOOTH",
"500 1233 OFFCURVE",
"567 1300 OFFCURVE",
"700 1300 CURVE SMOOTH",
"1100 1300 LINE SMOOTH",
"1181 1300 OFFCURVE",
"1248 1283 OFFCURVE",
"1303 1248 CURVE SMOOTH"
);
}
);
width = 1800;
}
);
note = uni17B2;
unicode = 17B2;
},
{
glyphname = uni17B3;
lastChange = "2021-04-30 13:13:23 +0000";
layers = (
{
layerId = "BB6B0684-34D4-4B80-99D1-F5F29B570554";
paths = (
{
closed = 1;
nodes = (
"1500 2167 OFFCURVE",
"1467 2200 OFFCURVE",
"1400 2200 CURVE SMOOTH",
"1333 2200 OFFCURVE",
"1300 2167 OFFCURVE",
"1300 2100 CURVE SMOOTH",
"1300 1707 LINE",
"1296 1708 OFFCURVE",
"1292 1710 OFFCURVE",
"1287 1711 CURVE SMOOTH",
"1216 1732 OFFCURVE",
"1149 1767 OFFCURVE",
"1085 1815 CURVE SMOOTH",
"852 2002 LINE",
"807 2035 OFFCURVE",
"765 2052 OFFCURVE",
"725 2052 CURVE SMOOTH",
"679 2052 OFFCURVE",
"636 2031 OFFCURVE",
"597 1988 CURVE SMOOTH",
"480 1855 LINE SMOOTH",
"446 1817 OFFCURVE",
"429 1780 OFFCURVE",
"429 1745 CURVE SMOOTH",
"429 1700 OFFCURVE",
"457 1658 OFFCURVE",
"513 1619 CURVE SMOOTH",
"706 1484 LINE",
"621 1469 OFFCURVE",
"545 1445 OFFCURVE",
"477 1410 CURVE SMOOTH",
"359 1350 OFFCURVE",
"300 1250 OFFCURVE",
"300 1110 CURVE SMOOTH",
"300 903 OFFCURVE",
"399 800 OFFCURVE",
"596 800 CURVE SMOOTH",
"695 800 OFFCURVE",
"767 825 OFFCURVE",
"811 876 CURVE SMOOTH",
"839 909 OFFCURVE",
"853 944 OFFCURVE",
"853 982 CURVE SMOOTH",
"853 1002 OFFCURVE",
"849 1023 OFFCURVE",
"842 1045 CURVE SMOOTH",
"823 1096 OFFCURVE",
"787 1122 OFFCURVE",
"735 1122 CURVE SMOOTH",
"724 1122 OFFCURVE",
"713 1121 OFFCURVE",
"702 1119 CURVE SMOOTH",
"631 1106 OFFCURVE",
"596 1060 OFFCURVE",
"596 980 CURVE",
"532 980 OFFCURVE",
"500 1023 OFFCURVE",
"500 1110 CURVE SMOOTH",
"500 1237 OFFCURVE",
"633 1300 OFFCURVE",
"900 1300 CURVE SMOOTH",
"1167 1300 OFFCURVE",
"1300 1220 OFFCURVE",
"1300 1060 CURVE SMOOTH",
"1300 982 OFFCURVE",
"1086 794 OFFCURVE",
"659 496 CURVE",
"610 465 OFFCURVE",
"586 427 OFFCURVE",
"586 382 CURVE SMOOTH",
"586 330 OFFCURVE",
"618 269 OFFCURVE",
"681 199 CURVE SMOOTH",
"799 66 OFFCURVE",
"888 0 OFFCURVE",
"947 0 CURVE SMOOTH",
"979 1 OFFCURVE",
"1097 79 OFFCURVE",
"1300 234 CURVE",
"1300 40 LINE SMOOTH",
"1300 -7 OFFCURVE",
"1288 -52 OFFCURVE",
"1265 -95 CURVE SMOOTH",
"1258 -107 OFFCURVE",
"1255 -118 OFFCURVE",
"1255 -129 CURVE SMOOTH",
"1255 -157 OFFCURVE",
"1277 -180 OFFCURVE",
"1320 -198 CURVE SMOOTH",
"1338 -205 OFFCURVE",
"1355 -209 OFFCURVE",
"1370 -209 CURVE SMOOTH",
"1406 -209 OFFCURVE",
"1434 -189 OFFCURVE",
"1455 -148 CURVE SMOOTH",
"1485 -89 OFFCURVE",
"1500 -27 OFFCURVE",
"1500 40 CURVE SMOOTH",
"1500 402 LINE SMOOTH",
"1500 459 OFFCURVE",
"1465 487 OFFCURVE",
"1396 487 CURVE SMOOTH",
"1369 487 OFFCURVE",
"1337 483 OFFCURVE",
"1300 474 CURVE",
"950 225 LINE",
"836 356 LINE",
"1279 654 OFFCURVE",
"1500 889 OFFCURVE",
"1500 1060 CURVE SMOOTH",
"1500 1240 OFFCURVE",
"1441 1358 OFFCURVE",
"1324 1415 CURVE SMOOTH",
"1219 1465 OFFCURVE",
"1097 1493 OFFCURVE",
"956 1499 CURVE",
"644 1751 LINE",
"721 1833 LINE",
"952 1656 LINE SMOOTH",
"1031 1596 OFFCURVE",
"1121 1551 OFFCURVE",
"1222 1521 CURVE SMOOTH",
"1265 1508 OFFCURVE",
"1304 1502 OFFCURVE",
"1337 1502 CURVE SMOOTH",
"1446 1502 OFFCURVE",
"1500 1569 OFFCURVE",
"1500 1704 CURVE SMOOTH",
"1500 2100 LINE SMOOTH"
);
}
);
width = 1800;
}
);
note = uni17B3;
unicode = 17B3;
},
{
glyphname = uni17A3;
lastChange = "2021-04-30 13:13:23 +0000";
layers = (
{
layerId = "BB6B0684-34D4-4B80-99D1-F5F29B570554";
paths = (
{
closed = 1;
nodes = (
"1300 440 OFFCURVE",
"1267 382 OFFCURVE",
"1200 325 CURVE SMOOTH",
"1133 268 OFFCURVE",
"1100 215 OFFCURVE",
"1100 165 CURVE SMOOTH",
"1100 55 OFFCURVE",
"1138 0 OFFCURVE",
"1215 0 CURVE SMOOTH",
"1285 0 OFFCURVE",
"1350 37 OFFCURVE",
"1410 110 CURVE SMOOTH",
"1470 183 OFFCURVE",
"1500 310 OFFCURVE",
"1500 490 CURVE SMOOTH",
"1500 946 LINE SMOOTH",
"1500 1037 OFFCURVE",
"1447 1109 OFFCURVE",
"1341 1164 CURVE",
"1399 1249 LINE",
"1482 1197 OFFCURVE",
"1546 1171 OFFCURVE",
"1589 1171 CURVE SMOOTH",
"1600 1171 OFFCURVE",
"1609 1173 OFFCURVE",
"1618 1176 CURVE SMOOTH",
"1659 1192 OFFCURVE",
"1687 1248 OFFCURVE",
"1700 1343 CURVE",
"1691 1339 OFFCURVE",
"1681 1337 OFFCURVE",
"1670 1337 CURVE SMOOTH",
"1612 1337 OFFCURVE",
"1517 1391 OFFCURVE",
"1386 1500 CURVE",
"1100 1052 LINE",
"1233 1025 OFFCURVE",
"1300 967 OFFCURVE",
"1300 876 CURVE SMOOTH",
"1300 845 LINE",
"550 845 LINE",
"550 946 LINE SMOOTH",
"550 1037 OFFCURVE",
"497 1109 OFFCURVE",
"391 1164 CURVE",
"449 1249 LINE",
"548 1197 OFFCURVE",
"623 1171 OFFCURVE",
"674 1171 CURVE SMOOTH",
"687 1171 OFFCURVE",
"698 1173 OFFCURVE",
"708 1176 CURVE SMOOTH",
"756 1192 OFFCURVE",
"787 1248 OFFCURVE",
"800 1343 CURVE",
"791 1339 OFFCURVE",
"781 1337 OFFCURVE",
"769 1337 CURVE SMOOTH",
"706 1337 OFFCURVE",
"595 1391 OFFCURVE",
"436 1500 CURVE",
"150 1052 LINE",
"283 1025 OFFCURVE",
"350 967 OFFCURVE",
"350 876 CURVE SMOOTH",
"350 500 LINE SMOOTH",
"350 440 OFFCURVE",
"317 382 OFFCURVE",
"250 325 CURVE SMOOTH",
"183 268 OFFCURVE",
"150 215 OFFCURVE",
"150 165 CURVE SMOOTH",
"150 55 OFFCURVE",
"188 0 OFFCURVE",
"265 0 CURVE SMOOTH",
"335 0 OFFCURVE",
"400 37 OFFCURVE",
"460 110 CURVE SMOOTH",
"520 183 OFFCURVE",
"550 310 OFFCURVE",
"550 490 CURVE SMOOTH",
"550 645 LINE",
"1300 645 LINE",
"1300 500 LINE SMOOTH"
);
}
);
width = 1800;
}
);
note = uni17A3;
unicode = 17A3;
},
{
glyphname = uni17A4;
lastChange = "2021-04-30 13:13:23 +0000";
layers = (
{
layerId = "BB6B0684-34D4-4B80-99D1-F5F29B570554";
paths = (
{
closed = 1;
nodes = (
"1500 982 OFFCURVE",
"1492 1015 OFFCURVE",
"1475 1045 CURVE",
"1799 1277 LINE",
"2250 1022 LINE",
"2250 500 LINE SMOOTH",
"2250 447 OFFCURVE",
"2225 396 OFFCURVE",
"2175 348 CURVE SMOOTH",
"2125 300 OFFCURVE",
"2100 248 OFFCURVE",
"2100 193 CURVE SMOOTH",
"2100 82 OFFCURVE",
"2260 0 OFFCURVE",
"2369 0 CURVE SMOOTH",
"2423 0 OFFCURVE",
"2450 33 OFFCURVE",
"2450 100 CURVE SMOOTH",
"2450 1140 LINE",
"2059 1380 OFFCURVE",
"1844 1500 OFFCURVE",
"1805 1500 CURVE SMOOTH",
"1767 1500 OFFCURVE",
"1566 1374 OFFCURVE",
"1201 1122 CURVE SMOOTH",
"1176 1105 OFFCURVE",
"1164 1086 OFFCURVE",
"1164 1066 CURVE SMOOTH",
"1164 1045 OFFCURVE",
"1175 1031 OFFCURVE",
"1198 1023 CURVE SMOOTH",
"1266 1000 OFFCURVE",
"1300 951 OFFCURVE",
"1300 876 CURVE SMOOTH",
"1300 845 LINE",
"550 845 LINE",
"550 946 LINE SMOOTH",
"550 1037 OFFCURVE",
"497 1109 OFFCURVE",
"391 1164 CURVE",
"449 1249 LINE",
"548 1197 OFFCURVE",
"623 1171 OFFCURVE",
"674 1171 CURVE SMOOTH",
"687 1171 OFFCURVE",
"698 1173 OFFCURVE",
"708 1176 CURVE SMOOTH",
"756 1192 OFFCURVE",
"787 1248 OFFCURVE",
"800 1343 CURVE",
"791 1339 OFFCURVE",
"781 1337 OFFCURVE",
"769 1337 CURVE SMOOTH",
"706 1337 OFFCURVE",
"595 1391 OFFCURVE",
"436 1500 CURVE",
"150 1052 LINE",
"283 1025 OFFCURVE",
"350 967 OFFCURVE",
"350 876 CURVE SMOOTH",
"350 500 LINE SMOOTH",
"350 440 OFFCURVE",
"317 382 OFFCURVE",
"250 325 CURVE SMOOTH",
"183 268 OFFCURVE",
"150 215 OFFCURVE",
"150 165 CURVE SMOOTH",
"150 55 OFFCURVE",
"188 0 OFFCURVE",
"265 0 CURVE SMOOTH",
"335 0 OFFCURVE",
"400 37 OFFCURVE",
"460 110 CURVE SMOOTH",
"520 183 OFFCURVE",
"550 310 OFFCURVE",
"550 490 CURVE SMOOTH",
"550 645 LINE",
"1300 645 LINE",
"1300 500 LINE SMOOTH",
"1300 440 OFFCURVE",
"1267 382 OFFCURVE",
"1200 325 CURVE SMOOTH",
"1133 268 OFFCURVE",
"1100 215 OFFCURVE",
"1100 165 CURVE SMOOTH",
"1100 55 OFFCURVE",
"1138 0 OFFCURVE",
"1215 0 CURVE SMOOTH",
"1285 0 OFFCURVE",
"1350 37 OFFCURVE",
"1410 110 CURVE SMOOTH",
"1470 183 OFFCURVE",
"1500 310 OFFCURVE",
"1500 490 CURVE SMOOTH",
"1500 946 LINE SMOOTH"
);
}
);
width = 2750;
}
);
note = uni17A4;
unicode = 17A4;
},
{
glyphname = uni17B6;
lastChange = "2021-04-30 13:13:23 +0000";
layers = (
{
layerId = "BB6B0684-34D4-4B80-99D1-F5F29B570554";
paths = (
{
closed = 1;
nodes = (
"300 447 OFFCURVE",
"275 396 OFFCURVE",
"225 348 CURVE SMOOTH",
"175 300 OFFCURVE",
"150 248 OFFCURVE",
"150 193 CURVE SMOOTH",
"150 82 OFFCURVE",
"310 0 OFFCURVE",
"419 0 CURVE SMOOTH",
"473 0 OFFCURVE",
"500 33 OFFCURVE",
"500 100 CURVE SMOOTH",
"500 1140 LINE",
"123 1380 OFFCURVE",
"-86 1500 OFFCURVE",
"-125 1500 CURVE SMOOTH",
"-165 1500 OFFCURVE",
"-319 1388 OFFCURVE",
"-586 1164 CURVE",
"-506 951 LINE",
"-131 1277 LINE",
"300 1032 LINE",
"300 500 LINE SMOOTH"
);
}
);
width = 800;
}
);
note = uni17B6;
unicode = 17B6;
},
{
glyphname = uni17BF;
lastChange = "2021-04-30 13:13:23 +0000";
layers = (
{
layerId = "BB6B0684-34D4-4B80-99D1-F5F29B570554";
paths = (
{
closed = 1;
nodes = (
"320 2617 OFFCURVE",
"287 2650 OFFCURVE",
"220 2650 CURVE SMOOTH",
"153 2650 OFFCURVE",
"120 2617 OFFCURVE",
"120 2550 CURVE SMOOTH",
"120 2275 LINE",
"10 2337 LINE",
"10 2550 LINE SMOOTH",
"10 2617 OFFCURVE",
"-23 2650 OFFCURVE",
"-90 2650 CURVE SMOOTH",
"-157 2650 OFFCURVE",
"-190 2617 OFFCURVE",
"-190 2550 CURVE SMOOTH",
"-190 2449 LINE",
"-380 2556 LINE SMOOTH",
"-432 2585 OFFCURVE",
"-475 2600 OFFCURVE",
"-509 2600 CURVE SMOOTH",
"-543 2600 OFFCURVE",
"-580 2567 OFFCURVE",
"-620 2500 CURVE SMOOTH",
"-740 2300 LINE SMOOTH",
"-780 2233 OFFCURVE",
"-800 2167 OFFCURVE",
"-800 2100 CURVE SMOOTH",
"-800 2033 OFFCURVE",
"-727 2000 OFFCURVE",
"-580 2000 CURVE SMOOTH",
"55 2000 LINE",
"218 1959 OFFCURVE",
"300 1833 OFFCURVE",
"300 1620 CURVE SMOOTH",
"300 -650 LINE SMOOTH",
"300 -717 OFFCURVE",
"267 -750 OFFCURVE",
"200 -750 CURVE SMOOTH",
"-200 -750 LINE SMOOTH",
"-267 -750 OFFCURVE",
"-300 -717 OFFCURVE",
"-300 -650 CURVE SMOOTH",
"-300 -300 LINE SMOOTH",
"-300 -233 OFFCURVE",
"-333 -200 OFFCURVE",
"-400 -200 CURVE SMOOTH",
"-467 -200 OFFCURVE",
"-500 -233 OFFCURVE",
"-500 -300 CURVE SMOOTH",
"-500 -650 LINE SMOOTH",
"-500 -850 OFFCURVE",
"-400 -950 OFFCURVE",
"-200 -950 CURVE SMOOTH",
"200 -950 LINE SMOOTH",
"400 -950 OFFCURVE",
"500 -850 OFFCURVE",
"500 -650 CURVE SMOOTH",
"500 1620 LINE SMOOTH",
"500 1860 OFFCURVE",
"440 2028 OFFCURVE",
"320 2125 CURVE",
"320 2550 LINE SMOOTH"
);
},
{
closed = 1;
nodes = (
"-580 2200 LINE",
"-482 2379 LINE",
"-120 2200 LINE"
);
}
);
width = 800;
}
);
note = uni17BF;
unicode = 17BF;
},
{
glyphname = uni17C0;
lastChange = "2021-04-30 13:13:23 +0000";
layers = (
{
layerId = "BB6B0684-34D4-4B80-99D1-F5F29B570554";
paths = (
{
closed = 1;
nodes = (
"500 2100 OFFCURVE",
"367 2300 OFFCURVE",
"100 2300 CURVE SMOOTH",
"5 2300 OFFCURVE",
"-64 2292 OFFCURVE",
"-108 2276 CURVE",
"-83 2337 OFFCURVE",
"-65 2399 OFFCURVE",
"-54 2460 CURVE SMOOTH",
"-45 2507 OFFCURVE",
"-41 2548 OFFCURVE",
"-41 2581 CURVE SMOOTH",
"-41 2660 OFFCURVE",
"-66 2700 OFFCURVE",
"-115 2700 CURVE SMOOTH",
"-185 2700 OFFCURVE",
"-224 2672 OFFCURVE",
"-231 2615 CURVE SMOOTH",
"-253 2444 OFFCURVE",
"-326 2282 OFFCURVE",
"-449 2130 CURVE SMOOTH",
"-486 2083 OFFCURVE",
"-505 2044 OFFCURVE",
"-505 2011 CURVE SMOOTH",
"-505 1984 OFFCURVE",
"-492 1962 OFFCURVE",
"-466 1945 CURVE SMOOTH",
"-447 1932 OFFCURVE",
"-428 1926 OFFCURVE",
"-408 1926 CURVE SMOOTH",
"-368 1926 OFFCURVE",
"-326 1952 OFFCURVE",
"-281 2003 CURVE",
"-212 2068 OFFCURVE",
"-85 2100 OFFCURVE",
"100 2100 CURVE SMOOTH",
"233 2100 OFFCURVE",
"300 1967 OFFCURVE",
"300 1700 CURVE SMOOTH",
"300 -650 LINE SMOOTH",
"300 -717 OFFCURVE",
"267 -750 OFFCURVE",
"200 -750 CURVE SMOOTH",
"-200 -750 LINE SMOOTH",
"-267 -750 OFFCURVE",
"-300 -717 OFFCURVE",
"-300 -650 CURVE SMOOTH",
"-300 -300 LINE SMOOTH",
"-300 -233 OFFCURVE",
"-333 -200 OFFCURVE",
"-400 -200 CURVE SMOOTH",
"-467 -200 OFFCURVE",
"-500 -233 OFFCURVE",
"-500 -300 CURVE SMOOTH",
"-500 -650 LINE SMOOTH",
"-500 -850 OFFCURVE",
"-400 -950 OFFCURVE",
"-200 -950 CURVE SMOOTH",
"200 -950 LINE SMOOTH",
"400 -950 OFFCURVE",
"500 -850 OFFCURVE",
"500 -650 CURVE SMOOTH",
"500 1700 LINE SMOOTH"
);
}
);
width = 800;
}
);
note = uni17C0;
unicode = 17C0;
},
{
glyphname = uni17C1;
lastChange = "2021-04-30 13:13:23 +0000";
layers = (
{
layerId = "BB6B0684-34D4-4B80-99D1-F5F29B570554";
paths = (
{
closed = 1;
nodes = (
"533 1116 OFFCURVE",
"563 1103 OFFCURVE",
"588 1103 CURVE SMOOTH",
"595 1103 OFFCURVE",
"601 1104 OFFCURVE",
"608 1106 CURVE SMOOTH",
"656 1122 OFFCURVE",
"687 1178 OFFCURVE",
"700 1273 CURVE",
"693 1270 OFFCURVE",
"686 1268 OFFCURVE",
"678 1268 CURVE SMOOTH",
"620 1268 OFFCURVE",
"523 1345 OFFCURVE",
"386 1500 CURVE",
"300 1500 LINE",
"300 400 LINE SMOOTH",
"300 93 OFFCURVE",
"445 0 OFFCURVE",
"585 0 CURVE SMOOTH",
"662 0 OFFCURVE",
"700 55 OFFCURVE",
"700 165 CURVE SMOOTH",
"700 215 OFFCURVE",
"667 268 OFFCURVE",
"600 325 CURVE SMOOTH",
"533 382 OFFCURVE",
"500 440 OFFCURVE",
"500 500 CURVE SMOOTH",
"500 1143 LINE"
);
}
);
width = 800;
}
);
note = uni17C1;
unicode = 17C1;
},
{
glyphname = uni17C2;
lastChange = "2021-04-30 13:13:23 +0000";
layers = (
{
layerId = "BB6B0684-34D4-4B80-99D1-F5F29B570554";
paths = (
{
closed = 1;
nodes = (
"819 2553 OFFCURVE",
"813 2554 OFFCURVE",
"808 2554 CURVE SMOOTH",
"761 2554 OFFCURVE",
"700 2476 OFFCURVE",
"624 2321 CURVE SMOOTH",
"496 2060 LINE",
"288 2036 LINE SMOOTH",
"229 2029 OFFCURVE",
"200 1996 OFFCURVE",
"200 1937 CURVE SMOOTH",
"200 1930 OFFCURVE",
"200 1923 OFFCURVE",
"201 1916 CURVE SMOOTH",
"222 1697 LINE SMOOTH",
"229 1632 OFFCURVE",
"259 1600 OFFCURVE",
"312 1600 CURVE SMOOTH",
"318 1600 OFFCURVE",
"325 1600 OFFCURVE",
"332 1601 CURVE SMOOTH",
"530 1628 LINE SMOOTH",
"589 1636 OFFCURVE",
"618 1658 OFFCURVE",
"618 1693 CURVE SMOOTH",
"618 1697 OFFCURVE",
"618 1701 OFFCURVE",
"617 1706 CURVE SMOOTH",
"610 1743 OFFCURVE",
"581 1761 OFFCURVE",
"531 1761 CURVE SMOOTH",
"522 1761 OFFCURVE",
"512 1760 OFFCURVE",
"501 1759 CURVE SMOOTH",
"398 1746 LINE",
"390 1840 LINE",
"617 1863 LINE",
"756 2192 LINE SMOOTH",
"817 2337 OFFCURVE",
"848 2438 OFFCURVE",
"848 2496 CURVE SMOOTH",
"848 2526 OFFCURVE",
"840 2544 OFFCURVE",
"824 2551 CURVE SMOOTH"
);
},
{
closed = 1;
nodes = (
"533 1116 OFFCURVE",
"563 1103 OFFCURVE",
"588 1103 CURVE SMOOTH",
"595 1103 OFFCURVE",
"601 1104 OFFCURVE",
"608 1106 CURVE SMOOTH",
"656 1122 OFFCURVE",
"687 1178 OFFCURVE",
"700 1273 CURVE",
"693 1270 OFFCURVE",
"686 1268 OFFCURVE",
"678 1268 CURVE SMOOTH",
"620 1268 OFFCURVE",
"523 1345 OFFCURVE",
"386 1500 CURVE",
"300 1500 LINE",
"300 400 LINE SMOOTH",
"300 93 OFFCURVE",
"445 0 OFFCURVE",
"585 0 CURVE SMOOTH",
"662 0 OFFCURVE",
"700 55 OFFCURVE",
"700 165 CURVE SMOOTH",
"700 215 OFFCURVE",
"667 268 OFFCURVE",
"600 325 CURVE SMOOTH",
"533 382 OFFCURVE",
"500 440 OFFCURVE",
"500 500 CURVE SMOOTH",
"500 1143 LINE"
);
}
);
width = 800;
}
);
note = uni17C2;
unicode = 17C2;
},
{
glyphname = uni17C3;
lastChange = "2021-04-30 13:13:23 +0000";
layers = (
{
layerId = "BB6B0684-34D4-4B80-99D1-F5F29B570554";
paths = (
{
closed = 1;
nodes = (
"8 2544 OFFCURVE",
"0 2526 OFFCURVE",
"0 2496 CURVE SMOOTH",
"0 2438 OFFCURVE",
"31 2337 OFFCURVE",
"92 2192 CURVE SMOOTH",
"231 1863 LINE",
"458 1840 LINE",
"450 1746 LINE",
"347 1759 LINE SMOOTH",
"336 1760 OFFCURVE",
"326 1761 OFFCURVE",
"317 1761 CURVE SMOOTH",
"267 1761 OFFCURVE",
"238 1743 OFFCURVE",
"231 1706 CURVE SMOOTH",
"230 1701 OFFCURVE",
"230 1697 OFFCURVE",
"230 1693 CURVE SMOOTH",
"230 1658 OFFCURVE",
"259 1636 OFFCURVE",
"318 1628 CURVE SMOOTH",
"516 1601 LINE SMOOTH",
"523 1600 OFFCURVE",
"530 1600 OFFCURVE",
"536 1600 CURVE SMOOTH",
"589 1600 OFFCURVE",
"619 1632 OFFCURVE",
"626 1697 CURVE SMOOTH",
"647 1916 LINE SMOOTH",
"648 1923 OFFCURVE",
"648 1930 OFFCURVE",
"648 1937 CURVE SMOOTH",
"648 1996 OFFCURVE",
"619 2029 OFFCURVE",
"560 2036 CURVE SMOOTH",
"352 2060 LINE",
"224 2321 LINE SMOOTH",
"148 2476 OFFCURVE",
"87 2554 OFFCURVE",
"40 2554 CURVE SMOOTH",
"35 2554 OFFCURVE",
"29 2553 OFFCURVE",
"24 2551 CURVE SMOOTH"
);
},
{
closed = 1;
nodes = (
"533 1116 OFFCURVE",
"563 1103 OFFCURVE",
"588 1103 CURVE SMOOTH",
"595 1103 OFFCURVE",
"601 1104 OFFCURVE",
"608 1106 CURVE SMOOTH",
"656 1122 OFFCURVE",
"687 1178 OFFCURVE",
"700 1273 CURVE",
"693 1270 OFFCURVE",
"686 1268 OFFCURVE",
"678 1268 CURVE SMOOTH",
"620 1268 OFFCURVE",
"523 1345 OFFCURVE",
"386 1500 CURVE",
"300 1500 LINE",
"300 400 LINE SMOOTH",
"300 93 OFFCURVE",
"445 0 OFFCURVE",
"585 0 CURVE SMOOTH",
"662 0 OFFCURVE",
"700 55 OFFCURVE",
"700 165 CURVE SMOOTH",
"700 215 OFFCURVE",
"667 268 OFFCURVE",
"600 325 CURVE SMOOTH",
"533 382 OFFCURVE",
"500 440 OFFCURVE",
"500 500 CURVE SMOOTH",
"500 1143 LINE"
);
}
);
width = 800;
}
);
note = uni17C3;
unicode = 17C3;
},
{
glyphname = uni17C4;
lastChange = "2021-04-30 13:13:23 +0000";
layers = (
{
layerId = "BB6B0684-34D4-4B80-99D1-F5F29B570554";
paths = (
{
closed = 1;
nodes = (
"300 447 OFFCURVE",
"275 396 OFFCURVE",
"225 348 CURVE SMOOTH",
"175 300 OFFCURVE",
"150 248 OFFCURVE",
"150 193 CURVE SMOOTH",
"150 82 OFFCURVE",
"310 0 OFFCURVE",
"419 0 CURVE SMOOTH",
"473 0 OFFCURVE",
"500 33 OFFCURVE",
"500 100 CURVE SMOOTH",
"500 1140 LINE",
"123 1380 OFFCURVE",
"-86 1500 OFFCURVE",
"-125 1500 CURVE SMOOTH",
"-165 1500 OFFCURVE",
"-319 1388 OFFCURVE",
"-586 1164 CURVE",
"-506 951 LINE",
"-131 1277 LINE",
"300 1032 LINE",
"300 500 LINE SMOOTH"
);
}
);
width = 800;
}
);
note = uni17C4;
unicode = 17C4;
},
{
glyphname = uni17C5;
lastChange = "2021-04-30 13:13:23 +0000";
layers = (
{
layerId = "BB6B0684-34D4-4B80-99D1-F5F29B570554";
paths = (
{
closed = 1;
nodes = (
"567 1033 OFFCURVE",
"600 1100 OFFCURVE",
"600 1200 CURVE SMOOTH",
"600 1670 LINE SMOOTH",
"600 1823 OFFCURVE",
"533 1900 OFFCURVE",
"400 1900 CURVE SMOOTH",
"333 1900 OFFCURVE",
"300 1875 OFFCURVE",
"300 1825 CURVE SMOOTH",
"300 1775 OFFCURVE",
"317 1743 OFFCURVE",
"350 1730 CURVE SMOOTH",
"383 1717 OFFCURVE",
"400 1697 OFFCURVE",
"400 1670 CURVE SMOOTH",
"400 1203 LINE",
"86 1401 OFFCURVE",
"-89 1500 OFFCURVE",
"-125 1500 CURVE SMOOTH",
"-156 1500 OFFCURVE",
"-258 1431 OFFCURVE",
"-429 1293 CURVE",
"-298 1132 LINE",
"-131 1277 LINE",
"300 1032 LINE",
"300 500 LINE SMOOTH",
"300 447 OFFCURVE",
"275 396 OFFCURVE",
"225 348 CURVE SMOOTH",
"175 300 OFFCURVE",
"150 248 OFFCURVE",
"150 193 CURVE SMOOTH",
"150 82 OFFCURVE",
"310 0 OFFCURVE",
"419 0 CURVE SMOOTH",
"473 0 OFFCURVE",
"500 33 OFFCURVE",
"500 100 CURVE SMOOTH",
"500 1000 LINE"
);
}
);
width = 800;
}
);
note = uni17C5;
unicode = 17C5;
},
{
glyphname = uni17C7;
lastChange = "2021-04-30 13:13:23 +0000";
layers = (
{
layerId = "BB6B0684-34D4-4B80-99D1-F5F29B570554";
paths = (
{
closed = 1;
nodes = (
"800 1283 OFFCURVE",
"780 1346 OFFCURVE",
"739 1388 CURVE SMOOTH",
"698 1429 OFFCURVE",
"635 1450 OFFCURVE",
"550 1450 CURVE SMOOTH",
"467 1450 OFFCURVE",
"404 1429 OFFCURVE",
"363 1388 CURVE SMOOTH",
"321 1346 OFFCURVE",
"300 1283 OFFCURVE",
"300 1200 CURVE SMOOTH",
"300 1117 OFFCURVE",
"321 1054 OFFCURVE",
"363 1012 CURVE SMOOTH",
"404 971 OFFCURVE",
"467 950 OFFCURVE",
"550 950 CURVE SMOOTH",
"635 950 OFFCURVE",
"698 971 OFFCURVE",
"739 1012 CURVE SMOOTH",
"780 1054 OFFCURVE",
"800 1117 OFFCURVE",
"800 1200 CURVE SMOOTH"
);
},
{
closed = 1;
nodes = (
"475 1225 OFFCURVE",
"482 1244 OFFCURVE",
"495 1256 CURVE SMOOTH",
"508 1269 OFFCURVE",
"526 1275 OFFCURVE",
"550 1275 CURVE SMOOTH",
"576 1275 OFFCURVE",
"595 1269 OFFCURVE",
"607 1256 CURVE SMOOTH",
"619 1244 OFFCURVE",
"625 1225 OFFCURVE",
"625 1200 CURVE SMOOTH",
"625 1175 OFFCURVE",
"619 1157 OFFCURVE",
"607 1144 CURVE SMOOTH",
"595 1131 OFFCURVE",
"576 1125 OFFCURVE",
"550 1125 CURVE SMOOTH",
"526 1125 OFFCURVE",
"508 1131 OFFCURVE",
"495 1144 CURVE SMOOTH",
"482 1157 OFFCURVE",
"475 1175 OFFCURVE",
"475 1200 CURVE SMOOTH"
);
},
{
closed = 1;
nodes = (
"800 383 OFFCURVE",
"780 446 OFFCURVE",
"739 488 CURVE SMOOTH",
"698 529 OFFCURVE",
"635 550 OFFCURVE",
"550 550 CURVE SMOOTH",
"467 550 OFFCURVE",
"404 529 OFFCURVE",
"363 488 CURVE SMOOTH",
"321 446 OFFCURVE",
"300 383 OFFCURVE",
"300 300 CURVE SMOOTH",
"300 217 OFFCURVE",
"321 154 OFFCURVE",
"363 112 CURVE SMOOTH",
"404 71 OFFCURVE",
"467 50 OFFCURVE",
"550 50 CURVE SMOOTH",
"635 50 OFFCURVE",
"698 71 OFFCURVE",
"739 112 CURVE SMOOTH",
"780 154 OFFCURVE",
"800 217 OFFCURVE",
"800 300 CURVE SMOOTH"
);
},
{
closed = 1;
nodes = (
"475 325 OFFCURVE",
"482 344 OFFCURVE",
"495 356 CURVE SMOOTH",
"508 369 OFFCURVE",
"526 375 OFFCURVE",
"550 375 CURVE SMOOTH",
"576 375 OFFCURVE",
"595 369 OFFCURVE",
"607 356 CURVE SMOOTH",
"619 344 OFFCURVE",
"625 325 OFFCURVE",
"625 300 CURVE SMOOTH",
"625 275 OFFCURVE",
"619 257 OFFCURVE",
"607 244 CURVE SMOOTH",
"595 231 OFFCURVE",
"576 225 OFFCURVE",
"550 225 CURVE SMOOTH",
"526 225 OFFCURVE",
"508 231 OFFCURVE",
"495 244 CURVE SMOOTH",
"482 257 OFFCURVE",
"475 275 OFFCURVE",
"475 300 CURVE SMOOTH"
);
}
);
width = 1100;
}
);
note = uni17C7;
unicode = 17C7;
},
{
glyphname = uni17C8;
lastChange = "2021-04-30 13:13:23 +0000";
layers = (
{
layerId = "BB6B0684-34D4-4B80-99D1-F5F29B570554";
paths = (
{
closed = 1;
nodes = (
"416 1400 OFFCURVE",
"355 1369 OFFCURVE",
"324 1313 CURVE SMOOTH",
"308 1285 OFFCURVE",
"300 1256 OFFCURVE",
"300 1225 CURVE SMOOTH",
"300 1164 OFFCURVE",
"332 1104 OFFCURVE",
"388 1073 CURVE SMOOTH",
"416 1058 OFFCURVE",
"445 1050 OFFCURVE",
"475 1050 CURVE SMOOTH",
"535 1050 OFFCURVE",
"596 1082 OFFCURVE",
"627 1138 CURVE SMOOTH",
"642 1165 OFFCURVE",
"650 1194 OFFCURVE",
"650 1225 CURVE SMOOTH",
"650 1286 OFFCURVE",
"617 1348 OFFCURVE",
"561 1378 CURVE SMOOTH",
"533 1393 OFFCURVE",
"504 1400 OFFCURVE",
"475 1400 CURVE SMOOTH"
);
},
{
closed = 1;
nodes = (
"416 450 OFFCURVE",
"355 419 OFFCURVE",
"324 363 CURVE SMOOTH",
"308 335 OFFCURVE",
"300 306 OFFCURVE",
"300 275 CURVE SMOOTH",
"300 214 OFFCURVE",
"332 154 OFFCURVE",
"388 123 CURVE SMOOTH",
"416 108 OFFCURVE",
"445 100 OFFCURVE",
"475 100 CURVE SMOOTH",
"535 100 OFFCURVE",
"596 132 OFFCURVE",
"627 188 CURVE SMOOTH",
"642 215 OFFCURVE",
"650 244 OFFCURVE",
"650 275 CURVE SMOOTH",
"650 336 OFFCURVE",
"617 398 OFFCURVE",
"561 428 CURVE SMOOTH",
"533 443 OFFCURVE",
"504 450 OFFCURVE",
"475 450 CURVE SMOOTH"
);
}
);
width = 900;
}
);
note = uni17C8;
unicode = 17C8;
},
{
glyphname = uni17DC;
lastChange = "2021-04-30 13:13:24 +0000";
layers = (
{
layerId = "BB6B0684-34D4-4B80-99D1-F5F29B570554";
paths = (
{
closed = 1;
nodes = (
"988 -10 OFFCURVE",
"1150 123 OFFCURVE",
"1150 359 CURVE SMOOTH",
"1150 564 OFFCURVE",
"994 658 OFFCURVE",
"675 658 CURVE SMOOTH",
"543 658 OFFCURVE",
"466 671 OFFCURVE",
"422 724 CURVE SMOOTH",
"399 751 OFFCURVE",
"388 790 OFFCURVE",
"388 842 CURVE SMOOTH",
"388 974 OFFCURVE",
"487 1055 OFFCURVE",
"675 1055 CURVE SMOOTH",
"864 1055 OFFCURVE",
"963 1002 OFFCURVE",
"963 910 CURVE SMOOTH",
"963 871 OFFCURVE",
"949 851 OFFCURVE",
"922 851 CURVE SMOOTH",
"882 851 OFFCURVE",
"862 832 OFFCURVE",
"862 793 CURVE SMOOTH",
"862 754 OFFCURVE",
"882 734 OFFCURVE",
"922 734 CURVE SMOOTH",
"1027 734 OFFCURVE",
"1091 750 OFFCURVE",
"1125 802 CURVE SMOOTH",
"1142 827 OFFCURVE",
"1150 863 OFFCURVE",
"1150 910 CURVE SMOOTH",
"1150 1106 OFFCURVE",
"990 1210 OFFCURVE",
"675 1210 CURVE SMOOTH",
"362 1210 OFFCURVE",
"200 1078 OFFCURVE",
"200 842 CURVE SMOOTH",
"200 637 OFFCURVE",
"356 543 OFFCURVE",
"675 543 CURVE SMOOTH",
"808 543 OFFCURVE",
"884 531 OFFCURVE",
"929 478 CURVE SMOOTH",
"952 451 OFFCURVE",
"963 412 OFFCURVE",
"963 360 CURVE SMOOTH",
"963 227 OFFCURVE",
"864 146 OFFCURVE",
"675 146 CURVE SMOOTH",
"486 146 OFFCURVE",
"388 199 OFFCURVE",
"388 292 CURVE SMOOTH",
"388 331 OFFCURVE",
"402 350 OFFCURVE",
"429 350 CURVE SMOOTH",
"468 350 OFFCURVE",
"489 371 OFFCURVE",
"489 408 CURVE SMOOTH",
"489 448 OFFCURVE",
"469 468 OFFCURVE",
"429 468 CURVE SMOOTH",
"324 468 OFFCURVE",
"260 452 OFFCURVE",
"226 401 CURVE SMOOTH",
"209 376 OFFCURVE",
"200 340 OFFCURVE",
"200 293 CURVE SMOOTH",
"200 96 OFFCURVE",
"359 -10 OFFCURVE",
"675 -10 CURVE SMOOTH"
);
}
);
userData = {
assembly = "NPUSHB[ ]	/* 86 values pushed */\0120 8 5 7 5 8 7 128 0 9 6 4 6 9 4 128 0 4 1 6 4 1 126 0 3 2 0 2 3 0 128 0 7 0 6 9 7 6 105 0 1 0 2 3 1 2 105 0 5 5 0 97 10 1 0 0 19 0 78 1 0 54 52 47 45 42 40 38 36 31 29 25 23 18 16 13 11 8 6 0 58 1 58 11 7 22 \012CALL[ ]	/* CallFunction */";
};
width = 1350;
}
);
note = uni17DC;
unicode = 17DC;
},
{
glyphname = uni1789.a;
lastChange = "2021-04-30 13:13:24 +0000";
layers = (
{
layerId = "BB6B0684-34D4-4B80-99D1-F5F29B570554";
paths = (
{
closed = 1;
nodes = (
"2250 500 LINE SMOOTH",
"2250 447 OFFCURVE",
"2225 396 OFFCURVE",
"2175 348 CURVE SMOOTH",
"2125 300 OFFCURVE",
"2100 248 OFFCURVE",
"2100 193 CURVE SMOOTH",
"2100 82 OFFCURVE",
"2260 0 OFFCURVE",
"2369 0 CURVE SMOOTH",
"2423 0 OFFCURVE",
"2450 33 OFFCURVE",
"2450 100 CURVE SMOOTH",
"2450 1140 LINE",
"2073 1380 OFFCURVE",
"1864 1500 OFFCURVE",
"1825 1500 CURVE SMOOTH",
"1790 1500 OFFCURVE",
"1667 1414 OFFCURVE",
"1456 1241 CURVE",
"1444 1256 OFFCURVE",
"1429 1270 OFFCURVE",
"1411 1285 CURVE SMOOTH",
"1152 1500 LINE",
"899 1322 LINE",
"645 1500 LINE",
"387 1285 LINE SMOOTH",
"329 1236 OFFCURVE",
"300 1186 OFFCURVE",
"300 1135 CURVE SMOOTH",
"300 370 LINE SMOOTH",
"300 203 OFFCURVE",
"458 0 OFFCURVE",
"587 0 CURVE SMOOTH",
"728 0 OFFCURVE",
"870 193 OFFCURVE",
"870 400 CURVE SMOOTH",
"870 580 OFFCURVE",
"782 670 OFFCURVE",
"607 670 CURVE SMOOTH",
"556 670 OFFCURVE",
"521 655 OFFCURVE",
"500 626 CURVE",
"500 1103 LINE",
"659 1235 LINE",
"899 1070 LINE",
"1139 1235 LINE",
"1300 1103 LINE",
"1300 500 LINE SMOOTH",
"1300 447 OFFCURVE",
"1275 396 OFFCURVE",
"1225 348 CURVE SMOOTH",
"1175 300 OFFCURVE",
"1150 248 OFFCURVE",
"1150 193 CURVE SMOOTH",
"1150 82 OFFCURVE",
"1310 0 OFFCURVE",
"1419 0 CURVE SMOOTH",
"1473 0 OFFCURVE",
"1500 33 OFFCURVE",
"1500 100 CURVE SMOOTH",
"1500 1000 LINE",
"1819 1277 LINE",
"2250 1032 LINE"
);
},
{
closed = 1;
nodes = (
"500 443 OFFCURVE",
"536 480 OFFCURVE",
"607 480 CURVE SMOOTH",
"649 480 OFFCURVE",
"670 453 OFFCURVE",
"670 400 CURVE SMOOTH",
"670 325 OFFCURVE",
"635 200 OFFCURVE",
"587 200 CURVE",
"542 220 OFFCURVE",
"513 277 OFFCURVE",
"500 370 CURVE"
);
}
);
width = 2750;
}
);
note = uni1789.a;
},
{
glyphname = uni1784.alt;
lastChange = "2021-04-30 13:13:25 +0000";
layers = (
{
layerId = "BB6B0684-34D4-4B80-99D1-F5F29B570554";
paths = (
{
closed = 1;
nodes = (
"551 1224 OFFCURVE",
"655 1300 OFFCURVE",
"756 1300 CURVE SMOOTH",
"971 1300 LINE SMOOTH",
"1060 1300 OFFCURVE",
"1137 1278 OFFCURVE",
"1202 1234 CURVE SMOOTH",
"1268 1189 OFFCURVE",
"1302 1151 OFFCURVE",
"1303 1119 CURVE SMOOTH",
"1303 1118 LINE SMOOTH",
"1303 1086 OFFCURVE",
"1279 1070 OFFCURVE",
"1230 1070 CURVE SMOOTH",
"1183 1070 OFFCURVE",
"1160 1040 OFFCURVE",
"1160 980 CURVE SMOOTH",
"1160 970 LINE SMOOTH",
"1163 903 OFFCURVE",
"1220 870 OFFCURVE",
"1332 870 CURVE SMOOTH",
"1444 870 OFFCURVE",
"1500 953 OFFCURVE",
"1500 1119 CURVE SMOOTH",
"1500 1232 OFFCURVE",
"1448 1323 OFFCURVE",
"1344 1394 CURVE SMOOTH",
"1239 1465 OFFCURVE",
"1115 1500 OFFCURVE",
"971 1500 CURVE SMOOTH",
"756 1500 LINE SMOOTH",
"589 1500 OFFCURVE",
"433 1402 OFFCURVE",
"287 1205 CURVE SMOOTH",
"229 1128 OFFCURVE",
"200 1061 OFFCURVE",
"200 1006 CURVE",
"309 960 OFFCURVE",
"395 875 OFFCURVE",
"458 752 CURVE",
"200 517 LINE",
"200 293 OFFCURVE",
"464 0 OFFCURVE",
"624 0 CURVE",
"909 226 LINE",
"1036 75 OFFCURVE",
"1121 0 OFFCURVE",
"1165 0 CURVE SMOOTH",
"1328 0 OFFCURVE",
"1500 299 OFFCURVE",
"1500 414 CURVE SMOOTH",
"1500 471 OFFCURVE",
"1486 500 OFFCURVE",
"1457 500 CURVE SMOOTH",
"1398 500 OFFCURVE",
"1324 396 OFFCURVE",
"1256 307 CURVE SMOOTH",
"1221 262 OFFCURVE",
"1190 240 OFFCURVE",
"1163 240 CURVE",
"923 499 LINE",
"590 235 LINE",
"523 276 OFFCURVE",
"473 349 OFFCURVE",
"439 453 CURVE",
"595 617 LINE",
"645 665 OFFCURVE",
"670 714 OFFCURVE",
"670 764 CURVE SMOOTH",
"670 864 OFFCURVE",
"548 1007 OFFCURVE",
"444 1071 CURVE"
);
}
);
width = 1800;
}
);
note = uni1784.alt;
},
{
glyphname = uni17BF.b;
lastChange = "2021-04-30 13:13:24 +0000";
layers = (
{
layerId = "BB6B0684-34D4-4B80-99D1-F5F29B570554";
paths = (
{
closed = 1;
nodes = (
"320 2617 OFFCURVE",
"287 2650 OFFCURVE",
"220 2650 CURVE SMOOTH",
"153 2650 OFFCURVE",
"120 2617 OFFCURVE",
"120 2550 CURVE SMOOTH",
"120 2275 LINE",
"10 2337 LINE",
"10 2550 LINE SMOOTH",
"10 2617 OFFCURVE",
"-23 2650 OFFCURVE",
"-90 2650 CURVE SMOOTH",
"-157 2650 OFFCURVE",
"-190 2617 OFFCURVE",
"-190 2550 CURVE SMOOTH",
"-190 2449 LINE",
"-380 2556 LINE SMOOTH",
"-432 2585 OFFCURVE",
"-475 2600 OFFCURVE",
"-509 2600 CURVE SMOOTH",
"-543 2600 OFFCURVE",
"-580 2567 OFFCURVE",
"-620 2500 CURVE SMOOTH",
"-740 2300 LINE SMOOTH",
"-780 2233 OFFCURVE",
"-800 2167 OFFCURVE",
"-800 2100 CURVE SMOOTH",
"-800 2033 OFFCURVE",
"-727 2000 OFFCURVE",
"-580 2000 CURVE SMOOTH",
"55 2000 LINE",
"218 1959 OFFCURVE",
"300 1833 OFFCURVE",
"300 1620 CURVE SMOOTH",
"300 -1300 LINE SMOOTH",
"300 -1367 OFFCURVE",
"267 -1400 OFFCURVE",
"200 -1400 CURVE SMOOTH",
"-200 -1400 LINE SMOOTH",
"-267 -1400 OFFCURVE",
"-300 -1367 OFFCURVE",
"-300 -1300 CURVE SMOOTH",
"-300 -1100 LINE SMOOTH",
"-300 -1033 OFFCURVE",
"-333 -1000 OFFCURVE",
"-400 -1000 CURVE SMOOTH",
"-467 -1000 OFFCURVE",
"-500 -1033 OFFCURVE",
"-500 -1100 CURVE SMOOTH",
"-500 -1300 LINE SMOOTH",
"-500 -1500 OFFCURVE",
"-400 -1600 OFFCURVE",
"-200 -1600 CURVE SMOOTH",
"200 -1600 LINE SMOOTH",
"400 -1600 OFFCURVE",
"500 -1500 OFFCURVE",
"500 -1300 CURVE SMOOTH",
"500 1620 LINE SMOOTH",
"500 1860 OFFCURVE",
"440 2028 OFFCURVE",
"320 2125 CURVE",
"320 2550 LINE SMOOTH"
);
},
{
closed = 1;
nodes = (
"-580 2200 LINE",
"-482 2379 LINE",
"-120 2200 LINE"
);
}
);
width = 800;
}
);
note = uni17BF.b;
},
{
glyphname = uni17C0.b;
lastChange = "2021-04-30 13:13:24 +0000";
layers = (
{
layerId = "BB6B0684-34D4-4B80-99D1-F5F29B570554";
paths = (
{
closed = 1;
nodes = (
"500 2100 OFFCURVE",
"367 2300 OFFCURVE",
"100 2300 CURVE SMOOTH",
"5 2300 OFFCURVE",
"-64 2292 OFFCURVE",
"-108 2276 CURVE",
"-83 2337 OFFCURVE",
"-65 2399 OFFCURVE",
"-54 2460 CURVE SMOOTH",
"-45 2507 OFFCURVE",
"-41 2548 OFFCURVE",
"-41 2581 CURVE SMOOTH",
"-41 2660 OFFCURVE",
"-66 2700 OFFCURVE",
"-115 2700 CURVE SMOOTH",
"-185 2700 OFFCURVE",
"-224 2672 OFFCURVE",
"-231 2615 CURVE SMOOTH",
"-253 2444 OFFCURVE",
"-326 2282 OFFCURVE",
"-449 2130 CURVE SMOOTH",
"-486 2083 OFFCURVE",
"-505 2044 OFFCURVE",
"-505 2011 CURVE SMOOTH",
"-505 1984 OFFCURVE",
"-492 1962 OFFCURVE",
"-466 1945 CURVE SMOOTH",
"-447 1932 OFFCURVE",
"-428 1926 OFFCURVE",
"-408 1926 CURVE SMOOTH",
"-368 1926 OFFCURVE",
"-326 1952 OFFCURVE",
"-281 2003 CURVE",
"-212 2068 OFFCURVE",
"-85 2100 OFFCURVE",
"100 2100 CURVE SMOOTH",
"233 2100 OFFCURVE",
"300 1967 OFFCURVE",
"300 1700 CURVE SMOOTH",
"300 -1300 LINE SMOOTH",
"300 -1367 OFFCURVE",
"267 -1400 OFFCURVE",
"200 -1400 CURVE SMOOTH",
"-200 -1400 LINE SMOOTH",
"-267 -1400 OFFCURVE",
"-300 -1367 OFFCURVE",
"-300 -1300 CURVE SMOOTH",
"-300 -1090 LINE SMOOTH",
"-300 -1023 OFFCURVE",
"-333 -990 OFFCURVE",
"-400 -990 CURVE SMOOTH",
"-467 -990 OFFCURVE",
"-500 -1023 OFFCURVE",
"-500 -1090 CURVE SMOOTH",
"-500 -1300 LINE SMOOTH",
"-500 -1500 OFFCURVE",
"-400 -1600 OFFCURVE",
"-200 -1600 CURVE SMOOTH",
"200 -1600 LINE SMOOTH",
"400 -1600 OFFCURVE",
"500 -1500 OFFCURVE",
"500 -1300 CURVE SMOOTH",
"500 1700 LINE SMOOTH"
);
}
);
width = 800;
}
);
note = uni17C0.b;
},
{
glyphname = uni1780_17B6;
lastChange = "2021-10-28 13:32:22 +0000";
layers = (
{
layerId = "BB6B0684-34D4-4B80-99D1-F5F29B570554";
paths = (
{
closed = 1;
nodes = (
"3150 447 OFFCURVE",
"3125 396 OFFCURVE",
"3075 348 CURVE SMOOTH",
"3025 300 OFFCURVE",
"3000 248 OFFCURVE",
"3000 193 CURVE SMOOTH",
"3000 82 OFFCURVE",
"3160 0 OFFCURVE",
"3269 0 CURVE SMOOTH",
"3323 0 OFFCURVE",
"3350 33 OFFCURVE",
"3350 100 CURVE SMOOTH",
"3350 1180 LINE",
"3169 1286 OFFCURVE",
"3024 1366 OFFCURVE",
"2916 1420 CURVE SMOOTH",
"2808 1473 OFFCURVE",
"2734 1500 OFFCURVE",
"2695 1500 CURVE SMOOTH",
"2655 1500 OFFCURVE",
"2501 1431 OFFCURVE",
"2234 1294 CURVE",
"1729 1431 OFFCURVE",
"1442 1500 OFFCURVE",
"1371 1500 CURVE SMOOTH",
"1300 1500 OFFCURVE",
"909 1410 OFFCURVE",
"200 1230 CURVE",
"200 1175 LINE",
"455 991 LINE",
"643 1069 LINE",
"619 1129 LINE",
"1374 1300 LINE",
"2234 1071 LINE",
"2689 1297 LINE",
"3150 1072 LINE",
"3150 500 LINE SMOOTH"
);
},
{
closed = 1;
nodes = (
"2200 447 OFFCURVE",
"2175 396 OFFCURVE",
"2125 348 CURVE SMOOTH",
"2075 300 OFFCURVE",
"2050 248 OFFCURVE",
"2050 193 CURVE SMOOTH",
"2050 82 OFFCURVE",
"2210 0 OFFCURVE",
"2319 0 CURVE SMOOTH",
"2373 0 OFFCURVE",
"2400 33 OFFCURVE",
"2400 100 CURVE SMOOTH",
"2400 778 LINE SMOOTH",
"2400 830 OFFCURVE",
"2373 869 OFFCURVE",
"2319 895 CURVE SMOOTH",
"1820 1130 LINE",
"1350 906 LINE",
"870 1130 LINE",
"371 895 LINE",
"324 869 OFFCURVE",
"300 830 OFFCURVE",
"300 778 CURVE SMOOTH",
"300 290 LINE SMOOTH",
"300 103 OFFCURVE",
"405 0 OFFCURVE",
"532 0 CURVE SMOOTH",
"595 0 OFFCURVE",
"640 44 OFFCURVE",
"667 133 CURVE SMOOTH",
"674 158 OFFCURVE",
"678 181 OFFCURVE",
"678 203 CURVE SMOOTH",
"678 261 OFFCURVE",
"653 311 OFFCURVE",
"604 353 CURVE SMOOTH",
"535 411 OFFCURVE",
"500 453 OFFCURVE",
"500 480 CURVE SMOOTH",
"500 728 LINE",
"870 927 LINE",
"1250 728 LINE",
"1250 500 LINE SMOOTH",
"1250 447 OFFCURVE",
"1225 396 OFFCURVE",
"1175 348 CURVE SMOOTH",
"1125 300 OFFCURVE",
"1100 248 OFFCURVE",
"1100 193 CURVE SMOOTH",
"1100 82 OFFCURVE",
"1260 0 OFFCURVE",
"1369 0 CURVE SMOOTH",
"1423 0 OFFCURVE",
"1450 33 OFFCURVE",
"1450 100 CURVE SMOOTH",
"1450 728 LINE",
"1820 927 LINE",
"2200 728 LINE",
"2200 500 LINE SMOOTH"
);
}
);
width = 3650;
}
);
note = uni1780_17B6;
rightMetricsKey = uni17B6;
},
{
glyphname = uni1780_17C5;
lastChange = "2021-04-30 13:13:24 +0000";
layers = (
{
layerId = "BB6B0684-34D4-4B80-99D1-F5F29B570554";
paths = (
{
closed = 1;
nodes = (
"3417 1033 OFFCURVE",
"3450 1100 OFFCURVE",
"3450 1200 CURVE SMOOTH",
"3450 1670 LINE SMOOTH",
"3450 1823 OFFCURVE",
"3383 1900 OFFCURVE",
"3250 1900 CURVE SMOOTH",
"3183 1900 OFFCURVE",
"3150 1875 OFFCURVE",
"3150 1825 CURVE SMOOTH",
"3150 1775 OFFCURVE",
"3167 1743 OFFCURVE",
"3200 1730 CURVE SMOOTH",
"3233 1717 OFFCURVE",
"3250 1697 OFFCURVE",
"3250 1670 CURVE SMOOTH",
"3250 1238 LINE",
"3115 1315 OFFCURVE",
"3003 1376 OFFCURVE",
"2916 1420 CURVE SMOOTH",
"2808 1473 OFFCURVE",
"2734 1500 OFFCURVE",
"2695 1500 CURVE SMOOTH",
"2655 1500 OFFCURVE",
"2501 1431 OFFCURVE",
"2234 1294 CURVE",
"1729 1431 OFFCURVE",
"1442 1500 OFFCURVE",
"1371 1500 CURVE SMOOTH",
"1300 1500 OFFCURVE",
"909 1410 OFFCURVE",
"200 1230 CURVE",
"200 1175 LINE",
"455 991 LINE",
"643 1069 LINE",
"619 1129 LINE",
"1374 1300 LINE",
"2234 1071 LINE",
"2689 1297 LINE",
"3150 1072 LINE",
"3150 500 LINE SMOOTH",
"3150 447 OFFCURVE",
"3125 396 OFFCURVE",
"3075 348 CURVE SMOOTH",
"3025 300 OFFCURVE",
"3000 248 OFFCURVE",
"3000 193 CURVE SMOOTH",
"3000 82 OFFCURVE",
"3160 0 OFFCURVE",
"3269 0 CURVE SMOOTH",
"3323 0 OFFCURVE",
"3350 33 OFFCURVE",
"3350 100 CURVE SMOOTH",
"3350 1000 LINE"
);
},
{
closed = 1;
nodes = (
"2200 447 OFFCURVE",
"2175 396 OFFCURVE",
"2125 348 CURVE SMOOTH",
"2075 300 OFFCURVE",
"2050 248 OFFCURVE",
"2050 193 CURVE SMOOTH",
"2050 82 OFFCURVE",
"2210 0 OFFCURVE",
"2319 0 CURVE SMOOTH",
"2373 0 OFFCURVE",
"2400 33 OFFCURVE",
"2400 100 CURVE SMOOTH",
"2400 778 LINE SMOOTH",
"2400 830 OFFCURVE",
"2373 869 OFFCURVE",
"2319 895 CURVE SMOOTH",
"1820 1130 LINE",
"1350 906 LINE",
"870 1130 LINE",
"371 895 LINE",
"324 869 OFFCURVE",
"300 830 OFFCURVE",
"300 778 CURVE SMOOTH",
"300 290 LINE SMOOTH",
"300 103 OFFCURVE",
"405 0 OFFCURVE",
"532 0 CURVE SMOOTH",
"595 0 OFFCURVE",
"640 44 OFFCURVE",
"667 133 CURVE SMOOTH",
"674 158 OFFCURVE",
"678 181 OFFCURVE",
"678 203 CURVE SMOOTH",
"678 261 OFFCURVE",
"653 311 OFFCURVE",
"604 353 CURVE SMOOTH",
"535 411 OFFCURVE",
"500 453 OFFCURVE",
"500 480 CURVE SMOOTH",
"500 728 LINE",
"870 927 LINE",
"1250 728 LINE",
"1250 500 LINE SMOOTH",
"1250 447 OFFCURVE",
"1225 396 OFFCURVE",
"1175 348 CURVE SMOOTH",
"1125 300 OFFCURVE",
"1100 248 OFFCURVE",
"1100 193 CURVE SMOOTH",
"1100 82 OFFCURVE",
"1260 0 OFFCURVE",
"1369 0 CURVE SMOOTH",
"1423 0 OFFCURVE",
"1450 33 OFFCURVE",
"1450 100 CURVE SMOOTH",
"1450 728 LINE",
"1820 927 LINE",
"2200 728 LINE",
"2200 500 LINE SMOOTH"
);
}
);
width = 2700;
}
);
note = uni1780_17C5;
},
{
glyphname = uni1781_17B6;
lastChange = "2021-10-28 13:32:22 +0000";
layers = (
{
layerId = "BB6B0684-34D4-4B80-99D1-F5F29B570554";
paths = (
{
closed = 1;
nodes = (
"2250 500 LINE SMOOTH",
"2250 447 OFFCURVE",
"2225 396 OFFCURVE",
"2175 348 CURVE SMOOTH",
"2125 300 OFFCURVE",
"2100 248 OFFCURVE",
"2100 193 CURVE SMOOTH",
"2100 82 OFFCURVE",
"2260 0 OFFCURVE",
"2369 0 CURVE SMOOTH",
"2423 0 OFFCURVE",
"2450 33 OFFCURVE",
"2450 100 CURVE SMOOTH",
"2450 1140 LINE",
"2073 1380 OFFCURVE",
"1864 1500 OFFCURVE",
"1825 1500 CURVE SMOOTH",
"1790 1500 OFFCURVE",
"1672 1417 OFFCURVE",
"1470 1252 CURVE",
"1441 1327 OFFCURVE",
"1393 1382 OFFCURVE",
"1324 1415 CURVE SMOOTH",
"1206 1472 OFFCURVE",
"1065 1500 OFFCURVE",
"900 1500 CURVE SMOOTH",
"571 1500 OFFCURVE",
"300 1390 OFFCURVE",
"300 1110 CURVE SMOOTH",
"300 903 OFFCURVE",
"399 800 OFFCURVE",
"596 800 CURVE SMOOTH",
"695 800 OFFCURVE",
"767 825 OFFCURVE",
"811 876 CURVE SMOOTH",
"839 909 OFFCURVE",
"853 944 OFFCURVE",
"853 982 CURVE SMOOTH",
"853 1002 OFFCURVE",
"849 1023 OFFCURVE",
"842 1045 CURVE SMOOTH",
"823 1096 OFFCURVE",
"787 1122 OFFCURVE",
"735 1122 CURVE SMOOTH",
"724 1122 OFFCURVE",
"713 1121 OFFCURVE",
"702 1119 CURVE SMOOTH",
"631 1106 OFFCURVE",
"596 1060 OFFCURVE",
"596 980 CURVE",
"532 980 OFFCURVE",
"500 1023 OFFCURVE",
"500 1110 CURVE SMOOTH",
"500 1237 OFFCURVE",
"633 1300 OFFCURVE",
"900 1300 CURVE SMOOTH",
"1167 1300 OFFCURVE",
"1300 1220 OFFCURVE",
"1300 1060 CURVE SMOOTH",
"1300 889 OFFCURVE",
"1086 701 OFFCURVE",
"659 496 CURVE",
"610 465 OFFCURVE",
"586 427 OFFCURVE",
"586 382 CURVE SMOOTH",
"586 330 OFFCURVE",
"618 269 OFFCURVE",
"681 199 CURVE SMOOTH",
"799 66 OFFCURVE",
"888 0 OFFCURVE",
"947 0 CURVE SMOOTH",
"1007 3 OFFCURVE",
"1099 93 OFFCURVE",
"1224 270 CURVE SMOOTH",
"1337 430 OFFCURVE",
"1393 563 OFFCURVE",
"1393 669 CURVE SMOOTH",
"1393 680 OFFCURVE",
"1392 691 OFFCURVE",
"1391 702 CURVE",
"930 245 LINE",
"836 356 LINE",
"1238 566 OFFCURVE",
"1457 779 OFFCURVE",
"1494 995 CURVE",
"1819 1277 LINE",
"2250 1032 LINE"
);
}
);
width = 2750;
}
);
note = uni1781_17B6;
rightMetricsKey = uni17B6;
},
{
glyphname = uni1781_17C5;
lastChange = "2021-04-30 13:13:24 +0000";
layers = (
{
layerId = "BB6B0684-34D4-4B80-99D1-F5F29B570554";
paths = (
{
closed = 1;
nodes = (
"2517 1033 OFFCURVE",
"2550 1100 OFFCURVE",
"2550 1200 CURVE SMOOTH",
"2550 1670 LINE SMOOTH",
"2550 1823 OFFCURVE",
"2483 1900 OFFCURVE",
"2350 1900 CURVE SMOOTH",
"2283 1900 OFFCURVE",
"2250 1875 OFFCURVE",
"2250 1825 CURVE SMOOTH",
"2250 1775 OFFCURVE",
"2267 1743 OFFCURVE",
"2300 1730 CURVE SMOOTH",
"2333 1717 OFFCURVE",
"2350 1697 OFFCURVE",
"2350 1670 CURVE SMOOTH",
"2350 1203 LINE",
"2036 1401 OFFCURVE",
"1861 1500 OFFCURVE",
"1825 1500 CURVE SMOOTH",
"1790 1500 OFFCURVE",
"1672 1417 OFFCURVE",
"1470 1252 CURVE",
"1441 1327 OFFCURVE",
"1393 1382 OFFCURVE",
"1324 1415 CURVE SMOOTH",
"1206 1472 OFFCURVE",
"1065 1500 OFFCURVE",
"900 1500 CURVE SMOOTH",
"571 1500 OFFCURVE",
"300 1390 OFFCURVE",
"300 1110 CURVE SMOOTH",
"300 903 OFFCURVE",
"399 800 OFFCURVE",
"596 800 CURVE SMOOTH",
"695 800 OFFCURVE",
"767 825 OFFCURVE",
"811 876 CURVE SMOOTH",
"839 909 OFFCURVE",
"853 944 OFFCURVE",
"853 982 CURVE SMOOTH",
"853 1002 OFFCURVE",
"849 1023 OFFCURVE",
"842 1045 CURVE SMOOTH",
"823 1096 OFFCURVE",
"787 1122 OFFCURVE",
"735 1122 CURVE SMOOTH",
"724 1122 OFFCURVE",
"713 1121 OFFCURVE",
"702 1119 CURVE SMOOTH",
"631 1106 OFFCURVE",
"596 1060 OFFCURVE",
"596 980 CURVE",
"532 980 OFFCURVE",
"500 1023 OFFCURVE",
"500 1110 CURVE SMOOTH",
"500 1237 OFFCURVE",
"633 1300 OFFCURVE",
"900 1300 CURVE SMOOTH",
"1167 1300 OFFCURVE",
"1300 1220 OFFCURVE",
"1300 1060 CURVE SMOOTH",
"1300 889 OFFCURVE",
"1086 701 OFFCURVE",
"659 496 CURVE",
"610 465 OFFCURVE",
"586 427 OFFCURVE",
"586 382 CURVE SMOOTH",
"586 330 OFFCURVE",
"618 269 OFFCURVE",
"681 199 CURVE SMOOTH",
"799 66 OFFCURVE",
"888 0 OFFCURVE",
"947 0 CURVE SMOOTH",
"1007 3 OFFCURVE",
"1099 93 OFFCURVE",
"1224 270 CURVE SMOOTH",
"1337 430 OFFCURVE",
"1393 563 OFFCURVE",
"1393 669 CURVE SMOOTH",
"1393 680 OFFCURVE",
"1392 691 OFFCURVE",
"1391 702 CURVE",
"930 245 LINE",
"836 356 LINE",
"1238 566 OFFCURVE",
"1457 779 OFFCURVE",
"1494 995 CURVE",
"1819 1277 LINE",
"2250 1032 LINE",
"2250 500 LINE SMOOTH",
"2250 447 OFFCURVE",
"2225 396 OFFCURVE",
"2175 348 CURVE SMOOTH",
"2125 300 OFFCURVE",
"2100 248 OFFCURVE",
"2100 193 CURVE SMOOTH",
"2100 82 OFFCURVE",
"2260 0 OFFCURVE",
"2369 0 CURVE SMOOTH",
"2423 0 OFFCURVE",
"2450 33 OFFCURVE",
"2450 100 CURVE SMOOTH",
"2450 1000 LINE"
);
}
);
width = 1800;
}
);
note = uni1781_17C5;
},
{
glyphname = uni1782_17B6;
lastChange = "2021-10-28 13:32:22 +0000";
layers = (
{
layerId = "BB6B0684-34D4-4B80-99D1-F5F29B570554";
paths = (
{
closed = 1;
nodes = (
"1804 1285 LINE",
"2250 1062 LINE",
"2250 500 LINE SMOOTH",
"2250 447 OFFCURVE",
"2225 396 OFFCURVE",
"2175 348 CURVE SMOOTH",
"2125 300 OFFCURVE",
"2100 248 OFFCURVE",
"2100 193 CURVE SMOOTH",
"2100 82 OFFCURVE",
"2260 0 OFFCURVE",
"2369 0 CURVE SMOOTH",
"2423 0 OFFCURVE",
"2450 33 OFFCURVE",
"2450 100 CURVE SMOOTH",
"2450 1170 LINE",
"2110 1366 OFFCURVE",
"1923 1470 OFFCURVE",
"1888 1482 CURVE SMOOTH",
"1853 1494 OFFCURVE",
"1832 1500 OFFCURVE",
"1825 1500 CURVE SMOOTH",
"1819 1500 OFFCURVE",
"1798 1495 OFFCURVE",
"1762 1485 CURVE SMOOTH",
"1725 1475 OFFCURVE",
"1586 1408 OFFCURVE",
"1345 1284 CURVE",
"1061 1428 OFFCURVE",
"899 1500 OFFCURVE",
"859 1500 CURVE SMOOTH",
"819 1500 OFFCURVE",
"599 1401 OFFCURVE",
"200 1203 CURVE",
"200 1145 LINE",
"373 981 LINE",
"487 1039 LINE",
"442 1112 LINE",
"861 1300 LINE",
"1345 1061 LINE"
);
},
{
closed = 1;
nodes = (
"300 103 OFFCURVE",
"405 0 OFFCURVE",
"532 0 CURVE SMOOTH",
"595 0 OFFCURVE",
"640 44 OFFCURVE",
"667 133 CURVE SMOOTH",
"674 158 OFFCURVE",
"678 181 OFFCURVE",
"678 203 CURVE SMOOTH",
"678 261 OFFCURVE",
"653 311 OFFCURVE",
"604 353 CURVE SMOOTH",
"535 411 OFFCURVE",
"500 453 OFFCURVE",
"500 480 CURVE SMOOTH",
"500 738 LINE",
"900 937 LINE",
"1300 738 LINE",
"1300 500 LINE SMOOTH",
"1300 447 OFFCURVE",
"1275 396 OFFCURVE",
"1225 348 CURVE SMOOTH",
"1175 300 OFFCURVE",
"1150 248 OFFCURVE",
"1150 193 CURVE SMOOTH",
"1150 82 OFFCURVE",
"1310 0 OFFCURVE",
"1419 0 CURVE SMOOTH",
"1473 0 OFFCURVE",
"1500 33 OFFCURVE",
"1500 100 CURVE SMOOTH",
"1500 788 LINE SMOOTH",
"1500 840 OFFCURVE",
"1475 879 OFFCURVE",
"1425 905 CURVE SMOOTH",
"900 1160 LINE",
"375 905 LINE SMOOTH",
"325 879 OFFCURVE",
"300 840 OFFCURVE",
"300 788 CURVE SMOOTH",
"300 290 LINE SMOOTH"
);
}
);
width = 2750;
}
);
note = uni1782_17B6;
rightMetricsKey = uni17B6;
},
{
glyphname = uni1782_17C5;
lastChange = "2021-04-30 13:13:24 +0000";
layers = (
{
layerId = "BB6B0684-34D4-4B80-99D1-F5F29B570554";
paths = (
{
closed = 1;
nodes = (
"2517 1033 OFFCURVE",
"2550 1100 OFFCURVE",
"2550 1200 CURVE SMOOTH",
"2550 1670 LINE SMOOTH",
"2550 1823 OFFCURVE",
"2483 1900 OFFCURVE",
"2350 1900 CURVE SMOOTH",
"2283 1900 OFFCURVE",
"2250 1875 OFFCURVE",
"2250 1825 CURVE SMOOTH",
"2250 1775 OFFCURVE",
"2267 1743 OFFCURVE",
"2300 1730 CURVE SMOOTH",
"2333 1717 OFFCURVE",
"2350 1697 OFFCURVE",
"2350 1670 CURVE SMOOTH",
"2350 1228 LINE",
"2073 1387 OFFCURVE",
"1919 1471 OFFCURVE",
"1888 1482 CURVE SMOOTH",
"1853 1494 OFFCURVE",
"1832 1500 OFFCURVE",
"1825 1500 CURVE SMOOTH",
"1819 1500 OFFCURVE",
"1798 1495 OFFCURVE",
"1762 1485 CURVE SMOOTH",
"1725 1475 OFFCURVE",
"1586 1408 OFFCURVE",
"1345 1284 CURVE",
"1061 1428 OFFCURVE",
"899 1500 OFFCURVE",
"859 1500 CURVE SMOOTH",
"819 1500 OFFCURVE",
"599 1401 OFFCURVE",
"200 1203 CURVE",
"200 1145 LINE",
"373 981 LINE",
"487 1039 LINE",
"442 1112 LINE",
"861 1300 LINE",
"1345 1061 LINE",
"1804 1285 LINE",
"2250 1062 LINE",
"2250 500 LINE SMOOTH",
"2250 447 OFFCURVE",
"2225 396 OFFCURVE",
"2175 348 CURVE SMOOTH",
"2125 300 OFFCURVE",
"2100 248 OFFCURVE",
"2100 193 CURVE SMOOTH",
"2100 82 OFFCURVE",
"2260 0 OFFCURVE",
"2369 0 CURVE SMOOTH",
"2423 0 OFFCURVE",
"2450 33 OFFCURVE",
"2450 100 CURVE SMOOTH",
"2450 1000 LINE"
);
},
{
closed = 1;
nodes = (
"300 103 OFFCURVE",
"405 0 OFFCURVE",
"532 0 CURVE SMOOTH",
"595 0 OFFCURVE",
"640 44 OFFCURVE",
"667 133 CURVE SMOOTH",
"674 158 OFFCURVE",
"678 181 OFFCURVE",
"678 203 CURVE SMOOTH",
"678 261 OFFCURVE",
"653 311 OFFCURVE",
"604 353 CURVE SMOOTH",
"535 411 OFFCURVE",
"500 453 OFFCURVE",
"500 480 CURVE SMOOTH",
"500 738 LINE",
"900 937 LINE",
"1300 738 LINE",
"1300 500 LINE SMOOTH",
"1300 447 OFFCURVE",
"1275 396 OFFCURVE",
"1225 348 CURVE SMOOTH",
"1175 300 OFFCURVE",
"1150 248 OFFCURVE",
"1150 193 CURVE SMOOTH",
"1150 82 OFFCURVE",
"1310 0 OFFCURVE",
"1419 0 CURVE SMOOTH",
"1473 0 OFFCURVE",
"1500 33 OFFCURVE",
"1500 100 CURVE SMOOTH",
"1500 788 LINE SMOOTH",
"1500 840 OFFCURVE",
"1475 879 OFFCURVE",
"1425 905 CURVE SMOOTH",
"900 1160 LINE",
"375 905 LINE SMOOTH",
"325 879 OFFCURVE",
"300 840 OFFCURVE",
"300 788 CURVE SMOOTH",
"300 290 LINE SMOOTH"
);
}
);
width = 1800;
}
);
note = uni1782_17C5;
},
{
glyphname = uni1783_17B6;
lastChange = "2021-10-28 13:32:22 +0000";
layers = (
{
layerId = "BB6B0684-34D4-4B80-99D1-F5F29B570554";
paths = (
{
closed = 1;
nodes = (
"2450 982 OFFCURVE",
"2442 1015 OFFCURVE",
"2425 1045 CURVE",
"2749 1277 LINE",
"3200 1022 LINE",
"3200 500 LINE SMOOTH",
"3200 447 OFFCURVE",
"3175 396 OFFCURVE",
"3125 348 CURVE SMOOTH",
"3075 300 OFFCURVE",
"3050 248 OFFCURVE",
"3050 193 CURVE SMOOTH",
"3050 82 OFFCURVE",
"3210 0 OFFCURVE",
"3319 0 CURVE SMOOTH",
"3373 0 OFFCURVE",
"3400 33 OFFCURVE",
"3400 100 CURVE SMOOTH",
"3400 1140 LINE",
"3009 1380 OFFCURVE",
"2794 1500 OFFCURVE",
"2755 1500 CURVE SMOOTH",
"2717 1500 OFFCURVE",
"2516 1374 OFFCURVE",
"2151 1122 CURVE SMOOTH",
"2126 1105 OFFCURVE",
"2114 1086 OFFCURVE",
"2114 1066 CURVE SMOOTH",
"2114 1045 OFFCURVE",
"2125 1031 OFFCURVE",
"2148 1023 CURVE SMOOTH",
"2216 1000 OFFCURVE",
"2250 951 OFFCURVE",
"2250 876 CURVE SMOOTH",
"2250 500 LINE",
"2217 353 OFFCURVE",
"2133 253 OFFCURVE",
"2000 200 CURVE",
"1764 200 LINE",
"1668 254 OFFCURVE",
"1590 318 OFFCURVE",
"1531 393 CURVE",
"1540 426 OFFCURVE",
"1546 462 OFFCURVE",
"1550 500 CURVE",
"1550 896 LINE",
"1537 1013 OFFCURVE",
"1470 1099 OFFCURVE",
"1351 1154 CURVE",
"1429 1249 LINE",
"1523 1197 OFFCURVE",
"1593 1171 OFFCURVE",
"1638 1171 CURVE SMOOTH",
"1649 1171 OFFCURVE",
"1659 1173 OFFCURVE",
"1668 1176 CURVE SMOOTH",
"1709 1192 OFFCURVE",
"1737 1248 OFFCURVE",
"1750 1343 CURVE",
"1741 1339 OFFCURVE",
"1731 1337 OFFCURVE",
"1720 1337 CURVE SMOOTH",
"1659 1337 OFFCURVE",
"1558 1391 OFFCURVE",
"1416 1500 CURVE",
"1090 1052 LINE",
"1237 1025 OFFCURVE",
"1323 967 OFFCURVE",
"1350 876 CURVE",
"1350 500 LINE",
"1317 353 OFFCURVE",
"1233 253 OFFCURVE",
"1100 200 CURVE",
"714 200 LINE",
"598 265 OFFCURVE",
"514 341 OFFCURVE",
"461 429 CURVE",
"647 682 OFFCURVE",
"740 834 OFFCURVE",
"740 884 CURVE SMOOTH",
"740 977 LINE SMOOTH",
"740 1038 OFFCURVE",
"698 1149 OFFCURVE",
"613 1309 CURVE SMOOTH",
"544 1436 OFFCURVE",
"493 1500 OFFCURVE",
"461 1500 CURVE SMOOTH",
"397 1500 OFFCURVE",
"200 1302 OFFCURVE",
"200 1111 CURVE SMOOTH",
"200 1016 OFFCURVE",
"235 966 OFFCURVE",
"306 961 CURVE SMOOTH",
"312 960 OFFCURVE",
"318 960 OFFCURVE",
"323 960 CURVE SMOOTH",
"384 960 OFFCURVE",
"420 983 OFFCURVE",
"433 1029 CURVE SMOOTH",
"437 1044 OFFCURVE",
"439 1058 OFFCURVE",
"439 1071 CURVE SMOOTH",
"439 1101 OFFCURVE",
"428 1126 OFFCURVE",
"405 1145 CURVE SMOOTH",
"385 1162 OFFCURVE",
"375 1176 OFFCURVE",
"375 1187 CURVE SMOOTH",
"375 1194 OFFCURVE",
"379 1199 OFFCURVE",
"386 1204 CURVE SMOOTH",
"391 1207 OFFCURVE",
"396 1208 OFFCURVE",
"401 1208 CURVE SMOOTH",
"417 1208 OFFCURVE",
"433 1195 OFFCURVE",
"450 1170 CURVE SMOOTH",
"512 1075 OFFCURVE",
"543 1005 OFFCURVE",
"543 960 CURVE SMOOTH",
"543 957 OFFCURVE",
"543 953 OFFCURVE",
"542 950 CURVE",
"533 882 LINE",
"200 476 LINE",
"240 255 OFFCURVE",
"554 0 OFFCURVE",
"714 0 CURVE SMOOTH",
"1100 0 LINE",
"1243 35 OFFCURVE",
"1352 97 OFFCURVE",
"1427 186 CURVE",
"1541 62 OFFCURVE",
"1640 0 OFFCURVE",
"1724 0 CURVE SMOOTH",
"2030 0 LINE",
"2283 67 OFFCURVE",
"2423 233 OFFCURVE",
"2450 500 CURVE",
"2450 946 LINE SMOOTH"
);
}
);
width = 3700;
}
);
note = uni1783_17B6;
rightMetricsKey = uni17B6;
},
{
glyphname = uni1783_17C5;
lastChange = "2021-04-30 13:13:25 +0000";
layers = (
{
layerId = "BB6B0684-34D4-4B80-99D1-F5F29B570554";
paths = (
{
closed = 1;
nodes = (
"3467 1033 OFFCURVE",
"3500 1100 OFFCURVE",
"3500 1200 CURVE SMOOTH",
"3500 1670 LINE SMOOTH",
"3500 1823 OFFCURVE",
"3433 1900 OFFCURVE",
"3300 1900 CURVE SMOOTH",
"3233 1900 OFFCURVE",
"3200 1875 OFFCURVE",
"3200 1825 CURVE SMOOTH",
"3200 1775 OFFCURVE",
"3217 1743 OFFCURVE",
"3250 1730 CURVE SMOOTH",
"3283 1717 OFFCURVE",
"3300 1697 OFFCURVE",
"3300 1670 CURVE SMOOTH",
"3300 1201 LINE",
"2973 1400 OFFCURVE",
"2791 1500 OFFCURVE",
"2755 1500 CURVE SMOOTH",
"2717 1500 OFFCURVE",
"2516 1374 OFFCURVE",
"2151 1122 CURVE SMOOTH",
"2126 1105 OFFCURVE",
"2114 1086 OFFCURVE",
"2114 1066 CURVE SMOOTH",
"2114 1045 OFFCURVE",
"2125 1031 OFFCURVE",
"2148 1023 CURVE SMOOTH",
"2216 1000 OFFCURVE",
"2250 951 OFFCURVE",
"2250 876 CURVE SMOOTH",
"2250 500 LINE",
"2217 353 OFFCURVE",
"2133 253 OFFCURVE",
"2000 200 CURVE",
"1764 200 LINE",
"1668 254 OFFCURVE",
"1590 318 OFFCURVE",
"1531 393 CURVE",
"1540 426 OFFCURVE",
"1546 462 OFFCURVE",
"1550 500 CURVE",
"1550 896 LINE",
"1537 1013 OFFCURVE",
"1470 1099 OFFCURVE",
"1351 1154 CURVE",
"1429 1249 LINE",
"1523 1197 OFFCURVE",
"1593 1171 OFFCURVE",
"1638 1171 CURVE SMOOTH",
"1649 1171 OFFCURVE",
"1659 1173 OFFCURVE",
"1668 1176 CURVE SMOOTH",
"1709 1192 OFFCURVE",
"1737 1248 OFFCURVE",
"1750 1343 CURVE",
"1741 1339 OFFCURVE",
"1731 1337 OFFCURVE",
"1720 1337 CURVE SMOOTH",
"1659 1337 OFFCURVE",
"1558 1391 OFFCURVE",
"1416 1500 CURVE",
"1090 1052 LINE",
"1237 1025 OFFCURVE",
"1323 967 OFFCURVE",
"1350 876 CURVE",
"1350 500 LINE",
"1317 353 OFFCURVE",
"1233 253 OFFCURVE",
"1100 200 CURVE",
"714 200 LINE",
"598 265 OFFCURVE",
"514 341 OFFCURVE",
"461 429 CURVE",
"647 682 OFFCURVE",
"740 834 OFFCURVE",
"740 884 CURVE SMOOTH",
"740 977 LINE SMOOTH",
"740 1038 OFFCURVE",
"698 1149 OFFCURVE",
"613 1309 CURVE SMOOTH",
"544 1436 OFFCURVE",
"493 1500 OFFCURVE",
"461 1500 CURVE SMOOTH",
"397 1500 OFFCURVE",
"200 1302 OFFCURVE",
"200 1111 CURVE SMOOTH",
"200 1016 OFFCURVE",
"235 966 OFFCURVE",
"306 961 CURVE SMOOTH",
"312 960 OFFCURVE",
"318 960 OFFCURVE",
"323 960 CURVE SMOOTH",
"384 960 OFFCURVE",
"420 983 OFFCURVE",
"433 1029 CURVE SMOOTH",
"437 1044 OFFCURVE",
"439 1058 OFFCURVE",
"439 1071 CURVE SMOOTH",
"439 1101 OFFCURVE",
"428 1126 OFFCURVE",
"405 1145 CURVE SMOOTH",
"385 1162 OFFCURVE",
"375 1176 OFFCURVE",
"375 1187 CURVE SMOOTH",
"375 1194 OFFCURVE",
"379 1199 OFFCURVE",
"386 1204 CURVE SMOOTH",
"391 1207 OFFCURVE",
"396 1208 OFFCURVE",
"401 1208 CURVE SMOOTH",
"417 1208 OFFCURVE",
"433 1195 OFFCURVE",
"450 1170 CURVE SMOOTH",
"512 1075 OFFCURVE",
"543 1005 OFFCURVE",
"543 960 CURVE SMOOTH",
"543 957 OFFCURVE",
"543 953 OFFCURVE",
"542 950 CURVE",
"533 882 LINE",
"200 476 LINE",
"240 255 OFFCURVE",
"554 0 OFFCURVE",
"714 0 CURVE SMOOTH",
"1100 0 LINE",
"1243 35 OFFCURVE",
"1352 97 OFFCURVE",
"1427 186 CURVE",
"1541 62 OFFCURVE",
"1640 0 OFFCURVE",
"1724 0 CURVE SMOOTH",
"2030 0 LINE",
"2283 67 OFFCURVE",
"2423 233 OFFCURVE",
"2450 500 CURVE",
"2450 946 LINE SMOOTH",
"2450 982 OFFCURVE",
"2442 1015 OFFCURVE",
"2425 1045 CURVE",
"2749 1277 LINE",
"3200 1022 LINE",
"3200 500 LINE SMOOTH",
"3200 447 OFFCURVE",
"3175 396 OFFCURVE",
"3125 348 CURVE SMOOTH",
"3075 300 OFFCURVE",
"3050 248 OFFCURVE",
"3050 193 CURVE SMOOTH",
"3050 82 OFFCURVE",
"3210 0 OFFCURVE",
"3319 0 CURVE SMOOTH",
"3373 0 OFFCURVE",
"3400 33 OFFCURVE",
"3400 100 CURVE SMOOTH",
"3400 1000 LINE"
);
}
);
width = 2750;
}
);
note = uni1783_17C5;
},
